<svg version="1.1" xmlns="http://www.w3.org/2000/svg" viewBox="20 58 90 90" width="200" height="200">
<style>
  .st1{fill:none;}
  .st2{fill:#141B4D;}
</style>
<g>
		<path class="st1" d="M35.42,84.89c0.23,0.11,0.46,0.23,0.57,0.34c0.69,0.46,1.49,0.92,2.06,1.49c-0.11-0.92-1.03-1.37-1.72-1.83
			c-0.35-0.23-0.57-0.46-0.92-0.69c-0.92-0.8-1.72-1.72-2.06-3.09c-0.34-1.03-0.46-2.18-0.34-3.32c0-0.69,0.11-1.38,0.23-2.06
			c-0.46,0.23-0.57,1.26-0.69,2.06c-0.23,1.26-0.11,2.52,0.34,3.78C33.36,83.06,34.28,83.97,35.42,84.89z"/>
		<path class="st1" d="M30.27,114.21c0.11,0,0.11,0,0.23,0c0.23-0.12,0.34-0.34,0.23-0.57l-0.12-0.23l-0.34,0.23l-0.46,0.23
			l0.11,0.12C30.04,114.21,30.16,114.33,30.27,114.21z"/>
		<path class="st1" d="M36.8,80.19c-0.34-0.23-0.92-0.92-1.37-1.83c-0.34-0.8-0.69-1.83-0.69-2.98c-0.11-1.37,0.11-2.75,0.69-3.78
			c0.34-0.57,0.69-1.03,1.15-1.49c-0.34,0.11-0.8,0.34-1.15,0.69c-0.92,1.03-1.49,2.86-1.37,4.47c0.11,1.72,0.69,3.21,1.37,4.12
			C35.88,79.85,36.34,80.19,36.8,80.19z"/>
		<path class="st1" d="M56.04,135.51h-0.23l-0.11,0.8h0.34c0,0.12,0,0.12,0,0.12c0.23,0,0.34-0.23,0.46-0.46
			C56.5,135.74,56.38,135.63,56.04,135.51z"/>
		<polygon class="st1" points="31.99,116.16 31.42,116.39 30.84,116.62 31.07,117.07 31.42,116.73 		"/>
		<path class="st1" d="M41.38,97.26c0.11,12.48,8.36,23.02,19.58,26.8h0.11c11.34-3.78,19.58-14.32,19.7-26.8v-0.34V78.25h-19.7
			H41.27v18.67h0.11V97.26z M45.39,90.39v-0.34h0.57v0.34c0,0.23,0.11,0.34,0.23,0.34h3.9v-0.69h0.57v0.69h3.78
			c0.23,0,0.34-0.11,0.34-0.34v-0.34h0.57v0.34c0,0.57-0.35,0.92-0.92,0.92c-3.44,0-4.81,0-8.13,0
			C45.73,91.3,45.39,90.96,45.39,90.39z M57.99,97.37c0.12,0,0.23,0,0.34,0c0.23-0.12,0.46-0.12,0.69-0.23
			c0.23-0.11,0.34-0.34,0.57-0.57c0,0.46-0.11,0.8,0,1.26c0.12,0.34,0.34,0.57,0.34,1.03c-0.34-0.34-0.69-0.46-0.92-1.03
			c-0.11,0-0.11-0.11-0.11-0.11c-0.12,0.57-0.12,0.92-0.46,1.26c-0.11-0.23-0.11-0.46-0.11-0.69c-0.11-0.23-0.11-0.46-0.34-0.57
			c-0.11,0.34-0.46,0.57-0.92,0.46c0.12-0.23,0.34-0.57,0.34-1.14c-0.69,0.46-1.49-0.34-1.03-1.03c0.23,0.34,0.46,0.34,0.8,0.34
			c0.34,0,0.57-0.12,0.92-0.46C57.99,96.57,58.22,96.69,57.99,97.37z M59.93,99.32c-0.34-0.11-0.57-0.23-0.92-0.23
			c-0.11,0-0.23,0-0.34,0c0.11-0.11,0.23-0.34,0.23-0.57l0.11,0.12C59.25,98.86,59.59,99.09,59.93,99.32z M56.84,97.72
			c-0.11,0.23-0.23,0.46-0.46,0.57c0.57,0.35,1.14,0.23,1.49,0c0,0.35,0.11,0.57,0.23,0.8c-0.69,0.11-1.26,0.23-1.72,0.34
			c-0.57,0.23-2.06,0.57-2.18,0.69c0.23-0.46,0.57-0.69,0.34-1.26c-0.11,0.11-0.57,0.57-1.03,0.57c0.23-0.34,0.57-0.8,0.46-1.15
			c-0.46,0.35-0.69,0.46-1.03,0.46c0.23-0.34,0.69-1.03,0.23-1.49c-0.12,0.23-0.34,0.69-0.69,0.8c0.34-1.14-0.46-1.26-0.46-1.95
			h1.26l0.12-1.14c-0.92-0.11-2.06,0.23-2.18-0.92v-1.49l-0.8-0.23c0.23-0.11,0.11-0.46,0-0.69c0.34-0.11,0.69,0,0.8,0.23
			c0.46,0.46,0.8,1.03,1.15,1.37c0.57,0.69,1.26,0.57,1.72,1.26c0.34,0.46,0.34,1.03,0.57,1.6C55.01,96.8,56.15,97.49,56.84,97.72z
			 M50.2,93.6c0.46-0.23,0.46-0.57,0.11-0.92L51,92.79v1.72h-0.57C50.77,94.17,50.54,93.82,50.2,93.6z M50.31,94.17
			c-0.11,0.34-0.46,0.46-0.8,0.34c-0.34-0.11-0.57-0.34-0.46-0.57c0-0.23,0.34-0.34,0.69-0.34C50.08,93.71,50.31,93.94,50.31,94.17z
			 M49.51,92.33c-0.34,0-0.57-0.23-0.46-0.57c0-0.23,0.34-0.34,0.69-0.23c0.34,0,0.57,0.34,0.57,0.57
			C50.2,92.33,49.85,92.45,49.51,92.33z M49.74,92.56c0.34,0.12,0.57,0.34,0.57,0.57c-0.11,0.23-0.46,0.46-0.8,0.34
			c-0.34-0.11-0.69-0.34-0.57-0.57C48.94,92.68,49.4,92.45,49.74,92.56z M49.05,95.31c0-0.34,0.23-0.57,0.46-0.57h1.37
			c0.23,0,0.46,0.23,0.46,0.57h1.49v0.57h-5.15v-0.57H49.05z M61.42,112.03c-0.57,0.23-1.03,0.11-1.38-0.23
			c0.23,0.57,0.46,0.69,0.8,0.8c-1.37,1.15-0.11,1.72-0.11,2.98c0,0.34-0.34,0.69-0.11,1.15c-0.34,0-0.46-0.12-0.69-0.46
			c-0.12,0.46-0.12,0.92,0,1.49c-0.34-0.11-0.57-0.23-0.69-0.46c-0.11,0.11-0.11,0.57,0,0.8c-0.23-0.11-0.46-0.23-0.69-0.46
			c0.23,0.92,0,1.72-0.11,1.95c-0.69,0.23-2.06-0.11-2.75,0.92c-0.8-0.46-0.46-0.92,0.23-1.26c-0.46,0-0.8,0-1.15,0.57
			c-0.92-0.46-0.11-1.14,0.23-1.26c-0.46-0.12-0.92,0.12-0.92,0.57c-0.8-0.34-0.34-1.83,0.92-1.49c0.69,0.11,0.92,0.57,1.49,0.46
			c1.03-0.11,0.11-1.49,1.03-2.29c0.34-0.34,0.57-0.46,1.15-0.8c-0.23-0.12-0.69,0-0.92,0.11c0-0.46,0.23-0.69,0.46-0.8
			c-0.34,0-0.8,0.12-1.03,0.57c-0.23-1.03,0.57-1.03,0.46-1.49c-0.46,0.35-0.8,0.35-1.15,0.35c0.23-0.46,0.57-0.8,0.57-0.92
			c-0.34,0-0.69,0-1.03,0.11c0.34-0.8,0.69-0.69,1.26-1.15c-0.8,0.12-1.14,0.12-1.6,0c1.37-0.46,0.69-2.18,2.06-2.63
			c1.38-0.57,2.75-0.8,3.89-2.29c0.23,0.12,1.26,0.46,1.15,1.26c-0.11-0.11-0.46-0.46-0.92-0.46c0.46,0.57-0.57,1.72,0.23,2.75
			c-0.34,0.23-0.46,0.57-0.46,1.03c-0.57,0-1.03-0.34-1.26-0.46C60.62,111.46,60.85,111.8,61.42,112.03z M62.22,108.14
			c0.23,0.12,0.46,0.23,0.69,0.46c0,0.57-0.11,1.14-0.46,1.6C61.88,109.51,62.34,108.83,62.22,108.14z M67.49,95.2
			c1.15-0.69,2.63-0.8,3.67,0.11c0.46,0.34,0.69,0.92,0.69,1.6c0,1.6-1.49,3.09-1.6,4.24c0.46-0.69,0.92-0.69,1.14-1.26
			c0.23,0.92-0.34,1.49-0.8,1.95c0.34-0.23,0.57-0.11,0.92-0.46c0,0.8-1.03,1.37-1.03,1.72c0.23-0.11,0.69-0.23,0.8-0.57
			c0.11,0.92-0.69,1.26-0.46,2.18c0,0,0.34-0.57,0.69-0.46c-0.34,0.57-0.34,1.6-0.23,2.52c0.23,1.38,0.23,3.21-1.83,3.44
			c-0.92-0.11-1.95-0.57-2.41-1.38c0-0.11,0.23-1.26,0-1.49c-0.23,1.38-1.03,1.49-0.11,3.32c-0.57,0.23-0.92-0.23-1.03-0.34
			c-0.11,0.92,0.8,1.6,1.72,1.83c0.69,0.23,1.6,0.57,1.15,1.95c0.23,0,0.34,0.12,0.57,0c-0.11,0.35-0.46,0.57-0.69,0.69
			c0.12,0.34,0.46,0.46,0.92,0.46c-0.23,0.46-1.03,0.34-1.26,0.23c0.23,0.23,0.8,0.57,0.92,1.26c0,0-0.57-0.35-0.92-0.23
			c0.34,0.11,0.8,0.57,0.92,1.15c-0.12-0.12-0.46-0.23-0.57-0.23c0.12,0.34,0.23,1.03,0.12,1.83c-0.8,0.8-2.18,1.03-2.75,0.92
			c-0.11-0.34,0-0.92,0.34-1.03c-0.69-0.23-0.69,0.57-0.8,0.92c-0.69-0.34-0.57-1.03,0-1.37c-0.34-0.12-0.8,0.11-0.8,0.8
			c-0.69-0.34-0.46-1.03-0.11-1.38c0.46-0.34,1.03-0.23,1.49,0c0.34,0.34,0.8,0.92,1.14,0.46c-0.34-0.46-1.03-2.29-0.57-3.89
			c-0.34-0.23-0.57-0.46-0.69-0.92c-0.34,0.11-0.57,0.34-0.8,0.8c-0.57-0.57-0.69-1.37-0.69-1.37c-0.34,0.23-0.69,0.57-0.69,1.15
			c-0.23-0.34-0.34-0.69-0.34-1.38c-0.23,0.34-0.57,0.92-1.03,0.92c0.34-0.57-0.12-1.14-0.34-1.6c-0.23-0.8-0.11-1.26,0.57-1.72
			c0.23-0.23,0.46-0.57,0.46-1.37c0.11-1.6,0.11-1.72-1.26-2.86c-1.37-0.92-2.06-1.49-1.95-3.21c-0.34,0.23-0.8,0.8-0.92,1.15
			c-0.23-0.69-0.23-1.03-0.23-1.6c-0.46,0.34-0.57,0.8-0.69,1.37c-0.34-0.34-0.46-0.69-0.57-1.37c-0.23,0.57-0.34,0.8-0.23,1.72
			c-0.23-0.11-0.57-0.23-0.69-0.8c-0.23,0.46-0.34,0.69-0.69,0.8c0.23-0.57,0.11-1.03-0.23-1.6c-1.03,0.11-2.52-0.11-3.9-0.57
			c-0.46,0.69-1.49,0.23-1.72-0.34c0.34,0,0.69,0,0.92-0.11c0.34-0.23,0.12-0.57-0.23-0.57c-0.34,0-0.69,0.23-0.92,0.46
			c-0.57,0.23-1.15,0.12-1.49-0.34c-0.23-0.23-0.23-0.57-0.69-0.69c0.23-0.23,0.46-0.34,0.69-0.34c0.34-0.11,0.8,0.23,1.26,0.69
			c-0.11-0.8-1.15-1.26-1.72-1.03c0.23-1.03,1.26-0.69,1.72-0.11c0-0.69-0.57-0.92-1.26-0.8c0.34-1.03,1.26-0.8,1.83-0.11
			c0.92,1.37,2.06,1.72,3.78,1.6c1.95-0.11,3.44-1.03,5.61-0.8c0.57,0.23,0.69,0.57,0.69,1.26c0.46-0.11,0.8-0.57,0.92-0.92
			c0.11,0.11,0.34,0.46,0.57,0.92c0.69-0.92,0.8-1.15,0.92-1.72c0.23,0.23,0.46,0.46,0.69,0.92c0.57-0.46,0.69-0.8,0.8-1.49
			c0.8,0.69,0.69,1.26,0.57,2.06c-0.23,1.26,0.23,2.75,1.03,3.89c0.57,0.8,1.26,1.38,1.72,2.52c0.46,1.15,0.8,2.4,2.06,2.29
			c2.18-0.12,1.03-3.32,0.69-4.47c-0.34-0.69-0.8-1.72-0.92-2.52c-0.11-0.92,0.12-1.6,0.57-2.29c0.34-0.69,1.49-1.95,1.37-3.21
			c-0.11-2.06-2.86-1.72-2.29-0.23c0.11,0.34,0.34,0.57,0.69,0.57c-0.23,0.34-0.8,0.46-1.15,0.12c-0.11-0.12-0.23-0.46-0.34-0.8
			c-0.23,1.03,0.11,1.03,0.57,1.38c0.11,0.11,0.11,0.23,0.23,0.23c0.46,0.46,0.8,1.14,0.11,1.83c0-0.92-0.23-1.03-0.92-1.72
			c0.46,0.8,0.69,1.38,0.23,1.95c0.11-0.46-0.23-0.69-0.57-1.03c-0.34-0.46-0.57-0.92-0.69-1.37c-0.12-0.46,0-1.14,0.23-1.6
			c-0.46,0.34-0.57,1.26-0.57,1.72c0.12,0.46,0.46,0.92,0.8,1.6c0.34,0.57,0.34,1.6-0.57,1.83c0.57-1.37-0.46-2.06-0.8-3.09
			C65.77,97.15,66.46,95.77,67.49,95.2z M60.28,98.29c0.46,0,1.03,0.23,1.37,0.57c0.23-0.57,0.34-1.15,0.23-1.6
			c0,0,0.23,0.12,0.34,0.12c0.23,0.23,0.46,0.34,0.69,0.57c0.46-0.8,0.34-1.26,0.23-1.6c0.57,0.23,0.57,0.46,0.8,0.8
			c0.11-0.46,0.23-0.69,0.34-0.92c0.11-0.11,0.23-0.11,0.34-0.23c0.34,0.46,0.34,1.03,0.92,1.72c-0.46,0-0.8-0.23-1.26-0.57
			c0,0.11,0,0.11,0,0.11c0.23,0.57,0.92,0.69,0.69,1.6c-0.12-0.12-0.34-0.34-0.69-0.57c-0.11-0.11-0.34-0.23-0.57-0.23
			c0.23,0.57,0.12,1.15-0.23,1.49c-0.34-0.34-0.34-0.69-1.03-1.03c0,0.23-0.12,0.57-0.23,0.8c-0.12,0.34-0.34,0.69-0.34,0.69
			c-0.23-0.46-0.46-0.46-0.8-0.8c-0.11,0.46-0.23,0.69-0.46,0.92c-0.12-0.23-0.23-0.46-0.57-0.69
			C60.51,98.98,60.39,98.52,60.28,98.29z M66,100.58c0.23-0.57,0-1.26,0.23-1.72c0.11,0.34,0.23,0.46,0.46,0.92
			C66.69,100.01,66.46,100.35,66,100.58z M65.09,95.31c0.12-0.69,0-1.26-0.57-1.72c0,0.57,0.57,1.14,0,2.06
			c0-0.12-0.11-0.12-0.23-0.12c-0.23-0.23-0.34-0.46-0.46-0.8c-0.34,0.8,0.69,0.92,0.11,1.83c-0.34-0.57-0.57-0.69-1.26-0.92
			c0.23,0.57,0.34,1.15,0.11,1.72c-0.23-0.23-0.34-0.23-0.57-0.34c-0.23-0.11-0.46-0.23-0.8-0.23c0.11,0.46,0.23,0.92,0,1.49
			c-0.23-0.23-0.69-0.34-1.03-0.34c0.11-0.57,0.92-0.8,0.46-1.72c0.46,0.12,0.92,0,1.38,0c-0.12-0.57-0.23-0.92-0.12-1.37h0.12
			c0.34,0.23,0.57,0.46,1.03,0.34c-0.11-0.46,0.11-0.8,0.11-1.03c0.23,0.11,0.69,0.46,0.92,0.23c-0.34-0.23-0.69-0.57-1.03-0.92
			c-0.11,0.57-0.34,0.57-0.46,1.37c-0.23-0.11-0.11-0.11-0.57-0.46l-0.12-0.12c0,0-0.57,0.69-0.46,1.6
			c-0.46,0.11-1.49-0.12-1.49-0.12c0.57,0.69,0,1.26-0.12,2.29v0.12c-0.23-0.46-0.23-0.8-0.23-1.14c0.12-0.46,0-1.15,0-1.15
			c-0.11,0.23-0.46,0.57-0.8,0.8c-0.23,0.11-0.46,0.23-0.69,0.34c0-0.69,0-1.03,0.23-1.49c0.11-0.11,0.23-0.23,0.46-0.34
			c0.12,0,0.34-0.11,0.57-0.11c-0.46,0.34-0.46,0.69-0.34,1.03c0,0,0.34-0.57,0.8-0.8l0.12-0.11c0.23,0.11,0.46,0.11,0.69,0.23
			c-0.23-0.69-0.11-1.15,0.12-1.49c0.23,0.11,0.34,0.46,0.34,0.92c0.23-0.8,0.34-1.15,0.69-1.6c0,0.11,0.11,0.11,0.23,0.23
			c0.11,0.11,0.11,0.34,0.23,0.46c0,0,0.46-0.69,0.46-1.37c0.23,0.34,0.46,0.57,0.92,0.8c0.23-0.34,0.34-0.57,0.34-0.8
			c0,0,0.11,0,0.11,0.12c0.57,0.23,0.92,0.57,1.26,1.26c0.34,0.8,0.46,1.15,0.92,1.6C66,95.66,65.32,95.54,65.09,95.31z M64.29,90.5
			c0.34,0.23,0.69,0.57,1.15,0.57c-0.46,0.34-0.69,0.34-1.03,0.23h-0.11c-0.23-0.11-0.57-0.34-1.03-0.46
			c0.34-0.34,0.69-0.46,0.92-0.34C64.29,90.5,64.29,90.5,64.29,90.5z M57.3,90.04c0.34-0.11,0.69-0.23,1.03-0.23
			c0.11,0,0.34-0.11,0.57-0.11h0.11c0.34-0.11,0.69-0.23,1.03-0.34c0.46-0.12,0.92-0.12,1.26,0.11c0.34-0.11,0.57-0.23,0.92-0.34
			c0.23,0,0.57,0,0.8,0.23c0.46,0.34,0.46,0.92,0.11,1.37c-0.57,0.23-0.69,0.92-0.92,1.15c0,0.11,0,0.11-0.12,0.11h0.12
			c0.57-0.23,0.57-0.69,0.92-0.8c0.34,0.34,0.23,0.69,0.23,0.69c0.23-0.12,0.23-0.34,0.34-0.57c0.12,0.11,0.34,0.23,0.57,0.46
			c0.46,0.23,1.03,0.46,1.49,0.46c-0.46,0.57-1.03,0.34-1.49,0.11c-0.23-0.11-0.34-0.34-0.34-0.34c0,0.34-0.11,0.57-0.23,0.92
			c-0.57-0.23-0.8-0.8-0.8-0.92c-0.34,0.57-0.11,0.69-0.34,1.26c-0.11-0.11-0.23-0.23-0.34-0.34c-0.12-0.11-0.23-0.23-0.34-0.34
			c-0.11,0.23-0.34,0.69-0.46,1.26c-0.12-0.11-0.34-0.34-0.46-0.34c-0.23,0.23-0.69,0.8-0.57,1.49c-0.12-0.11-0.23-0.11-0.35-0.23
			c-0.11,0-0.34-0.11-0.46-0.11c-0.34,0.11-0.46,0.11-0.57,0.23c-0.11,0.11-0.34,0.23-0.57,0.23h-0.11
			c-0.8-0.11-0.92-0.69-0.69-1.37c0.11,0.11,0.34,0.23,0.69,0.34c0.23,0,0.46,0.11,0.69,0.11c0.34,0,0.69,0,0.8-0.23
			c0.12-0.11,0.23-0.23,0.23-0.34c0.12-0.23,0.12-0.57,0-0.8c-0.23-0.34-0.57-0.69-1.03-0.8c-0.23,0-0.46,0-0.69,0
			c-0.23,0-0.46,0-0.57,0.12c-0.23-0.46-0.23-0.46-0.46-0.8C56.96,90.73,56.61,90.62,57.3,90.04z M58.1,92.79c0,0,0.11,0,0.23,0
			c0.23,0,0.46,0,0.69,0.11c0.23,0.11,0.46,0.34,0.57,0.69c-0.23-0.11-0.34-0.23-0.57-0.23c-0.11,0-0.23,0-0.34-0.11
			c-0.11,0-0.23,0-0.34,0c-0.69,0.11-1.14,0.57-1.72,0.8c-0.92,0.34-1.83,0-1.6-1.14c0.35,0.46,1.03,0.57,1.49,0.46
			C56.84,93.25,57.53,92.91,58.1,92.79z M54.44,81.68c0.11-0.46,0.46-0.8,0.57-0.92c0.23,0.23,0.57,0.69,0.69,1.03
			c0,0.46-0.11,0.8-0.57,0.92c0.11-0.23,0.23-0.69-0.12-1.15c-0.23,0.46-0.23,0.8-0.11,1.15C54.44,82.6,54.32,82.14,54.44,81.68z
			 M55.35,83.06v1.72h-0.69v-1.72H55.35z M54.55,85.01h1.03c-0.23,1.6,0.46,2.06,0.34,3.89h-1.72
			C54.09,87.07,54.78,86.61,54.55,85.01z M56.27,89.24c0,0.23-0.23,0.46-0.57,0.46h-1.38c-0.23,0-0.46-0.23-0.46-0.46H56.27z
			 M49.74,80.08c0.11-0.46,0.46-0.8,0.69-0.92c0.23,0.23,0.57,0.69,0.57,1.03c0.12,0.46,0,0.8-0.57,0.92
			c0.23-0.23,0.23-0.69-0.11-1.15c-0.23,0.46-0.23,0.8-0.11,1.15C49.63,81,49.63,80.54,49.74,80.08z M50.77,81.46v2.64h-0.8v-2.64
			H50.77z M49.74,84.32h1.14c-0.23,1.6,0.57,2.75,0.34,4.58h-1.72C49.28,87.07,50.08,85.92,49.74,84.32z M51.69,89.24
			c0,0.23-0.34,0.46-0.57,0.46h-1.49c-0.34,0-0.57-0.23-0.57-0.46H51.69z M45.73,80.77c0.23,0.23,0.46,0.69,0.57,1.03
			c0.11,0.46,0,0.8-0.57,0.92c0.23-0.23,0.23-0.69,0-1.15c-0.34,0.46-0.34,0.8-0.11,1.15c-0.57-0.11-0.57-0.57-0.57-1.03
			C45.16,81.23,45.5,80.88,45.73,80.77z M46.08,83.06v1.72h-0.8v-1.72H46.08z M45.16,85.01h1.03c-0.23,1.6,0.46,2.06,0.34,3.89
			h-1.72C44.7,87.07,45.39,86.61,45.16,85.01z M46.88,89.24c0,0.23-0.23,0.46-0.46,0.46h-1.37c-0.34,0-0.57-0.23-0.57-0.46H46.88z"
			/>
		<path class="st1" d="M43.67,129.1h2.06l4.01-0.11c-1.37-0.46-2.75-1.15-4.01-1.83c-3.44-1.83-6.18-4.24-8.59-7.1l-0.34-0.46
			c-3.32-4.01-5.61-8.82-7.44-14.09c-0.69,1.15-1.26,2.29-1.83,3.44c-1.03-0.57-2.06-1.26-3.09-1.95c0.8,2.63,1.72,5.15,2.86,7.56
			c2.4,5.04,5.73,9.39,9.85,13.06c1.6,1.37,3.44,2.75,5.27,3.89L43.67,129.1z M28.09,113.98l2.18-1.15l0.46-0.23l0.34,0.8
			c0.34,0.57,0.34,1.03-0.23,1.38c-0.23,0.11-0.46,0.11-0.57,0.11c-0.34,0-0.57-0.23-0.8-0.57l-0.11-0.23l-0.92,0.46L28.09,113.98z
			 M30.27,117.88l0.46-0.46l-0.46-0.69l-0.57,0.23l-0.34-0.57l0.92-0.23l1.15-0.34l0.69-0.12l0.23-0.12l0.46,0.57l-0.69,0.69
			l-0.69,0.8l-0.69,0.8L30.27,117.88z M31.76,120.05l-0.34-0.57l0.69-0.46l1.26-0.92l-0.34-0.46l0.46-0.34l0.23,0.34l0.92,1.14
			l-0.46,0.34l-0.34-0.46h-0.11l-1.6,1.14L31.76,120.05z M34.17,123.03l-0.46-0.57l0.69-1.03l-0.23-0.23l-0.46,0.34L33.25,122
			l-0.34-0.57l0.8-0.69l1.26-1.03l0.23-0.12l0.34,0.46l0.23,0.23c0.34,0.46,0.46,0.92-0.11,1.37c0,0,0,0-0.12,0.12
			c-0.23,0.11-0.34,0.11-0.57,0.11l-0.12-0.11L34.17,123.03z M35.42,124.4l-0.46-0.46l0.57-0.46l1.6-1.6l0.46,0.46v0.11l-2.06,1.95
			H35.42z M37.94,126.92l-0.34-0.34l-0.11-0.11l0.11-0.34l0.23-0.23l-0.23-0.23l-0.46-0.34l-0.46,0.34l-0.46-0.46l1.38-0.8
			l0.57-0.34l0.69-0.34l0.23,0.11l0.34,0.34l-0.34,0.46l-0.92,1.95L37.94,126.92z M41.84,126.81l-0.92-0.69l-0.46,0.57l0.69,0.57
			l-0.34,0.34l-0.69-0.57l-0.46,0.57l0.92,0.69l-0.34,0.46l-1.15-0.92l-0.23-0.23l0.23-0.34l1.6-1.95l1.37,1.15L41.84,126.81z"/>
		<path class="st1" d="M45.27,132.3l-0.23,0.34l-0.57,1.49c0.23,0.12,0.46,0,0.57,0c0.23-0.11,0.34-0.34,0.46-0.69
			C45.85,132.88,45.85,132.53,45.27,132.3z"/>
		<path class="st1" d="M35.31,121.08c0.23-0.12,0.23-0.34,0-0.57l-0.11-0.12l-0.23,0.12l-0.46,0.34l0.23,0.23
			c0.11,0.11,0.11,0.23,0.23,0.23C35.08,121.31,35.2,121.2,35.31,121.08z"/>
		<path class="st1" d="M53.29,135.05c-0.11,0-0.11,0-0.23,0c-0.23,0.11-0.34,0.69-0.34,0.91c-0.12,0.23-0.23,0.92,0.11,1.03
			c0.12,0,0.23,0,0.23,0c0.34-0.23,0.46-0.69,0.46-0.92C53.63,135.86,53.75,135.17,53.29,135.05z"/>
		<polygon class="st1" points="37.6,124.98 38.06,125.43 38.17,125.21 38.63,124.29 38.17,124.63 		"/>
		<path class="st1" d="M45.16,129.79c0.23,0.11,0.34,0.11,0.57,0.23c1.26,0.57,2.64,1.14,3.89,1.6l0.46-1.83h-4.35H45.16z"/>
		<path class="st1" d="M60.62,91.53c0.23,0,0.46-0.34,0.23-0.46c-0.34-0.11-0.57-0.34-0.8-0.57c-0.23-0.23-0.46-0.46-0.69-0.69
			c-0.11,0.23-0.11,0.46,0.11,0.57c-0.11,0.11-0.11,0.46-0.11,0.69c-0.23,0.12-0.34,0.23-0.34,0.46c0.23-0.12,0.69-0.12,1.03-0.12
			C60.28,91.42,60.51,91.42,60.62,91.53z M59.82,90.73c0,0.11,0.12,0.11,0.23,0.23c0.12,0.11,0.23,0.11,0.35,0.23
			c-0.12,0-0.23,0-0.35,0c-0.11-0.12-0.34-0.12-0.34-0.12C59.71,90.96,59.71,90.85,59.82,90.73z"/>
		<path class="st1" d="M86.73,71.61c0.57,1.03,0.8,2.4,0.69,3.78c0,1.15-0.34,2.18-0.69,2.98c-0.57,0.92-1.15,1.6-1.38,1.83
			c0.46,0,0.92-0.34,1.38-0.8c0.69-0.92,1.26-2.41,1.37-4.12c0-1.6-0.46-3.44-1.37-4.47c-0.35-0.34-0.8-0.57-1.26-0.69
			C86.05,70.57,86.39,71.03,86.73,71.61z"/>
		<path class="st1" d="M61.54,64.62h-0.46h-0.46h-1.15h-1.26v5.73c0,0.34,0.11,0.69,0.34,0.8c0.23,0.23,0.57,0.34,0.92,0.57
			c0.34,0.23,0.8,0.46,1.15,0.69c0.23,0.11,0.34,0.23,0.46,0.23c0.12,0,0.34-0.11,0.46-0.23c0.34-0.11,0.8-0.46,1.26-0.69
			c0.34-0.23,0.57-0.34,0.8-0.57c0.23-0.11,0.34-0.34,0.34-0.8v-5.73H62.8H61.54z M63.37,65.31v5.15H62.8h-0.69
			c-0.11,0.34-0.23,0.69-0.57,1.03c-0.11,0.11-0.23,0.23-0.46,0.23c-0.11,0-0.34-0.11-0.46-0.23c-0.23-0.34-0.46-0.69-0.57-1.03
			h-0.57h-0.69v-5.15c0.23,0,0.46,0.11,0.69,0.34c0.46,0.46,0.57,1.38,0.57,1.95v0.8c-0.34,0.11-0.34,0.23-0.34,0.46
			c0,0.34,0.23,0.34,0.46,0.46c0.11-0.23,0.34-0.46,0.46-0.8c0.23-0.34,0.34-0.69,0.34-1.03c0-0.46-0.12-1.03-0.12-1.49
			c0-0.23,0-0.8,0.23-1.15c0.34,0.34,0.34,0.92,0.34,1.15c0,0.46-0.12,1.03-0.12,1.49c0,0.34,0.12,0.69,0.23,1.03
			c0.11,0.34,0.34,0.57,0.46,0.8c0.23-0.11,0.57-0.11,0.57-0.46c0-0.23-0.11-0.34-0.46-0.46v-0.8c0-0.57,0.23-1.49,0.69-1.95
			C62.91,65.42,63.14,65.31,63.37,65.31z"/>
		<path class="st1" d="M59.36,69.09h-0.23v1.03h0.34h0.57c0-0.11,0-0.34,0-0.46c-0.23-0.11-0.46-0.23-0.57-0.34
			C59.36,69.2,59.36,69.09,59.36,69.09z"/>
		<path class="st1" d="M86.73,84.2c-0.35,0.23-0.57,0.46-0.92,0.69c-0.69,0.46-1.6,0.92-1.72,1.83c0.57-0.57,1.37-1.03,1.95-1.49
			c0.23-0.11,0.46-0.23,0.69-0.34c1.14-0.92,2.06-1.83,2.52-3.32c0.34-1.26,0.57-2.52,0.34-3.78c-0.12-0.8-0.23-1.83-0.69-2.06
			c0.11,0.69,0.11,1.38,0.23,2.06c0,1.14,0,2.29-0.34,3.32C88.34,82.49,87.65,83.4,86.73,84.2z"/>
		<path class="st1" d="M60.51,70.46c0,0.23,0,0.34,0.12,0.46c0.11,0.11,0.11,0.11,0.23,0.23l0.12-0.11v-0.57h-0.34H60.51z"/>
		<path class="st1" d="M59.48,68.51c0-0.11,0.11-0.23,0.23-0.34v-0.46c0-0.46-0.12-1.03-0.23-1.38c-0.11-0.23-0.23-0.46-0.34-0.46
			v2.86h0.23C59.36,68.63,59.36,68.51,59.48,68.51z"/>
		<path class="st1" d="M61.31,69.89v0.23h0.23h0.23c0-0.11,0-0.34,0-0.46c-0.11,0-0.11,0.11-0.23,0.11
			C61.42,69.77,61.31,69.89,61.31,69.89z"/>
		<path class="st1" d="M62.8,69.31c-0.23,0.12-0.46,0.23-0.69,0.34c0,0.11,0.12,0.34,0.12,0.46h0.57h0.23v-1.03h-0.11
			C62.8,69.09,62.8,69.2,62.8,69.31z"/>
		<path class="st1" d="M62.45,67.71v0.46c0.11,0.11,0.23,0.11,0.34,0.34c0,0,0,0.11,0.11,0.23h0.11v-2.86
			c-0.11,0-0.11,0.23-0.23,0.46C62.57,66.68,62.45,67.25,62.45,67.71z"/>
		<path class="st1" d="M61.65,69.43c0-0.12-0.11-0.12-0.11-0.23c-0.11-0.23-0.34-0.46-0.34-0.69h-0.12
			c-0.11,0.23-0.34,0.46-0.46,0.69c0,0.11,0,0.11,0,0.23c0.23,0,0.34,0.11,0.46,0.23c0.12-0.11,0.34-0.23,0.46-0.23H61.65z"/>
		<path class="st1" d="M61.31,70.46v0.57l0.12,0.11c0-0.11,0.11-0.11,0.11-0.23c0.11-0.11,0.11-0.23,0.23-0.46h-0.23H61.31z"/>
		<path class="st1" d="M60.51,69.66c-0.11,0.11-0.11,0.34-0.11,0.46h0.23h0.34v-0.23c-0.12,0-0.23-0.11-0.34-0.11L60.51,69.66z"/>
		<path class="st1" d="M62.22,90.96c0.23-0.46,0.8-0.69,0.57-1.26c-0.11,0-0.34,0-0.57,0c-0.23,0-0.46,0-0.69,0
			C61.42,90.16,61.88,90.73,62.22,90.96z M62.22,90.04c0.11,0,0.23,0,0.34,0c0,0.23-0.23,0.34-0.34,0.46
			c-0.23-0.11-0.34-0.34-0.34-0.46C62,90.04,62.11,90.04,62.22,90.04z"/>
		<path class="st1" d="M77,129.79h-2.52h-2.52l0.57,1.83c0.69-0.23,1.26-0.57,1.95-0.8C75.28,130.47,76.2,130.13,77,129.79z"/>
		<path class="st1" d="M74.48,131.62c-9.74,3.55-19.01,3.32-28.75-0.8c-0.57-0.23-1.15-0.46-1.72-0.8c-0.8,1.49-1.49,2.86-2.29,4.35
			c1.26,0.8,2.63,1.49,4.01,2.06c4.81,2.17,10.08,3.09,15.35,3.09c4.58,0,9.16-0.69,13.4-2.29c2.06-0.8,4.01-1.72,5.95-2.86
			c-0.8-1.49-1.6-2.86-2.29-4.35C76.88,130.59,75.74,131.16,74.48,131.62z M46.19,133.79c-0.23,0.46-0.57,0.92-1.15,0.92
			c-0.23,0-0.46,0-0.69-0.12l-0.69-0.34l1.26-2.64h0.11l0.46,0.23C46.42,132.3,46.53,132.88,46.19,133.79z M48.48,134.37l-0.23,0.46
			l-0.8-0.23l-0.23,0.69l1.03,0.34l-0.11,0.46l-1.72-0.57l1.03-2.75l1.72,0.57l-0.23,0.46l-1.03-0.34l-0.23,0.57L48.48,134.37z
			 M51.46,135.17l-0.57-0.11c0.11-0.34,0-0.69-0.23-0.69c-0.46-0.11-0.69,0.57-0.69,0.8c-0.12,0.34-0.34,0.92,0.12,1.03
			c0.23,0.12,0.46,0,0.57-0.46l0.57,0.23c-0.23,0.57-0.69,0.92-1.38,0.8c-0.8-0.23-0.8-1.14-0.57-1.83
			c0.23-0.69,0.69-1.37,1.49-1.14C51.34,134.02,51.57,134.48,51.46,135.17z M54.21,136.2c-0.23,0.92-0.57,1.26-1.15,1.38
			c-0.11,0-0.23,0-0.34-0.12c-0.8-0.11-0.8-1.03-0.69-1.72c0.23-0.8,0.57-1.26,1.03-1.26c0.12,0,0.23,0,0.34,0
			C54.21,134.71,54.32,135.51,54.21,136.2z M56.5,136.77l0.34,1.38l-0.69-0.11l-0.12-0.57l-0.11-0.57l-0.23-0.12l-0.23,1.15h-0.69
			l0.46-2.98l0.8,0.12h0.12c0.57,0.11,1.03,0.34,0.92,1.03C57.07,136.43,56.84,136.66,56.5,136.77z M58.44,138.38l-0.69-0.12
			l0.34-2.98l0.57,0.12L58.44,138.38z M62.57,137.69c0.11,0.23,0.23,0.23,0.34,0.23c0.23,0,0.34-0.23,0.34-0.57h0.57
			c0,0.23,0,0.57-0.23,0.8c-0.12,0.11-0.34,0.23-0.69,0.34c-0.34,0-0.69-0.12-0.8-0.34c-0.23-0.34-0.34-0.69-0.46-1.15
			c0-0.46,0.11-0.92,0.23-1.14c0.23-0.23,0.46-0.46,0.8-0.46c0.69,0,1.03,0.34,1.15,1.03l-0.57,0.11c-0.11-0.46-0.23-0.69-0.46-0.57
			c-0.23,0-0.23,0-0.34,0.23c-0.12,0.12-0.12,0.34-0.12,0.8C62.45,137.35,62.45,137.57,62.57,137.69z M64.86,138.26l-0.34-2.98
			l0.69-0.11l0.34,2.98L64.86,138.26z M67.72,137.8l-0.69,0.11l-1.26-2.86l0.69-0.12l0.8,2.18l0.11-2.29l0.57-0.12L67.72,137.8z
			 M69.21,137.46l-0.69-2.86l0.69-0.23l0.69,2.98L69.21,137.46z M71.96,136.77l-0.34,0.12L70.93,137l-0.8-2.86l0.92-0.23
			c0.23-0.11,0.34-0.11,0.57-0.11c0.23,0,0.46,0.23,0.57,0.57c0.11,0.34,0,0.57-0.23,0.69c0.34,0.11,0.57,0.23,0.69,0.57
			C72.88,136.31,72.42,136.54,71.96,136.77z M74.82,135.86c-0.34,0.11-0.8,0.11-1.03-0.23c-0.11-0.12-0.23-0.34-0.34-0.69l-0.69-1.6
			l0.69-0.23l0.57,1.6c0.11,0.23,0.11,0.34,0.23,0.46c0.11,0.11,0.23,0.23,0.46,0.11c0.11-0.11,0.23-0.23,0.23-0.46
			c0,0-0.11-0.23-0.11-0.46l-0.69-1.6l0.57-0.11l0.57,1.49c0.11,0.34,0.23,0.57,0.23,0.8C75.51,135.4,75.17,135.63,74.82,135.86z
			 M77.69,134.6c-0.46,0.34-1.03,0.23-1.37-0.23l0.34-0.46c0.23,0.34,0.46,0.34,0.69,0.23c0.12,0,0.34-0.23,0.23-0.46
			c-0.11-0.11-0.34-0.11-0.57-0.11c-0.23,0-0.46,0-0.69,0c-0.46-0.12-0.69-0.69-0.57-1.15c0.12-0.23,0.23-0.46,0.57-0.57
			c0.46-0.23,0.8-0.11,1.15,0.23L77,132.53c-0.12-0.23-0.34-0.23-0.46-0.23c-0.23,0.12-0.23,0.23-0.23,0.46
			c0.11,0.23,0.46,0.12,0.69,0.12c0.46,0,0.91,0,1.14,0.46C78.26,133.79,78.14,134.25,77.69,134.6z"/>
		<path class="st1" d="M71.62,135.51c-0.11,0-0.11,0-0.11,0l-0.34,0.12l0.23,0.8l0.23-0.12h0.11c0.23-0.12,0.34-0.34,0.23-0.57
			C71.96,135.51,71.84,135.51,71.62,135.51z"/>
		<path class="st1" d="M71.62,134.83c0-0.12,0-0.12,0-0.12v-0.12c-0.11-0.23-0.34-0.23-0.57-0.23l-0.23,0.11l0.23,0.69l0.23-0.11
			C71.39,135.05,71.62,134.94,71.62,134.83z"/>
		<path class="st1" d="M82.5,126.12c-0.23-0.11-0.34-0.23-0.46-0.34c-0.23-0.12-0.46-0.12-0.57,0.11h-0.11v0.12l1.15,1.37l0.11-0.11
			l0.11-0.12c0.11-0.11,0.11-0.23,0-0.46C82.73,126.46,82.61,126.35,82.5,126.12z"/>
		<polygon class="st1" points="87.65,119.71 88.22,120.39 88.45,120.62 88.8,120.28 88.22,119.94 		"/>
		<path class="st1" d="M92,115.01c-0.11-0.12-0.11-0.12-0.23-0.23c-0.23-0.12-0.46-0.23-0.57-0.23c-0.23,0-0.34,0-0.46,0.12
			c0,0.12-0.11,0.23-0.11,0.34l0.11,0.11l1.26,0.69l0.23,0.11c0.12-0.34,0.23-0.57,0-0.8C92.12,115.13,92.12,115.01,92,115.01z"/>
		<path class="st1" d="M94.64,108.94c-0.57-1.15-1.15-2.29-1.95-3.44c-1.72,5.27-4.12,10.08-7.33,14.09
			c-2.86,3.55-6.41,6.53-10.88,8.59c-0.69,0.23-1.38,0.57-2.06,0.8l2.06,0.11h3.89l1.26,2.4c6.64-4.01,11.91-9.96,15.23-16.95
			c1.15-2.41,2.06-4.92,2.75-7.56C96.7,107.68,95.67,108.37,94.64,108.94z M81.35,128.75l-0.34,0.34l-0.92,0.69l-1.72-2.29
			l1.38-1.03l0.34,0.34l-0.92,0.69l0.34,0.57l0.69-0.57l0.34,0.46l-0.69,0.46l0.46,0.57l0.69-0.57l0.11-0.11l0.23,0.34l0.11,0.12
			H81.35z M83.07,127.61c-0.11,0-0.11,0-0.11,0.11l-0.23,0.12l-0.46,0.34l-0.92-1.15l-0.34-0.57l-0.46-0.57l0.46-0.34l0.11-0.12
			c0.11,0,0.11-0.11,0.23-0.11c0.34-0.23,0.69-0.23,0.92-0.11c0.23,0.11,0.34,0.23,0.46,0.34c0.11,0,0.23,0.11,0.23,0.23l0.11,0.11
			c0.11,0.12,0.23,0.34,0.23,0.46C83.53,126.92,83.41,127.27,83.07,127.61z M85.47,125.55l-0.11,0.11c-0.57,0.57-1.03,0.23-1.6-0.23
			l-0.69-0.8l-0.34-0.34v-0.11l0.34-0.34l0.11-0.11l1.03,1.26c0.23,0.23,0.57,0.57,0.92,0.23c0.23-0.23-0.12-0.57-0.34-0.8
			l-1.03-1.15l0.34-0.34l1.14,1.15c0,0.11,0.11,0.23,0.23,0.34C85.7,124.75,85.93,125.09,85.47,125.55z M87.65,123.37
			c-0.11,0.11-0.11,0.11-0.23,0.23c-0.11,0.12-0.34,0.12-0.57,0.12c-0.34,0-0.69-0.23-1.03-0.46c-0.12-0.23-0.23-0.34-0.34-0.46
			c-0.11-0.12-0.23-0.34-0.23-0.57c-0.11-0.23,0-0.57,0.23-0.8c0.46-0.46,0.92-0.46,1.49,0l-0.34,0.46
			c-0.34-0.23-0.57-0.34-0.8-0.11c0,0.11-0.12,0.23,0,0.34c0,0.11,0.23,0.34,0.46,0.69c0.34,0.23,0.46,0.34,0.69,0.34
			c0.11,0.11,0.23,0,0.34-0.11c0.11-0.12,0.11-0.34-0.23-0.69l0.34-0.34h0.12c0.23,0.23,0.34,0.46,0.34,0.69
			C87.88,122.91,87.88,123.14,87.65,123.37z M89.71,120.74l-0.46-0.34l-0.57,0.69l0.46,0.46L88.68,122l-0.46-0.8l-0.8-1.03
			l-0.46-0.57l0.46-0.57v0.12l0.8,0.23l1.03,0.46l0.92,0.34L89.71,120.74z M91.43,118.22l-0.69-0.12l-1.49-0.23l1.49,1.03l0.23,0.11
			l-0.23,0.12l-0.11,0.23l-1.37-0.92l-1.03-0.69l0.46-0.57l0.57,0.11l1.26,0.23l-1.26-0.8l-0.23-0.12l0.23-0.23l0.11-0.23l1.37,1.03
			l1.03,0.57L91.43,118.22z M92.69,116.04l-0.34,0.69L92,116.5l-1.26-0.69l-0.92-0.57l0.34-0.57c0.11-0.23,0.34-0.46,0.57-0.57
			c0.23-0.11,0.34-0.11,0.46-0.11c0.23,0,0.57,0.11,0.8,0.23h0.11c0.23,0.12,0.34,0.23,0.46,0.46c0.23,0.12,0.23,0.34,0.34,0.46
			C93.03,115.47,92.92,115.7,92.69,116.04z M93.72,114.09l-0.69-0.23L92,113.29l-0.92-0.46l0.34-0.57l0.57,0.34l1.03,0.46l0.92,0.46
			L93.72,114.09z M93.72,112.49l0.11-0.57c0.23,0,0.46-0.12,0.57-0.34c0.11-0.23,0-0.46-0.34-0.46c-0.12,0.11-0.23,0.11-0.34,0.23
			c-0.23,0.34-0.46,0.57-0.69,0.57c-0.12,0-0.23,0-0.46-0.12c-0.46-0.11-0.57-0.69-0.46-1.14c0.23-0.46,0.46-0.57,0.92-0.57
			c0,0,0,0,0.11,0v0.57c-0.11,0-0.11,0-0.11,0c-0.23,0-0.34,0-0.46,0.23c0,0.23,0.11,0.46,0.34,0.34c0.12,0,0.12,0,0.12,0
			c0-0.11,0.11-0.11,0.23-0.34c0.34-0.23,0.69-0.57,1.14-0.34c0.57,0.23,0.69,0.8,0.46,1.26C94.64,112.38,94.29,112.49,93.72,112.49
			z"/>
		<path class="st2" d="M40.35,97.49c0.34,12.94,8.82,23.71,20.39,27.49l0.23,0.11h0.11l0.23-0.11c11.68-3.78,20.16-14.55,20.5-27.49
			V77.22H61.08H40.35V97.49z M41.27,78.25h19.81h19.7v18.67v0.34c-0.11,12.48-8.36,23.02-19.7,26.8h-0.11
			c-11.22-3.78-19.47-14.32-19.58-26.8v-0.34h-0.11V78.25z"/>
		<path class="st2" d="M63.37,76.3c-0.23,0-0.46-0.46-0.46-0.92c0-0.46,0.11-0.8,0.34-1.03c0.23-0.34,0.46-0.46,0.92-0.57
			c0.11-0.11,0.11-0.11,0-0.23c-0.46,0.11-0.92,0.34-1.26,0.57c-0.34,0.34-0.57,0.8-0.57,1.26c0,0.69,0.34,1.15,1.03,1.15
			c0.57,0,0.92-0.34,0.92-0.92c0-0.46-0.23-0.8-0.69-0.8c-0.23,0-0.34,0.11-0.46,0.23c0.11,0,0.11,0,0.11,0
			c0.34,0,0.46,0.57,0.46,0.8C63.71,76.07,63.71,76.3,63.37,76.3z"/>
		<path class="st2" d="M58.9,76.3c-0.34,0-0.46-0.46-0.46-0.92c0-0.46,0.11-0.8,0.34-1.03c0.23-0.34,0.46-0.46,0.92-0.57
			c0-0.11,0-0.11,0-0.23c-0.46,0.11-1.03,0.34-1.38,0.57c-0.34,0.34-0.46,0.8-0.46,1.26c0,0.69,0.34,1.15,0.92,1.15
			c0.57,0,1.03-0.34,1.03-0.92c0-0.46-0.34-0.8-0.8-0.8c-0.11,0-0.34,0.11-0.46,0.23c0,0,0,0,0.11,0c0,0,0,0,0.11,0
			c0.34,0,0.46,0.57,0.46,0.8C59.25,76.07,59.13,76.3,58.9,76.3z"/>
		<path class="st2" d="M54.9,75.96v-1.6c0-0.23,0-0.46,0-0.57h-0.11c0,0-0.11,0.11-0.34,0.11c-0.12,0.11-0.34,0.11-0.57,0.11
			c0,0,0,0.12,0.11,0.12l0.11,0.11c0.23,0,0.23,0,0.23,0.34v1.37c0,0.34,0,0.34-0.23,0.34h-0.23c0,0,0,0.11,0.11,0.11
			c0.11,0,0.34,0,0.57,0c0.34,0,0.57,0,0.69,0V76.3h-0.11C54.9,76.3,54.9,76.3,54.9,75.96z"/>
		<path class="st2" d="M67.03,76.3h-0.11c-0.12,0-0.12,0.11,0,0.11c0.11,0,0.34,0,0.69,0c0.23,0,0.46,0,0.57,0
			c0.11,0,0.11-0.11,0-0.11h-0.12c-0.23,0-0.23,0-0.23-0.34v-1.6c0-0.23,0-0.46,0-0.57c0,0,0,0-0.11,0c0,0-0.11,0.11-0.34,0.11
			c-0.11,0.11-0.34,0.11-0.46,0.11c-0.12,0-0.12,0.12,0,0.12l0.11,0.11c0.23,0,0.23,0,0.23,0.34v1.37
			C67.26,76.3,67.26,76.3,67.03,76.3z"/>
		<path class="st2" d="M62.11,67.6v0.8c0.34,0.11,0.46,0.23,0.46,0.46c0,0.34-0.34,0.34-0.57,0.46c-0.11-0.23-0.34-0.46-0.46-0.8
			c-0.11-0.34-0.23-0.69-0.23-1.03c0-0.46,0.12-1.03,0.12-1.49c0-0.23,0-0.8-0.34-1.15c-0.23,0.34-0.23,0.92-0.23,1.15
			c0,0.46,0.12,1.03,0.12,1.49c0,0.34-0.12,0.69-0.34,1.03c-0.12,0.34-0.34,0.57-0.46,0.8c-0.23-0.11-0.46-0.11-0.46-0.46
			c0-0.23,0-0.34,0.34-0.46v-0.8c0-0.57-0.11-1.49-0.57-1.95c-0.23-0.23-0.46-0.34-0.69-0.34v5.15h0.69h0.57
			c0.12,0.34,0.35,0.69,0.57,1.03c0.11,0.11,0.34,0.23,0.46,0.23c0.23,0,0.34-0.11,0.46-0.23c0.34-0.34,0.46-0.69,0.57-1.03h0.69
			h0.57v-5.15c-0.23,0-0.46,0.11-0.57,0.34C62.34,66.11,62.11,67.02,62.11,67.6z M59.13,65.88c0.11,0,0.23,0.23,0.34,0.46
			c0.11,0.34,0.23,0.92,0.23,1.38v0.46c-0.12,0.11-0.23,0.23-0.23,0.34c-0.11,0-0.11,0.11-0.11,0.23h-0.23V65.88z M60.05,70.12
			h-0.57h-0.34v-1.03h0.23c0,0,0,0.12,0.11,0.23c0.11,0.12,0.34,0.23,0.57,0.34C60.05,69.77,60.05,70,60.05,70.12z M60.96,71.03
			l-0.12,0.11c-0.11-0.11-0.11-0.11-0.23-0.23c-0.12-0.11-0.12-0.23-0.12-0.46h0.12h0.34V71.03z M60.96,70.12h-0.34h-0.23
			c0-0.11,0-0.34,0.11-0.46l0.12,0.11c0.11,0,0.23,0.11,0.34,0.11V70.12z M60.62,69.43c0-0.12,0-0.12,0-0.23
			c0.11-0.23,0.34-0.46,0.46-0.69h0.12c0,0.23,0.23,0.46,0.34,0.69c0,0.11,0.11,0.11,0.11,0.23h-0.11c-0.11,0-0.34,0.11-0.46,0.23
			C60.96,69.54,60.85,69.43,60.62,69.43z M61.54,70.92c0,0.11-0.11,0.11-0.11,0.23l-0.12-0.11v-0.57h0.23h0.23
			C61.65,70.69,61.65,70.8,61.54,70.92z M61.77,70.12h-0.23h-0.23v-0.23c0,0,0.12-0.11,0.23-0.11c0.11,0,0.11-0.11,0.23-0.11
			C61.77,69.77,61.77,70,61.77,70.12z M63.03,70.12H62.8h-0.57c0-0.11-0.12-0.34-0.12-0.46c0.23-0.11,0.46-0.23,0.69-0.34
			c0-0.11,0-0.23,0.11-0.23h0.11V70.12z M63.03,68.74h-0.11c-0.11-0.11-0.11-0.23-0.11-0.23c-0.11-0.23-0.23-0.23-0.34-0.34v-0.46
			c0-0.46,0.11-1.03,0.34-1.38c0.11-0.23,0.11-0.46,0.23-0.46V68.74z"/>
		<path class="st2" d="M64.4,64.16h-1.6h-1.26h-0.46h-0.46h-1.15h-1.72v6.18c0,0.46,0.23,0.92,0.57,1.26
			c0.34,0.23,0.69,0.46,1.15,0.69c0.34,0.23,0.8,0.46,1.15,0.69c0.23,0,0.34,0.12,0.46,0.23l0.46-0.23c0.46-0.23,0.8-0.46,1.26-0.69
			c0.34-0.23,0.69-0.46,1.03-0.69c0.34-0.34,0.57-0.69,0.57-1.26V64.16z M63.94,70.35c0,0.46-0.11,0.69-0.34,0.8
			c-0.23,0.23-0.46,0.34-0.8,0.57c-0.46,0.23-0.92,0.57-1.26,0.69c-0.11,0.11-0.34,0.23-0.46,0.23c-0.11,0-0.23-0.11-0.46-0.23
			c-0.34-0.23-0.8-0.46-1.15-0.69c-0.34-0.23-0.69-0.34-0.92-0.57c-0.23-0.11-0.34-0.46-0.34-0.8v-5.73h1.26h1.15h0.46h0.46h1.26
			h1.14V70.35z"/>
		<path class="st2" d="M60.28,127.15c0.12,0.57,0.46,1.03,0.8,1.38c0.34-0.34,0.69-0.8,0.8-1.38
			C62.11,126.12,60.05,126.12,60.28,127.15z"/>
		<path class="st2" d="M35.42,93.94c0.11,0.8,0.11,1.6,0,2.41c0,0.46-0.11,1.03-0.23,1.6c0.11,0,0.11,0,0.23,0
			c0.57-0.11,1.03-0.57,1.26-0.92c0.57-0.8,0-1.6,0.46-2.29c0.34,0.23,0.34,0.57,0.46,0.92c0.57-0.8,0.34-1.49-0.11-2.18
			c-0.46-0.8-0.8-1.95-0.46-2.75c0,0,0.23,1.49,0.69,2.29c0.34,0.34,0.8,0.92,1.26,1.15c0.46-1.83-1.15-2.41-0.92-3.55
			c0.34,0.34,0.69,0.46,0.92,0.57c-0.11-1.72-1.03-1.95-1.6-2.98c0.12,0,0.8,0.12,1.14,0.57c0.12-0.57-0.23-1.03-0.46-1.26
			c0.23,0,0.8,0.23,1.15,0.69c0.34-0.92,0.11-1.6-0.12-1.95c-0.34-0.69-1.14-0.92-1.37-1.72c0.23,0,0.46-0.12,0.8,0
			c-0.11-0.57-0.57-0.92-1.03-1.15c-0.69-0.34-1.49-0.57-2.06-1.14c0,0-0.11-0.12-0.11-0.23c-0.34-0.46-0.34-1.03,0.11-1.15h0.11
			C36,80.77,36,81.46,36.23,81.8c0.23,0.46,0.69,0.57,1.26,0.57c-0.23-0.46-0.46-0.69-0.34-1.26c0.57,0.11,0.69,1.26,2.06,1.03
			c0.11-1.83-1.83-1.38-1.72-2.63c0.34,0,0.57,0.12,1.14,0.46c0.23-1.49-1.03-1.37-1.14-1.95c0.34,0,1.14,0,1.72-0.34
			c-0.46-0.11-1.15-0.46-1.49-0.92c0.8-0.11,1.37-0.23,1.72-0.8c-1.37-0.11-2.52-1.26-2.63-2.4c-0.23-1.37,0-2.18,0.69-3.09
			c1.03-1.03,2.63-1.49,4.01-0.69c0.92,0.46,1.37,1.37,1.15,2.29c-0.23,1.03-1.26,1.6-2.18,1.6c-1.95-0.23-1.38-2.75-0.34-2.52
			c-0.69,0.57-0.34,1.83,0.8,1.83c0.8-0.11,1.15-0.92,1.03-1.6C41.72,70.46,40.92,70,40.12,70c-1.26,0-2.06,1.14-2.06,2.29
			c0,1.37,1.15,2.29,2.41,2.4c1.83,0.23,3.21-1.37,3.32-2.98c0-2.18-2.18-3.55-4.24-3.43c-1.6,0-2.98,0.46-4.12,1.26
			c-2.63,1.83-4.12,5.27-4.24,8.7v1.15c0,1.15,0.23,2.18,0.57,3.21C33.13,86.61,35.08,90.04,35.42,93.94z M35.42,70.8
			c0.34-0.34,0.8-0.57,1.15-0.69c-0.46,0.46-0.8,0.92-1.15,1.49c-0.57,1.03-0.8,2.4-0.69,3.78c0,1.15,0.34,2.18,0.69,2.98
			c0.46,0.92,1.03,1.6,1.37,1.83c-0.46,0-0.92-0.34-1.37-0.8c-0.69-0.92-1.26-2.41-1.37-4.12C33.94,73.67,34.51,71.83,35.42,70.8z
			 M32.56,77.79c0.11-0.8,0.23-1.83,0.69-2.06c-0.12,0.69-0.23,1.38-0.23,2.06c-0.11,1.14,0,2.29,0.34,3.32
			c0.34,1.37,1.15,2.29,2.06,3.09c0.34,0.23,0.57,0.46,0.92,0.69c0.69,0.46,1.6,0.92,1.72,1.83c-0.57-0.57-1.37-1.03-2.06-1.49
			c-0.11-0.11-0.34-0.23-0.57-0.34c-1.15-0.92-2.06-1.83-2.52-3.32C32.45,80.31,32.33,79.05,32.56,77.79z"/>
		<path class="st2" d="M86.16,111.92c1.49-4.01-0.34-5.61,0.57-7.56c-1.72,0.46-1.49,2.75-1.49,3.21c-0.46-0.11-0.8-0.69-1.03-1.03
			c-0.92,1.26,0.92,2.75,0.8,3.89c0,0.92-1.38,1.15-1.15-0.11c0.12-0.46,0.23-1.03,0.12-1.38c-0.12,0.23-0.46,0.57-0.69,0.69
			c-0.11-0.46,0.11-1.14-0.34-1.71c-0.11,0.46-0.46,0.8-0.69,0.91c0.11-0.69-0.11-1.26-0.8-1.37c0.34,0.8,0,1.6-0.23,2.4
			c-0.34,1.72,0.23,2.18,0.46,3.32c0.11,1.37-1.49,1.37-1.38,0c0-0.57,0.46-1.15,0.11-1.83c-0.23,0.34-0.46,0.34-0.69,0.69
			c0-0.34-0.23-0.8-0.46-1.03c-0.46,0.69-0.23,1.83-0.11,2.52c-0.23-0.23-0.57-0.34-0.92-0.34c0.57,0.57,1.14,1.72,1.03,2.98
			c-0.23,1.37-1.15,1.95-2.18,2.18c1.03-0.8,1.26-1.37,1.15-2.18c-0.23,0.34-0.46,0.69-0.92,0.92c0.57-1.03,0.46-1.6,0.23-1.95
			c-0.46,1.15-1.95,1.83-2.63,2.75c-1.15,1.14-1.26,2.29-2.06,3.32c-1.38,1.6-3.09,2.29-4.35,5.15c-0.69-0.23-1.49-0.8-1.95-1.14
			c-0.23,0.69-0.46,1.6-1.14,2.29c-0.57-0.23-1.49-0.8-1.72-1.15c-0.46,1.37-1.38,2.86-2.63,3.21c-1.26-0.34-2.29-1.83-2.63-3.21
			c-0.23,0.34-1.15,0.92-1.83,1.15c-0.57-0.69-0.8-1.6-1.15-2.29c-0.34,0.34-1.15,0.92-1.83,1.14c-1.26-2.86-3.09-3.55-4.35-5.15
			c-0.92-1.03-1.03-2.18-2.06-3.32c-0.69-0.92-2.18-1.6-2.63-2.75c-0.23,0.34-0.34,0.92,0.23,1.95c-0.57-0.23-0.69-0.57-0.92-0.92
			c-0.12,0.8,0.11,1.37,1.14,2.18c-1.14-0.23-1.95-0.8-2.18-2.18c-0.11-1.26,0.46-2.4,1.03-2.98c-0.35,0-0.69,0.11-0.92,0.34
			c0.11-0.69,0.34-1.83-0.23-2.52c-0.11,0.23-0.34,0.69-0.34,1.03c-0.34-0.34-0.57-0.34-0.69-0.69c-0.34,0.69,0,1.26,0.11,1.83
			c0.11,1.37-1.6,1.37-1.37,0c0.23-1.15,0.8-1.6,0.46-3.32c-0.23-0.8-0.57-1.6-0.23-2.4c-0.69,0.11-0.92,0.69-0.8,1.37
			c-0.34-0.11-0.57-0.46-0.69-0.91c-0.57,0.57-0.34,1.26-0.34,1.71c-0.23-0.11-0.57-0.46-0.69-0.69c-0.23,0.34,0,0.92,0,1.38
			c0.34,1.26-1.03,1.03-1.15,0.11c0-1.14,1.72-2.63,0.8-3.89c-0.12,0.34-0.46,0.92-0.92,1.03c-0.11-0.46,0.23-2.75-1.49-3.21
			c0.92,1.95-0.92,3.55,0.57,7.56c0.69,1.83,1.6,2.98,2.98,4.12c-0.46-1.6-0.34-4.24,0.57-5.5c-0.46,1.49-0.46,4.35,0.23,6.42
			c0.69,0.69,1.49,1.37,2.29,1.83c-0.69-1.14-0.8-3.55,0.11-4.35c-0.46,1.6,0,3.43,1.03,5.04c3.09,1.95,8.59,3.32,9.85,8.24
			c0.69-0.23,1.38-0.69,1.95-1.03c0.35,0.69,0.69,1.26,1.26,2.06c0.69-0.23,1.26-0.57,1.72-0.92c0.57,1.49,1.95,2.41,3.09,2.86
			c1.15-0.46,2.52-1.37,2.98-2.86c0.46,0.34,1.15,0.69,1.83,0.92c0.57-0.8,0.92-1.37,1.26-2.06c0.46,0.34,1.26,0.8,1.95,1.03
			c1.26-4.92,6.64-6.3,9.74-8.24c1.15-1.6,1.6-3.44,1.15-5.04c0.92,0.8,0.8,3.21,0.11,4.35c0.8-0.46,1.6-1.14,2.29-1.83
			c0.69-2.06,0.57-4.93,0.23-6.42c0.92,1.26,1.03,3.9,0.57,5.5C84.56,114.9,85.47,113.75,86.16,111.92z"/>
		<path class="st2" d="M84.67,96.11c-2.98,6.3,0.11,10.42,0.11,10.31c0-0.8,0.11-1.38,0.57-1.83c-1.15-2.4-0.57-4.81,0.23-6.76
			C85.02,97.37,84.67,97.15,84.67,96.11z"/>
		<path class="st2" d="M81.58,74.7c1.37-0.11,2.52-1.03,2.52-2.4c0-1.15-0.8-2.29-2.06-2.29c-0.92,0-1.72,0.46-1.83,1.37
			c-0.12,0.69,0.23,1.49,1.03,1.6c1.15,0,1.49-1.26,0.69-1.83c1.14-0.23,1.72,2.29-0.34,2.52c-0.92,0-1.95-0.57-2.06-1.6
			c-0.23-0.92,0.23-1.83,1.15-2.29c1.26-0.8,2.98-0.34,4.01,0.69c0.69,0.92,0.92,1.72,0.69,3.09c-0.23,1.14-1.37,2.29-2.63,2.4
			c0.34,0.57,0.92,0.69,1.72,0.8c-0.34,0.46-1.03,0.8-1.49,0.92c0.46,0.34,1.38,0.34,1.72,0.34c-0.11,0.57-1.37,0.46-1.14,1.95
			c0.57-0.34,0.8-0.46,1.14-0.46c0.11,1.26-1.83,0.8-1.72,2.63c1.38,0.23,1.38-0.92,2.06-1.03c0,0.57-0.11,0.8-0.34,1.26
			c0.57,0,1.03-0.11,1.15-0.57c0.34-0.34,0.34-1.03,0.8-0.92h0.12c0.46,0.11,0.46,0.69,0.11,1.15c0,0.11-0.11,0.23-0.11,0.23
			c-0.57,0.57-1.49,0.8-2.06,1.14c-0.57,0.23-0.92,0.57-1.14,1.15c0.46-0.12,0.69,0,0.8,0c-0.12,0.8-1.03,1.03-1.38,1.72
			c-0.23,0.34-0.34,1.03-0.11,1.95c0.46-0.46,0.92-0.69,1.26-0.69c-0.23,0.23-0.57,0.69-0.46,1.26c0.34-0.46,1.03-0.57,1.15-0.57
			c-0.57,1.03-1.49,1.26-1.6,2.98c0.23-0.12,0.57-0.23,0.8-0.57c0.34,1.15-1.37,1.72-0.8,3.55c0.46-0.23,0.92-0.8,1.15-1.15
			c0.57-0.8,0.8-2.29,0.8-2.29c0.34,0.8,0,1.95-0.46,2.75c-0.46,0.69-0.69,1.37-0.11,2.18c0.11-0.34,0.11-0.69,0.46-0.92
			c0.34,0.69-0.11,1.49,0.46,2.29c0.23,0.34,0.69,0.8,1.26,0.92c0,0,0.11,0,0.23,0c-0.11-0.57-0.23-1.15-0.23-1.72
			c-0.12-0.69-0.12-1.49,0-2.29c0.34-3.89,2.29-7.33,3.66-11.34c0.34-1.03,0.46-2.06,0.57-3.21v-1.15c-0.11-3.44-1.6-6.99-4.24-8.7
			c-1.15-0.8-2.52-1.26-4.12-1.26c-2.06-0.11-4.24,1.26-4.24,3.43C78.37,73.32,79.75,74.93,81.58,74.7z M88.91,75.73
			c0.46,0.23,0.57,1.26,0.69,2.06c0.23,1.26,0,2.52-0.34,3.78c-0.46,1.49-1.38,2.4-2.52,3.32c-0.23,0.11-0.46,0.23-0.69,0.34
			c-0.57,0.46-1.38,0.92-1.95,1.49c0.11-0.92,1.03-1.37,1.72-1.83c0.34-0.23,0.57-0.46,0.92-0.69c0.91-0.8,1.6-1.72,2.06-3.09
			c0.34-1.03,0.34-2.18,0.34-3.32C89.02,77.1,89.02,76.42,88.91,75.73z M86.73,70.8c0.91,1.03,1.37,2.86,1.37,4.47
			c-0.11,1.72-0.69,3.21-1.37,4.12c-0.46,0.46-0.92,0.8-1.38,0.8c0.23-0.23,0.8-0.92,1.38-1.83c0.34-0.8,0.69-1.83,0.69-2.98
			c0.12-1.37-0.11-2.75-0.69-3.78c-0.35-0.57-0.69-1.03-1.26-1.49C85.93,70.23,86.39,70.46,86.73,70.8z"/>
		<path class="st2" d="M85.24,124.06l-1.14-1.15l-0.34,0.34l1.03,1.15c0.23,0.23,0.57,0.57,0.34,0.8c-0.34,0.34-0.69,0-0.92-0.23
			l-1.03-1.26l-0.11,0.11l-0.34,0.34v0.11l0.34,0.34l0.69,0.8c0.57,0.46,1.03,0.8,1.6,0.23l0.11-0.11c0.46-0.46,0.23-0.8,0-1.15
			C85.36,124.29,85.24,124.17,85.24,124.06z"/>
		<polygon class="st2" points="92,112.61 91.43,112.26 91.08,112.84 92,113.29 93.03,113.87 93.72,114.09 93.95,113.52 
			93.03,113.06 		"/>
		<path class="st2" d="M92.57,114.67c-0.12-0.23-0.23-0.34-0.46-0.46H92c-0.23-0.12-0.57-0.23-0.8-0.23c-0.12,0-0.23,0-0.46,0.11
			c-0.23,0.12-0.46,0.35-0.57,0.57l-0.34,0.57l0.92,0.57L92,116.5l0.34,0.23l0.34-0.69c0.23-0.34,0.34-0.57,0.23-0.92
			C92.8,115.01,92.8,114.78,92.57,114.67z M92.23,115.93L92,115.81l-1.26-0.69l-0.11-0.11c0-0.12,0.11-0.23,0.11-0.34
			c0.12-0.12,0.23-0.12,0.46-0.12c0.11,0,0.34,0.12,0.57,0.23c0.11,0.11,0.11,0.11,0.23,0.23c0.11,0,0.11,0.11,0.23,0.11
			C92.46,115.35,92.35,115.58,92.23,115.93z"/>
		<path class="st2" d="M87.42,122l-0.34,0.34c0.34,0.34,0.34,0.57,0.23,0.69c-0.12,0.11-0.23,0.23-0.34,0.11
			c-0.23,0-0.34-0.11-0.69-0.34c-0.23-0.34-0.46-0.57-0.46-0.69c-0.12-0.11,0-0.23,0-0.34c0.23-0.23,0.46-0.12,0.8,0.11l0.34-0.46
			c-0.57-0.46-1.03-0.46-1.49,0c-0.23,0.23-0.34,0.57-0.23,0.8c0,0.23,0.11,0.46,0.23,0.57c0.11,0.11,0.23,0.23,0.34,0.46
			c0.34,0.23,0.69,0.46,1.03,0.46c0.23,0,0.46,0,0.57-0.12c0.12-0.12,0.12-0.12,0.23-0.23c0.23-0.23,0.23-0.46,0.23-0.69
			c0-0.23-0.11-0.46-0.34-0.69H87.42z"/>
		<path class="st2" d="M88.22,119.36l-0.8-0.23v-0.12l-0.46,0.57l0.46,0.57l0.8,1.03l0.46,0.8l0.46-0.46l-0.46-0.46l0.57-0.69
			l0.46,0.34l0.46-0.57l-0.92-0.34L88.22,119.36z M88.45,120.62l-0.23-0.23l-0.57-0.69l0.57,0.23l0.57,0.34L88.45,120.62z"/>
		<path class="st2" d="M94.41,110.54c-0.46-0.23-0.8,0.12-1.14,0.34c-0.11,0.23-0.23,0.23-0.23,0.34c0,0,0,0-0.12,0
			c-0.23,0.12-0.34-0.11-0.34-0.34c0.11-0.23,0.23-0.23,0.46-0.23c0,0,0,0,0.11,0v-0.57c-0.11,0-0.11,0-0.11,0
			c-0.46,0-0.69,0.11-0.92,0.57c-0.11,0.46,0,1.03,0.46,1.14c0.23,0.12,0.34,0.12,0.46,0.12c0.23,0,0.46-0.23,0.69-0.57
			c0.11-0.12,0.23-0.12,0.34-0.23c0.34,0,0.46,0.23,0.34,0.46c-0.11,0.23-0.34,0.34-0.57,0.34l-0.11,0.57
			c0.57,0,0.92-0.12,1.15-0.69C95.09,111.35,94.98,110.77,94.41,110.54z"/>
		<polygon class="st2" points="89.37,116.16 89.25,116.39 89.02,116.62 89.25,116.73 90.51,117.53 89.25,117.3 88.68,117.19 
			88.22,117.76 89.25,118.45 90.63,119.36 90.74,119.13 90.97,119.02 90.74,118.91 89.25,117.88 90.74,118.1 91.43,118.22 
			91.77,117.76 90.74,117.19 		"/>
		<path class="st2" d="M83.07,125.89l-0.11-0.11c0-0.12-0.11-0.23-0.23-0.23c-0.11-0.12-0.23-0.23-0.46-0.34
			c-0.23-0.12-0.57-0.12-0.92,0.11c-0.12,0-0.12,0.11-0.23,0.11l-0.11,0.12l-0.46,0.34l0.46,0.57l0.34,0.57l0.92,1.15l0.46-0.34
			l0.23-0.12c0-0.11,0-0.11,0.11-0.11c0.34-0.34,0.46-0.69,0.23-1.26C83.3,126.24,83.18,126.01,83.07,125.89z M82.73,127.15
			l-0.11,0.12l-0.11,0.11l-1.15-1.37v-0.12h0.11c0.11-0.23,0.34-0.23,0.57-0.11c0.12,0.11,0.23,0.23,0.46,0.34
			c0.11,0.23,0.23,0.34,0.23,0.57C82.84,126.92,82.84,127.04,82.73,127.15z"/>
		<polygon class="st2" points="81.12,128.3 81.01,128.41 80.32,128.98 79.86,128.41 80.55,127.95 80.21,127.5 79.52,128.07 
			79.17,127.5 80.09,126.81 79.75,126.46 78.37,127.5 80.09,129.79 81.01,129.1 81.35,128.75 81.46,128.75 81.35,128.64 		"/>
		<polygon class="st2" points="33.82,118.68 34.17,119.13 34.62,118.79 33.71,117.65 33.48,117.3 33.02,117.65 33.36,118.1 
			32.1,119.02 31.42,119.48 31.76,120.05 32.1,119.82 33.71,118.68 		"/>
		<path class="st2" d="M39.43,124.17l-0.34-0.34l-0.23-0.11l-0.69,0.34l-0.57,0.34l-1.38,0.8l0.46,0.46l0.46-0.34l0.46,0.34
			l0.23,0.23l-0.23,0.23l-0.11,0.34l0.11,0.11l0.34,0.34l0.23-0.34l0.92-1.95L39.43,124.17z M38.17,125.21l-0.11,0.23l-0.46-0.46
			l0.57-0.34l0.46-0.34L38.17,125.21z"/>
		<path class="st2" d="M35.54,121.77c0.12-0.12,0.12-0.12,0.12-0.12c0.57-0.46,0.46-0.92,0.11-1.37l-0.23-0.23l-0.34-0.46
			l-0.23,0.12l-1.26,1.03l-0.8,0.69l0.34,0.57l0.46-0.46l0.46-0.34l0.23,0.23l-0.69,1.03l0.46,0.57l0.69-1.26l0.12,0.11
			C35.2,121.88,35.31,121.88,35.54,121.77z M34.74,121.08l-0.23-0.23l0.46-0.34l0.23-0.12l0.11,0.12c0.23,0.23,0.23,0.46,0,0.57
			c-0.11,0.11-0.23,0.23-0.34,0.23C34.85,121.31,34.85,121.2,34.74,121.08z"/>
		<path class="st2" d="M29.47,114.33c0.23,0.34,0.46,0.57,0.8,0.57c0.11,0,0.34,0,0.57-0.11c0.57-0.34,0.57-0.8,0.23-1.38l-0.34-0.8
			l-0.46,0.23l-2.18,1.15l0.34,0.57l0.92-0.46L29.47,114.33z M30.27,113.64l0.34-0.23l0.12,0.23c0.11,0.23,0,0.46-0.23,0.57
			c-0.11,0-0.11,0-0.23,0c-0.11,0.12-0.23,0-0.34-0.23l-0.11-0.12L30.27,113.64z"/>
		<path class="st2" d="M32.1,116.84l0.69-0.69l-0.46-0.57l-0.23,0.12l-0.69,0.12l-1.15,0.34l-0.92,0.23l0.34,0.57l0.57-0.23
			l0.46,0.69l-0.46,0.46l0.46,0.57l0.69-0.8L32.1,116.84z M31.07,117.07l-0.23-0.46l0.57-0.23l0.57-0.23l-0.57,0.57L31.07,117.07z"
			/>
		<polygon class="st2" points="37.6,122.34 37.14,121.88 35.54,123.49 34.97,123.94 35.42,124.4 35.54,124.4 37.6,122.46 		"/>
		<polygon class="st2" points="39.09,127.27 38.86,127.61 39.09,127.84 40.23,128.75 40.58,128.3 39.66,127.61 40.12,127.04 
			40.81,127.61 41.15,127.27 40.46,126.69 40.92,126.12 41.84,126.81 42.07,126.46 40.69,125.32 		"/>
		<polygon class="st2" points="57.76,138.26 58.44,138.38 58.67,135.4 58.1,135.28 		"/>
		<path class="st2" d="M45.5,131.85l-0.46-0.23h-0.11l-1.26,2.64l0.69,0.34c0.23,0.12,0.46,0.12,0.69,0.12
			c0.57,0,0.92-0.46,1.15-0.92C46.53,132.88,46.42,132.3,45.5,131.85z M45.5,133.45c-0.11,0.34-0.23,0.57-0.46,0.69
			c-0.11,0-0.34,0.12-0.57,0l0.57-1.49l0.23-0.34C45.85,132.53,45.85,132.88,45.5,133.45z"/>
		<path class="st2" d="M50.77,133.79c-0.8-0.23-1.26,0.46-1.49,1.14c-0.23,0.69-0.23,1.6,0.57,1.83c0.69,0.12,1.15-0.23,1.38-0.8
			l-0.57-0.23c-0.11,0.46-0.34,0.57-0.57,0.46c-0.46-0.11-0.23-0.69-0.12-1.03c0-0.23,0.23-0.92,0.69-0.8
			c0.23,0,0.34,0.34,0.23,0.69l0.57,0.11C51.57,134.48,51.34,134.02,50.77,133.79z"/>
		<polygon class="st2" points="48.94,133.79 49.17,133.34 47.45,132.76 46.42,135.51 48.14,136.09 48.25,135.63 47.22,135.28 
			47.45,134.6 48.25,134.83 48.48,134.37 47.68,134.02 47.91,133.45 		"/>
		<path class="st2" d="M53.41,134.48c-0.12,0-0.23,0-0.34,0c-0.46,0-0.8,0.46-1.03,1.26c-0.11,0.69-0.11,1.6,0.69,1.72
			c0.11,0.12,0.23,0.12,0.34,0.12c0.57-0.12,0.92-0.46,1.15-1.38C54.32,135.51,54.21,134.71,53.41,134.48z M53.52,136.09
			c0,0.23-0.11,0.69-0.46,0.92c0,0-0.11,0-0.23,0c-0.34-0.11-0.23-0.8-0.11-1.03c0-0.23,0.11-0.8,0.34-0.91c0.12,0,0.12,0,0.23,0
			C53.75,135.17,53.63,135.86,53.52,136.09z"/>
		<path class="st2" d="M56.15,135.05h-0.12l-0.8-0.12l-0.46,2.98h0.69l0.23-1.15l0.23,0.12l0.11,0.57l0.12,0.57l0.69,0.11
			l-0.34-1.38c0.34-0.11,0.57-0.34,0.57-0.69C57.19,135.4,56.73,135.17,56.15,135.05z M56.04,136.43c0,0,0,0,0-0.12H55.7l0.11-0.8
			h0.23c0.34,0.12,0.46,0.23,0.46,0.46C56.38,136.2,56.27,136.43,56.04,136.43z"/>
		<path class="st2" d="M71.96,135.05c0.23-0.12,0.34-0.34,0.23-0.69c-0.11-0.34-0.34-0.57-0.57-0.57c-0.23,0-0.34,0-0.57,0.11
			l-0.92,0.23l0.8,2.86l0.69-0.11l0.34-0.12c0.46-0.23,0.92-0.46,0.69-1.14C72.53,135.28,72.3,135.17,71.96,135.05z M70.81,134.48
			l0.23-0.11c0.23,0,0.46,0,0.57,0.23v0.12c0,0,0,0,0,0.12c0,0.11-0.23,0.23-0.34,0.23l-0.23,0.11L70.81,134.48z M71.73,136.31
			h-0.11l-0.23,0.12l-0.23-0.8l0.34-0.12c0,0,0,0,0.11,0c0.23,0,0.34,0,0.34,0.23C72.07,135.97,71.96,136.2,71.73,136.31z"/>
		<path class="st2" d="M77,132.88c-0.23,0-0.57,0.12-0.69-0.12c0-0.23,0-0.34,0.23-0.46c0.11,0,0.34,0,0.46,0.23l0.46-0.46
			c-0.34-0.34-0.69-0.46-1.15-0.23c-0.34,0.12-0.46,0.34-0.57,0.57c-0.11,0.46,0.12,1.03,0.57,1.15c0.23,0,0.46,0,0.69,0
			c0.23,0,0.46,0,0.57,0.11c0.11,0.23-0.11,0.46-0.23,0.46c-0.23,0.12-0.46,0.12-0.69-0.23l-0.34,0.46
			c0.34,0.46,0.92,0.57,1.37,0.23c0.46-0.34,0.57-0.8,0.46-1.26C77.91,132.88,77.46,132.88,77,132.88z"/>
		<polygon class="st2" points="68.52,134.6 69.21,137.46 69.9,137.35 69.21,134.37 		"/>
		<path class="st2" d="M74.71,132.65l-0.57,0.11l0.69,1.6c0,0.23,0.11,0.46,0.11,0.46c0,0.23-0.11,0.34-0.23,0.46
			c-0.23,0.12-0.34,0-0.46-0.11c-0.12-0.11-0.12-0.23-0.23-0.46l-0.57-1.6l-0.69,0.23l0.69,1.6c0.11,0.34,0.23,0.57,0.34,0.69
			c0.23,0.34,0.69,0.34,1.03,0.23c0.34-0.23,0.69-0.46,0.69-0.92c0-0.23-0.12-0.46-0.23-0.8L74.71,132.65z"/>
		<polygon class="st2" points="67.26,137.12 66.46,134.94 65.77,135.05 67.03,137.92 67.72,137.8 67.95,134.71 67.38,134.83 		"/>
		<polygon class="st2" points="64.51,135.28 64.86,138.26 65.54,138.15 65.2,135.17 		"/>
		<path class="st2" d="M62.8,135.97c0.23-0.11,0.34,0.12,0.46,0.57l0.57-0.11c-0.12-0.69-0.46-1.03-1.15-1.03
			c-0.34,0-0.57,0.23-0.8,0.46c-0.11,0.23-0.23,0.69-0.23,1.14c0.11,0.46,0.23,0.8,0.46,1.15c0.12,0.23,0.46,0.34,0.8,0.34
			c0.34-0.12,0.57-0.23,0.69-0.34c0.23-0.23,0.23-0.57,0.23-0.8h-0.57c0,0.34-0.11,0.57-0.34,0.57c-0.11,0-0.23,0-0.34-0.23
			c-0.11-0.12-0.11-0.34-0.23-0.69c0-0.46,0-0.69,0.12-0.8C62.57,135.97,62.57,135.97,62.8,135.97z"/>
		<path class="st2" d="M94.98,107.91c-0.69-1.38-1.49-2.64-2.52-3.9c-1.72,5.38-4.01,10.65-7.67,15.12
			c-2.86,3.55-6.3,6.3-10.31,8.13c-1.15,0.57-2.29,1.03-3.44,1.49c0.23,1.03,0.46,2.06,0.8,2.98c-6.64,2.29-14.89,2.29-21.53,0
			c0.23-0.92,0.57-1.95,0.8-2.98c-1.83-0.69-3.67-1.49-5.38-2.41c-3.21-1.83-5.96-4.24-8.36-7.21l-0.23-0.23
			c-3.55-4.47-5.73-9.62-7.56-14.89c-0.92,1.26-1.72,2.52-2.41,3.9c-1.37-0.92-2.63-1.72-3.89-2.64c0.8,3.32,1.83,6.53,3.32,9.62
			c2.52,5.27,6.07,9.85,10.54,13.63c1.49,1.26,3.21,2.52,4.93,3.55c-0.46,0.92-1.03,2.06-1.37,2.52c1.6,1.15,3.32,1.95,5.04,2.75
			c4.81,1.95,10.31,2.86,15.35,2.86c4.35,0,9.05-0.69,13.4-2.17c2.52-0.92,4.81-1.95,6.87-3.44c-0.23-0.46-0.92-1.6-1.37-2.52
			c6.87-4.01,12.14-10.08,15.46-17.18c1.49-3.09,2.52-6.3,3.32-9.62C97.5,106.19,96.24,107,94.98,107.91z M37.14,127.61
			c-4.12-3.67-7.44-8.02-9.85-13.06c-1.14-2.41-2.06-4.92-2.86-7.56c1.03,0.69,2.06,1.37,3.09,1.95c0.57-1.15,1.15-2.29,1.83-3.44
			c1.83,5.27,4.12,10.08,7.44,14.09l0.34,0.46c2.41,2.86,5.15,5.27,8.59,7.1c1.26,0.69,2.64,1.38,4.01,1.83l-4.01,0.11h-2.06
			l-1.26,2.4C40.58,130.36,38.75,128.98,37.14,127.61z M50.08,129.79l-0.46,1.83c-1.26-0.46-2.63-1.03-3.89-1.6
			c-0.23-0.12-0.34-0.12-0.57-0.23h0.57H50.08z M80.43,134.37c-1.95,1.15-3.89,2.06-5.95,2.86c-4.24,1.6-8.82,2.29-13.4,2.29
			c-5.27,0-10.54-0.91-15.35-3.09c-1.37-0.57-2.75-1.26-4.01-2.06c0.8-1.49,1.49-2.86,2.29-4.35c0.57,0.34,1.15,0.57,1.72,0.8
			c9.73,4.12,19.01,4.35,28.75,0.8c1.26-0.46,2.4-1.03,3.66-1.6C78.83,131.5,79.63,132.88,80.43,134.37z M71.96,129.79h2.52H77
			c-0.8,0.34-1.72,0.69-2.52,1.03c-0.69,0.23-1.26,0.57-1.95,0.8L71.96,129.79z M94.86,114.55c-3.32,6.99-8.59,12.94-15.23,16.95
			l-1.26-2.4h-3.89l-2.06-0.11c0.69-0.23,1.37-0.57,2.06-0.8c4.47-2.06,8.02-5.04,10.88-8.59c3.21-4.01,5.61-8.82,7.33-14.09
			c0.8,1.15,1.38,2.29,1.95,3.44c1.03-0.57,2.06-1.26,2.98-1.95C96.93,109.63,96.01,112.15,94.86,114.55z"/>
		<path class="st2" d="M50.2,67.83c0.34-0.23,1.49-0.23,2.4-0.23c-0.23-0.34-0.69-0.69-1.03-0.69c0.23-0.23,1.03-0.23,1.72-0.11
			c-0.11-0.46-0.46-0.8-0.69-0.8c0.23-0.12,0.92-0.23,1.95,0c-0.11-0.23-0.46-0.57-0.69-0.8c0.11-0.11,0.92-0.34,1.26-0.46
			c-0.23-0.11-0.23-0.34-0.23-0.46c-2.06,0.46-5.04,3.09-6.19,4.81c0.8-0.46,2.06-0.57,2.86-0.69
			C51.12,68.06,50.89,67.94,50.2,67.83z"/>
		<path class="st2" d="M67.72,65.99c0.92-0.23,1.72-0.12,1.95,0c-0.34,0-0.69,0.34-0.8,0.8c0.69-0.12,1.49-0.12,1.83,0.11
			c-0.34,0-0.92,0.35-1.03,0.69c0.8,0,1.95,0,2.29,0.23c-0.69,0.11-0.92,0.23-1.26,0.57c0.69,0.11,1.95,0.23,2.75,0.69
			c-1.03-1.72-4.01-4.35-6.18-4.81c0,0.11,0,0.34-0.23,0.46c0.46,0.11,1.26,0.34,1.37,0.46C68.06,65.42,67.72,65.77,67.72,65.99z"/>
		<path class="st2" d="M70.36,72.18c0.57,1.83,2.75,2.06,4.35,1.83c1.26-0.11,2.52-0.46,3.32-0.92c-0.23-0.57-0.23-1.03-0.23-1.49
			c-0.69,0.57-1.95,1.03-3.21,1.26c-1.49,0.34-2.98,0.11-3.44-1.03c-0.23-0.57,0.11-1.15,0.57-1.49c0.34-0.23,0.8-0.23,1.26,0
			c0.69,0.46,0.34,1.37-0.11,1.15c0.23-0.69-0.46-0.92-0.8-0.8c-0.23,0.11-0.34,0.46-0.34,0.69c0,0.69,0.57,1.03,1.15,1.03
			c0.8,0.11,1.49-0.57,1.37-1.6c-0.12-0.92-1.03-1.37-1.83-1.37C70.93,69.43,69.9,70.69,70.36,72.18z"/>
		<path class="st2" d="M47.45,74.01c1.72,0.23,3.9,0,4.35-1.83c0.46-1.49-0.57-2.75-1.95-2.75c-0.92,0-1.72,0.46-1.95,1.37
			c-0.12,1.03,0.57,1.72,1.37,1.6c0.57,0,1.15-0.34,1.15-1.03c0.11-0.23,0-0.57-0.23-0.69c-0.46-0.11-1.15,0.11-0.8,0.8
			c-0.46,0.23-0.92-0.69-0.23-1.15c0.46-0.23,1.03-0.23,1.38,0c0.46,0.34,0.69,0.92,0.46,1.49c-0.46,1.14-1.95,1.37-3.44,1.03
			c-1.26-0.23-2.52-0.69-3.21-1.26c0.11,0.46,0,0.92-0.23,1.49C44.93,73.55,46.31,73.9,47.45,74.01z"/>
		<path class="st2" d="M55.93,64.73c0.34,0,0.69-0.34,0.69-0.69c0-0.46-0.34-0.8-0.69-0.8c-0.34,0-0.57,0.34-0.57,0.8
			C55.35,64.39,55.58,64.73,55.93,64.73z"/>
		<path class="st2" d="M66.23,64.73c0.34,0,0.69-0.34,0.69-0.69c0-0.46-0.34-0.8-0.69-0.8c-0.34,0-0.57,0.34-0.57,0.8
			C65.66,64.39,65.89,64.73,66.23,64.73z"/>
		<path class="st2" d="M57.99,63.36c1.49-0.8,4.7-0.8,6.18,0c0.46,0.11,0.92,0.34,1.6-0.34c-2.52-1.26-6.76-1.26-9.28,0
			C57.07,63.7,57.53,63.47,57.99,63.36z"/>
		<path class="st2" d="M55.01,92.91c-0.23,1.14,0.69,1.49,1.6,1.14c0.57-0.23,1.03-0.69,1.72-0.8c0.11,0,0.23,0,0.34,0
			c0.11,0.11,0.23,0.11,0.34,0.11c0.23,0,0.34,0.11,0.57,0.23c-0.11-0.34-0.34-0.57-0.57-0.69c-0.23-0.11-0.46-0.11-0.69-0.11
			c-0.11,0-0.23,0-0.23,0c-0.57,0.11-1.26,0.46-1.6,0.57C56.04,93.48,55.35,93.37,55.01,92.91z"/>
		<path class="st2" d="M60.62,100.12c0.23-0.23,0.34-0.46,0.46-0.92c0.34,0.34,0.57,0.34,0.8,0.8c0,0,0.23-0.34,0.34-0.69
			c0.11-0.23,0.23-0.57,0.23-0.8c0.69,0.34,0.69,0.69,1.03,1.03c0.34-0.34,0.46-0.92,0.23-1.49c0.23,0,0.46,0.12,0.57,0.23
			c0.34,0.23,0.57,0.46,0.69,0.57c0.23-0.92-0.46-1.03-0.69-1.6c0,0,0,0,0-0.11c0.46,0.34,0.8,0.57,1.26,0.57
			c-0.57-0.69-0.57-1.26-0.92-1.72c-0.12,0.11-0.23,0.11-0.34,0.23c-0.11,0.23-0.23,0.46-0.34,0.92c-0.23-0.34-0.23-0.57-0.8-0.8
			c0.11,0.34,0.23,0.8-0.23,1.6c-0.23-0.23-0.46-0.34-0.69-0.57c-0.12,0-0.34-0.12-0.34-0.12c0.11,0.46,0,1.03-0.23,1.6
			c-0.34-0.34-0.92-0.57-1.37-0.57c0.12,0.23,0.23,0.69-0.23,1.15C60.39,99.66,60.51,99.89,60.62,100.12z"/>
		<path class="st2" d="M62.22,90.5c0.11-0.11,0.34-0.23,0.34-0.46c-0.11,0-0.23,0-0.34,0c-0.12,0-0.23,0-0.34,0
			C61.88,90.16,62,90.39,62.22,90.5z"/>
		<path class="st2" d="M64.29,91.3h0.11c0.34,0.11,0.57,0.11,1.03-0.23c-0.46,0-0.8-0.34-1.15-0.57c0,0,0,0-0.11,0
			c-0.23-0.11-0.57,0-0.92,0.34C63.71,90.96,64.06,91.19,64.29,91.3z"/>
		<path class="st2" d="M60.39,91.19c-0.12-0.12-0.23-0.12-0.35-0.23c-0.11-0.11-0.23-0.11-0.23-0.23c-0.11,0.11-0.11,0.23-0.11,0.34
			c0,0,0.23,0,0.34,0.12C60.16,91.19,60.28,91.19,60.39,91.19z"/>
		<path class="st2" d="M57.76,92.11c0.12-0.12,0.34-0.12,0.57-0.12c0.23,0,0.46,0,0.69,0c0.46,0.12,0.8,0.46,1.03,0.8
			c0.12,0.23,0.12,0.57,0,0.8c0,0.11-0.11,0.23-0.23,0.34c-0.11,0.23-0.46,0.23-0.8,0.23c-0.23,0-0.46-0.11-0.69-0.11
			c-0.34-0.11-0.57-0.23-0.69-0.34c-0.23,0.69-0.11,1.26,0.69,1.37h0.11c0.23,0,0.46-0.11,0.57-0.23c0.12-0.11,0.23-0.11,0.57-0.23
			c0.12,0,0.34,0.11,0.46,0.11c0.12,0.11,0.23,0.11,0.35,0.23c-0.12-0.69,0.34-1.26,0.57-1.49c0.11,0,0.34,0.23,0.46,0.34
			c0.11-0.57,0.34-1.03,0.46-1.26c0.11,0.12,0.23,0.23,0.34,0.34c0.11,0.11,0.23,0.23,0.34,0.34c0.23-0.57,0-0.69,0.34-1.26
			c0,0.12,0.23,0.69,0.8,0.92c0.12-0.34,0.23-0.57,0.23-0.92c0,0,0.11,0.23,0.34,0.34c0.46,0.23,1.03,0.46,1.49-0.11
			c-0.46,0-1.03-0.23-1.49-0.46c-0.23-0.23-0.46-0.34-0.57-0.46c-0.11,0.23-0.11,0.46-0.34,0.57c0,0,0.11-0.34-0.23-0.69
			c-0.34,0.11-0.34,0.57-0.92,0.8h-0.12c0.12,0,0.12,0,0.12-0.11c0.23-0.23,0.34-0.92,0.92-1.15c0.34-0.46,0.34-1.03-0.11-1.37
			c-0.23-0.23-0.57-0.23-0.8-0.23c-0.34,0.11-0.57,0.23-0.92,0.34c-0.34-0.23-0.8-0.23-1.26-0.11c-0.34,0.11-0.69,0.23-1.03,0.34
			H58.9c-0.23,0-0.46,0.11-0.57,0.11c-0.34,0-0.69,0.12-1.03,0.23c-0.69,0.57-0.34,0.69,0,1.26C57.53,91.65,57.53,91.65,57.76,92.11
			z M62.22,89.7c0.23,0,0.46,0,0.57,0c0.23,0.57-0.34,0.8-0.57,1.26c-0.34-0.23-0.8-0.8-0.69-1.26C61.77,89.7,62,89.7,62.22,89.7z
			 M59.36,91.08c0-0.23,0-0.57,0.11-0.69c-0.23-0.11-0.23-0.34-0.11-0.57c0.23,0.23,0.46,0.46,0.69,0.69
			c0.23,0.23,0.46,0.46,0.8,0.57c0.23,0.12,0,0.46-0.23,0.46c-0.12-0.12-0.34-0.12-0.57-0.12c-0.34,0-0.8,0-1.03,0.12
			C59.02,91.3,59.13,91.19,59.36,91.08z"/>
		<path class="st2" d="M64.29,92.68c0-0.12-0.11-0.12-0.11-0.12c0,0.23-0.11,0.46-0.34,0.8c-0.46-0.23-0.69-0.46-0.92-0.8
			c0,0.69-0.46,1.37-0.46,1.37c-0.12-0.11-0.12-0.34-0.23-0.46C62.11,93.37,62,93.37,62,93.25c-0.34,0.46-0.46,0.8-0.69,1.6
			c0-0.46-0.11-0.8-0.34-0.92c-0.23,0.34-0.34,0.8-0.12,1.49c-0.23-0.12-0.46-0.12-0.69-0.23l-0.12,0.11c-0.46,0.23-0.8,0.8-0.8,0.8
			c-0.11-0.34-0.11-0.69,0.34-1.03c-0.23,0-0.46,0.11-0.57,0.11c-0.23,0.11-0.34,0.23-0.46,0.34c-0.23,0.46-0.23,0.8-0.23,1.49
			c0.23-0.11,0.46-0.23,0.69-0.34c0.34-0.23,0.69-0.57,0.8-0.8c0,0,0.12,0.69,0,1.15c0,0.34,0,0.69,0.23,1.14v-0.12
			c0.12-1.03,0.69-1.6,0.12-2.29c0,0,1.03,0.23,1.49,0.12c-0.11-0.92,0.46-1.6,0.46-1.6l0.12,0.12c0.46,0.34,0.34,0.34,0.57,0.46
			c0.11-0.8,0.34-0.8,0.46-1.37c0.34,0.34,0.69,0.69,1.03,0.92c-0.23,0.23-0.69-0.12-0.92-0.23c0,0.23-0.23,0.57-0.11,1.03
			c-0.46,0.11-0.69-0.11-1.03-0.34h-0.12c-0.11,0.46,0,0.8,0.12,1.37c-0.46,0-0.92,0.12-1.38,0c0.46,0.92-0.34,1.15-0.46,1.72
			c0.34,0,0.8,0.11,1.03,0.34c0.23-0.57,0.11-1.03,0-1.49c0.34,0,0.57,0.11,0.8,0.23c0.23,0.11,0.34,0.11,0.57,0.34
			c0.23-0.57,0.11-1.15-0.11-1.72c0.69,0.23,0.92,0.34,1.26,0.92c0.57-0.92-0.46-1.03-0.11-1.83c0.11,0.34,0.23,0.57,0.46,0.8
			c0.11,0,0.23,0,0.23,0.12c0.57-0.92,0-1.49,0-2.06c0.57,0.46,0.69,1.03,0.57,1.72c0.23,0.23,0.92,0.34,1.37,0.23
			c-0.46-0.46-0.57-0.8-0.92-1.6C65.2,93.25,64.86,92.91,64.29,92.68z"/>
		<path class="st2" d="M58.9,98.52c0,0.23-0.12,0.46-0.23,0.57c0.11,0,0.23,0,0.34,0c0.34,0,0.57,0.11,0.92,0.23
			c-0.34-0.23-0.69-0.46-0.92-0.69L58.9,98.52z"/>
		<path class="st2" d="M57.19,96.34c-0.34,0-0.57,0-0.8-0.34c-0.46,0.69,0.34,1.49,1.03,1.03c0,0.57-0.23,0.92-0.34,1.14
			c0.46,0.11,0.8-0.12,0.92-0.46c0.23,0.11,0.23,0.34,0.34,0.57c0,0.23,0,0.46,0.11,0.69c0.34-0.34,0.34-0.69,0.46-1.26
			c0,0,0,0.11,0.11,0.11c0.23,0.57,0.57,0.69,0.92,1.03c0-0.46-0.23-0.69-0.34-1.03c-0.11-0.46,0-0.8,0-1.26
			c-0.23,0.23-0.34,0.46-0.57,0.57c-0.23,0.11-0.46,0.11-0.69,0.23c-0.11,0-0.23,0-0.34,0c0.23-0.69,0-0.8,0.12-1.49
			C57.76,96.23,57.53,96.34,57.19,96.34z"/>
		<path class="st2" d="M62.45,110.2c0.34-0.46,0.46-1.03,0.46-1.6c-0.23-0.23-0.46-0.34-0.69-0.46
			C62.34,108.83,61.88,109.51,62.45,110.2z"/>
		<path class="st2" d="M66.23,98.86c-0.23,0.46,0,1.15-0.23,1.72c0.46-0.23,0.69-0.57,0.69-0.8C66.46,99.32,66.35,99.21,66.23,98.86
			z"/>
		<path class="st2" d="M66.23,98.29c0.34,1.03,1.37,1.72,0.8,3.09c0.92-0.23,0.92-1.26,0.57-1.83c-0.34-0.69-0.69-1.15-0.8-1.6
			c0-0.46,0.12-1.38,0.57-1.72c-0.23,0.46-0.34,1.15-0.23,1.6c0.11,0.46,0.34,0.92,0.69,1.37c0.34,0.34,0.69,0.57,0.57,1.03
			c0.46-0.57,0.23-1.15-0.23-1.95c0.69,0.69,0.92,0.8,0.92,1.72c0.69-0.69,0.35-1.37-0.11-1.83c-0.12,0-0.12-0.12-0.23-0.23
			c-0.46-0.34-0.8-0.34-0.57-1.38c0.11,0.34,0.23,0.69,0.34,0.8c0.34,0.34,0.92,0.23,1.15-0.12c-0.34,0-0.57-0.23-0.69-0.57
			c-0.57-1.49,2.18-1.83,2.29,0.23c0.11,1.26-1.03,2.52-1.37,3.21c-0.46,0.69-0.69,1.37-0.57,2.29c0.12,0.8,0.57,1.83,0.92,2.52
			c0.34,1.14,1.49,4.35-0.69,4.47c-1.26,0.11-1.6-1.15-2.06-2.29c-0.46-1.14-1.15-1.72-1.72-2.52c-0.8-1.14-1.26-2.63-1.03-3.89
			c0.11-0.8,0.23-1.37-0.57-2.06c-0.11,0.69-0.23,1.03-0.8,1.49c-0.23-0.46-0.46-0.69-0.69-0.92c-0.11,0.57-0.23,0.8-0.92,1.72
			c-0.23-0.46-0.46-0.8-0.57-0.92c-0.12,0.34-0.46,0.8-0.92,0.92c0-0.69-0.11-1.03-0.69-1.26c-2.18-0.23-3.66,0.69-5.61,0.8
			c-1.72,0.11-2.86-0.23-3.78-1.6c-0.57-0.69-1.49-0.92-1.83,0.11c0.69-0.11,1.26,0.11,1.26,0.8c-0.46-0.57-1.49-0.92-1.72,0.11
			c0.57-0.23,1.6,0.23,1.72,1.03c-0.46-0.46-0.92-0.8-1.26-0.69c-0.23,0-0.46,0.11-0.69,0.34c0.46,0.11,0.46,0.46,0.69,0.69
			c0.34,0.46,0.92,0.57,1.49,0.34c0.23-0.23,0.57-0.46,0.92-0.46c0.34,0,0.57,0.34,0.23,0.57c-0.23,0.11-0.57,0.11-0.92,0.11
			c0.23,0.57,1.26,1.03,1.72,0.34c1.38,0.46,2.86,0.69,3.9,0.57c0.34,0.57,0.46,1.03,0.23,1.6c0.34-0.11,0.46-0.34,0.69-0.8
			c0.12,0.57,0.46,0.69,0.69,0.8c-0.11-0.92,0-1.15,0.23-1.72c0.11,0.69,0.23,1.03,0.57,1.37c0.11-0.57,0.23-1.03,0.69-1.37
			c0,0.57,0,0.92,0.23,1.6c0.12-0.34,0.57-0.92,0.92-1.15c-0.12,1.72,0.57,2.29,1.95,3.21c1.37,1.15,1.37,1.26,1.26,2.86
			c0,0.8-0.23,1.15-0.46,1.37c-0.69,0.46-0.8,0.92-0.57,1.72c0.23,0.46,0.69,1.03,0.34,1.6c0.46,0,0.8-0.57,1.03-0.92
			c0,0.69,0.12,1.03,0.34,1.38c0-0.57,0.34-0.92,0.69-1.15c0,0,0.12,0.8,0.69,1.37c0.23-0.46,0.46-0.69,0.8-0.8
			c0.11,0.46,0.34,0.69,0.69,0.92c-0.46,1.6,0.23,3.44,0.57,3.89c-0.34,0.46-0.8-0.12-1.14-0.46c-0.46-0.23-1.03-0.34-1.49,0
			c-0.34,0.34-0.57,1.03,0.11,1.38c0-0.69,0.46-0.92,0.8-0.8c-0.57,0.34-0.69,1.03,0,1.37c0.12-0.34,0.12-1.14,0.8-0.92
			c-0.34,0.12-0.46,0.69-0.34,1.03c0.57,0.11,1.95-0.12,2.75-0.92c0.11-0.8,0-1.49-0.12-1.83c0.12,0,0.46,0.11,0.57,0.23
			c-0.12-0.57-0.57-1.03-0.92-1.15c0.34-0.12,0.92,0.23,0.92,0.23c-0.12-0.69-0.69-1.03-0.92-1.26c0.23,0.11,1.03,0.23,1.26-0.23
			c-0.46,0-0.8-0.12-0.92-0.46c0.23-0.12,0.57-0.34,0.69-0.69c-0.23,0.12-0.34,0-0.57,0c0.46-1.37-0.46-1.72-1.15-1.95
			c-0.92-0.23-1.83-0.92-1.72-1.83c0.11,0.11,0.46,0.57,1.03,0.34c-0.92-1.83-0.12-1.95,0.11-3.32c0.23,0.23,0,1.38,0,1.49
			c0.46,0.8,1.49,1.26,2.41,1.38c2.06-0.23,2.06-2.06,1.83-3.44c-0.11-0.92-0.11-1.95,0.23-2.52c-0.34-0.12-0.69,0.46-0.69,0.46
			c-0.23-0.92,0.57-1.26,0.46-2.18c-0.11,0.34-0.57,0.46-0.8,0.57c0-0.34,1.03-0.92,1.03-1.72c-0.34,0.34-0.57,0.23-0.92,0.46
			c0.46-0.46,1.03-1.03,0.8-1.95c-0.23,0.57-0.69,0.57-1.14,1.26c0.11-1.14,1.6-2.64,1.6-4.24c0-0.69-0.23-1.26-0.69-1.6
			c-1.03-0.91-2.52-0.8-3.67-0.11C66.46,95.77,65.77,97.15,66.23,98.29z"/>
		<path class="st2" d="M62.11,110.43c-0.8-1.03,0.23-2.18-0.23-2.75c0.46,0,0.8,0.34,0.92,0.46c0.11-0.8-0.92-1.14-1.15-1.26
			c-1.15,1.49-2.52,1.72-3.89,2.29c-1.37,0.46-0.69,2.18-2.06,2.63c0.46,0.12,0.8,0.12,1.6,0c-0.57,0.46-0.92,0.34-1.26,1.15
			c0.34-0.11,0.69-0.11,1.03-0.11c0,0.11-0.34,0.46-0.57,0.92c0.34,0,0.69,0,1.15-0.35c0.11,0.46-0.69,0.46-0.46,1.49
			c0.23-0.46,0.69-0.57,1.03-0.57c-0.23,0.12-0.46,0.34-0.46,0.8c0.23-0.11,0.69-0.23,0.92-0.11c-0.57,0.34-0.8,0.46-1.15,0.8
			c-0.92,0.8,0,2.18-1.03,2.29c-0.57,0.12-0.8-0.34-1.49-0.46c-1.26-0.34-1.72,1.14-0.92,1.49c0-0.46,0.46-0.69,0.92-0.57
			c-0.34,0.12-1.14,0.8-0.23,1.26c0.34-0.57,0.69-0.57,1.15-0.57c-0.69,0.34-1.03,0.8-0.23,1.26c0.69-1.03,2.06-0.69,2.75-0.92
			c0.11-0.23,0.34-1.03,0.11-1.95c0.23,0.23,0.46,0.34,0.69,0.46c-0.11-0.23-0.11-0.69,0-0.8c0.11,0.23,0.34,0.34,0.69,0.46
			c-0.12-0.57-0.12-1.03,0-1.49c0.23,0.34,0.34,0.46,0.69,0.46c-0.23-0.46,0.11-0.8,0.11-1.15c0-1.26-1.26-1.83,0.11-2.98
			c-0.34-0.11-0.57-0.23-0.8-0.8c0.35,0.34,0.8,0.46,1.38,0.23c-0.57-0.23-0.8-0.57-1.03-1.03c0.23,0.11,0.69,0.46,1.26,0.46
			C61.65,111,61.77,110.66,62.11,110.43z"/>
		<path class="st2" d="M37.37,106.42c0,0.11,3.09-4.01,0.12-10.31c0,1.03-0.34,1.26-0.92,1.72c0.8,1.95,1.26,4.35,0.23,6.76
			C37.26,105.05,37.37,105.62,37.37,106.42z"/>
		<path class="st2" d="M48.94,92.91c-0.11,0.23,0.23,0.46,0.57,0.57c0.34,0.11,0.69-0.11,0.8-0.34c0-0.23-0.23-0.46-0.57-0.57
			C49.4,92.45,48.94,92.68,48.94,92.91z"/>
		<path class="st2" d="M49.74,93.6c-0.34,0-0.69,0.11-0.69,0.34c-0.11,0.23,0.11,0.46,0.46,0.57c0.34,0.12,0.69,0,0.8-0.34
			C50.31,93.94,50.08,93.71,49.74,93.6z"/>
		<path class="st2" d="M49.74,91.53c-0.34-0.12-0.69,0-0.69,0.23c-0.11,0.35,0.11,0.57,0.46,0.57c0.34,0.12,0.69,0,0.8-0.23
			C50.31,91.88,50.08,91.53,49.74,91.53z"/>
		<path class="st2" d="M51,94.51v-1.72l-0.69-0.11c0.34,0.34,0.34,0.69-0.11,0.92c0.34,0.23,0.57,0.57,0.23,0.92H51z"/>
		<path class="st2" d="M54.67,96.11c-0.23-0.57-0.23-1.14-0.57-1.6c-0.46-0.69-1.15-0.57-1.72-1.26c-0.34-0.34-0.69-0.92-1.15-1.37
			c-0.11-0.23-0.46-0.34-0.8-0.23c0.11,0.23,0.23,0.57,0,0.69l0.8,0.23v1.49c0.12,1.15,1.26,0.8,2.18,0.92l-0.12,1.14h-1.26
			c0,0.69,0.8,0.8,0.46,1.95c0.34-0.11,0.57-0.57,0.69-0.8c0.46,0.46,0,1.15-0.23,1.49c0.34,0,0.57-0.11,1.03-0.46
			c0.11,0.35-0.23,0.8-0.46,1.15c0.46,0,0.92-0.46,1.03-0.57c0.23,0.57-0.11,0.8-0.34,1.26c0.11-0.11,1.6-0.46,2.18-0.69
			c0.46-0.12,1.03-0.23,1.72-0.34c-0.12-0.23-0.23-0.46-0.23-0.8c-0.34,0.23-0.92,0.35-1.49,0c0.23-0.11,0.34-0.34,0.46-0.57
			C56.15,97.49,55.01,96.8,54.67,96.11z"/>
		<path class="st2" d="M47.68,95.89h5.15v-0.57h-1.49c0-0.34-0.23-0.57-0.46-0.57h-1.37c-0.23,0-0.46,0.23-0.46,0.57h-1.37V95.89z"
			/>
		<path class="st2" d="M49.63,89.7h1.49c0.23,0,0.57-0.23,0.57-0.46h-2.63C49.05,89.47,49.28,89.7,49.63,89.7z"/>
		<path class="st2" d="M51.23,88.9c0.23-1.83-0.57-2.98-0.34-4.58h-1.14c0.34,1.6-0.46,2.75-0.23,4.58H51.23z"/>
		<rect x="49.97" y="81.46" class="st2" width="0.8" height="2.64"/>
		<path class="st2" d="M50.2,81.11c-0.11-0.34-0.11-0.69,0.11-1.15c0.34,0.46,0.34,0.92,0.11,1.15C51,81,51.12,80.65,51,80.19
			c0-0.34-0.34-0.8-0.57-1.03c-0.23,0.12-0.57,0.46-0.69,0.92C49.63,80.54,49.63,81,50.2,81.11z"/>
		<path class="st2" d="M45.04,89.7h1.37c0.23,0,0.46-0.23,0.46-0.46h-2.41C44.47,89.47,44.7,89.7,45.04,89.7z"/>
		<path class="st2" d="M46.53,88.9c0.12-1.83-0.57-2.29-0.34-3.89h-1.03c0.23,1.6-0.46,2.06-0.34,3.89H46.53z"/>
		<rect x="45.27" y="83.06" class="st2" width="0.8" height="1.72"/>
		<path class="st2" d="M45.62,82.71c-0.23-0.34-0.23-0.69,0.11-1.15c0.23,0.46,0.23,0.92,0,1.15c0.57-0.11,0.69-0.46,0.57-0.92
			c-0.12-0.34-0.34-0.8-0.57-1.03c-0.23,0.11-0.57,0.46-0.69,0.92C45.04,82.14,45.04,82.6,45.62,82.71z"/>
		<path class="st2" d="M54.32,89.7h1.38c0.34,0,0.57-0.23,0.57-0.46h-2.4C53.86,89.47,54.09,89.7,54.32,89.7z"/>
		<path class="st2" d="M55.93,88.9c0.11-1.83-0.57-2.29-0.34-3.89h-1.03c0.23,1.6-0.46,2.06-0.34,3.89H55.93z"/>
		<rect x="54.67" y="83.06" class="st2" width="0.69" height="1.72"/>
		<path class="st2" d="M54.9,82.71c-0.11-0.34-0.11-0.69,0.11-1.15c0.35,0.46,0.23,0.92,0.12,1.15c0.46-0.11,0.57-0.46,0.57-0.92
			c-0.11-0.34-0.46-0.8-0.69-1.03c-0.11,0.11-0.46,0.46-0.57,0.92C54.32,82.14,54.44,82.6,54.9,82.71z"/>
		<path class="st2" d="M55.35,90.39v-0.34h-0.57v0.34c0,0.23-0.11,0.34-0.34,0.34h-3.78v-0.69h-0.57v0.69h-3.9
			c-0.11,0-0.23-0.11-0.23-0.34v-0.34h-0.57v0.34c0,0.57,0.34,0.92,0.92,0.92c3.32,0,4.69,0,8.13,0
			C55.01,91.3,55.35,90.96,55.35,90.39z"/>
	</g>
</svg>