<svg xmlns="http://www.w3.org/2000/svg" xmlns:xlink="http://www.w3.org/1999/xlink" xmlns:inkscape="http://www.inkscape.org/namespaces/inkscape" version="1.1" width="2300" height="1000" viewBox="0 0 2300 1000">
<defs>
<clipPath id="clip_1">
<path transform="matrix(2,0,0,-2,0,1000)" d="M0 500H1150V0H0Z"/>
</clipPath>
</defs>
<g inkscape:groupmode="layer" inkscape:label="Layer 1">
<path transform="matrix(2,0,0,-2,0,1000)" d="M0 0H1150V500H0Z" fill="#002561"/>
<g clip-path="url(#clip_1)">
<path transform="matrix(2,0,0,-2,414.9824,335.05659)" d="M0 0H71.379 142.349V-67.257-68.492C141.937-113.468 112.229-151.429 71.379-165.044H70.968C30.535-151.429 .825-113.468 .412-68.492V-67.257H0ZM-3.302-69.317C-2.062-115.944 28.468-154.726 70.141-168.348L70.968-168.756H71.379L72.206-168.348C114.291-154.726 144.823-115.944 146.064-69.317V3.714H71.379-3.302Z" fill="#ffffff"/>
<path transform="matrix(2,0,0,-2,574.2442,321.0362)" d="M0 0C-.823 0-1.648 1.652-1.648 3.304-1.648 4.957-1.236 6.19-.413 7.015 .412 8.254 1.239 8.667 2.889 9.079 3.302 9.492 3.302 9.492 2.889 9.904 1.239 9.492-.413 8.667-1.648 7.838-2.888 6.605-3.715 4.957-3.715 3.304-3.715 .827-2.475-.825 0-.825 2.064-.825 3.302 .415 3.302 2.477 3.302 4.128 2.477 5.365 .829 5.365 0 5.365-.413 4.957-.823 4.537H-.413C.829 4.537 1.239 2.477 1.239 1.652 1.239 .827 1.239 0 0 0" fill="#ffffff"/>
<path transform="matrix(2,0,0,-2,542.0712,321.0362)" d="M0 0C-1.242 0-1.654 1.652-1.654 3.304-1.654 4.957-1.242 6.19-.415 7.015 .408 8.254 1.235 8.667 2.887 9.079V9.904C1.235 9.492-.829 8.667-2.067 7.838-3.304 6.605-3.714 4.957-3.714 3.304-3.714 .827-2.48-.825-.415-.825 1.648-.825 3.295 .415 3.295 2.477 3.295 4.128 2.06 5.365 .408 5.365 0 5.365-.829 4.957-1.242 4.537H-.829-.415C.823 4.537 1.235 2.477 1.235 1.652 1.235 .827 .823 0 0 0" fill="#ffffff"/>
<path transform="matrix(2,0,0,-2,513.1866,318.55183)" d="M0 0V5.773 7.837H-.414C-.414 7.837-.827 7.425-1.652 7.425-2.067 7.012-2.89 7.012-3.713 7.012-3.713 7.012-3.713 6.596-3.302 6.596L-2.89 6.188C-2.067 6.188-2.067 6.188-2.067 4.948V0C-2.067-1.242-2.067-1.242-2.89-1.242H-3.713C-3.713-1.242-3.713-1.652-3.302-1.652H-1.238 1.235V-1.242H.823C0-1.242 0-1.242 0 0" fill="#ffffff"/>
<path transform="matrix(2,0,0,-2,600.6562,321.0362)" d="M0 0H-.41C-.825 0-.825-.41-.41-.41H2.063 4.127C4.538-.41 4.538 0 4.127 0H3.711C2.886 0 2.886 0 2.886 1.242V7.015 9.079H2.475C2.475 9.079 2.063 8.667 1.236 8.667 .823 8.254 0 8.254-.41 8.254-.825 8.254-.825 7.838-.41 7.838L0 7.43C.823 7.43 .823 7.43 .823 6.19V1.242C.823 0 .823 0 0 0" fill="#ffffff"/>
<path transform="matrix(2,0,0,-2,571.7714,266.57124)" d="M0 0H-.412C-.825 .414-.825 .827-.825 .827-1.238 1.652-1.652 1.652-2.062 2.065V3.712C-2.062 5.362-1.652 7.431-.825 8.667-.412 9.493-.412 10.319 0 10.319ZM0-4.95H-.825-2.887C-2.887-4.54-3.302-3.713-3.302-3.3-2.479-2.886-1.652-2.475-.825-2.06-.825-1.65-.825-1.234-.412-1.234H0ZM-4.539-4.95H-5.365-6.188V-4.125C-6.188-4.125-5.773-3.713-5.365-3.713-4.952-3.713-4.952-3.3-4.539-3.3ZM-5.365-7.838C-5.365-8.25-5.773-8.25-5.773-8.664L-6.188-8.25V-6.187H-5.365-4.539C-4.952-7.013-4.952-7.427-5.365-7.838M-8.662-2.475V-1.65C-8.253-.827-7.427 0-7.015 .827H-6.6C-6.6 0-5.773-.827-5.365-1.65-5.365-2.06-4.952-2.06-4.952-2.475H-5.365C-5.773-2.475-6.6-2.886-7.015-3.3-7.427-2.886-7.842-2.475-8.662-2.475M-7.427-4.95H-8.662-9.487C-9.487-4.54-9.487-3.713-9.079-3.3L-8.662-3.713C-8.253-3.713-7.842-4.125-7.427-4.125ZM-7.427-8.25-7.842-8.664C-8.253-8.25-8.253-8.25-8.662-7.838-9.079-7.427-9.079-7.013-9.079-6.187H-8.662-7.427ZM-10.73-4.95H-12.791-14.027V-1.234H-13.202C-13.202-1.234-13.202-1.65-12.791-2.06-12.379-2.475-11.555-2.886-10.73-3.3ZM-14.027 10.319C-13.615 10.319-13.202 9.493-12.791 8.667-12.379 7.431-11.963 5.362-11.963 3.712V2.065C-12.379 1.652-12.791 1.237-12.791 .827-13.202 .827-13.202 .414-13.202 0H-14.027ZM-3.302 4.125V1.237C-2.062 .827-1.652 .414-1.652-.409-1.652-1.65-2.887-1.65-3.713-2.06-4.126-1.234-4.952-.409-5.365 .827-5.773 2.065-6.188 3.302-6.188 4.539-6.188 6.189-5.773 8.252-5.773 9.901-5.773 10.728-5.773 12.796-7.015 14.031-7.842 12.796-7.842 10.728-7.842 9.901-7.842 8.252-7.427 6.189-7.427 4.539-7.427 3.302-7.842 2.065-8.662 .827-9.079-.409-9.902-1.234-10.313-2.06-11.14-1.65-11.963-1.65-11.963-.409-11.963 .414-11.963 .827-10.73 1.237V4.125C-10.73 6.189-11.14 9.493-12.791 11.144-13.615 11.969-14.442 12.379-15.265 12.379V-6.187H-12.791-10.73C-10.313-7.427-9.487-8.664-8.662-9.902-8.253-10.315-7.427-10.723-7.015-10.723-6.188-10.723-5.773-10.315-5.365-9.902-4.126-8.664-3.713-7.427-3.302-6.187H-.825 1.236V12.379C.414 12.379-.412 11.969-.825 11.144-2.479 9.493-3.302 6.189-3.302 4.125" fill="#ffffff"/>
<path transform="matrix(2,0,0,-2,578.372,278.1172)" d="M0 0C0-1.654-.41-2.477-1.235-2.891-2.064-3.717-2.887-4.129-4.125-4.95-5.779-5.779-7.427-7.017-8.666-7.429-9.074-7.842-9.9-8.254-10.315-8.254-10.727-8.254-11.143-7.842-11.962-7.429-13.202-6.604-14.855-5.779-16.091-4.95-17.328-4.129-18.565-3.717-19.393-2.891-20.217-2.477-20.631-1.24-20.631 0V20.627H-16.091-11.962-10.315-8.666-4.125 0ZM1.652 22.281H-4.125-8.666-10.315-11.962-16.091-22.281V0C-22.281-1.654-21.454-3.304-20.217-4.542-18.979-5.367-17.743-6.194-16.091-7.017-14.855-7.842-13.202-8.667-11.962-9.491-11.143-9.491-10.727-9.906-10.315-10.317L-8.666-9.491C-7.014-8.667-5.779-7.842-4.125-7.017-2.887-6.194-1.652-5.367-.41-4.542 .825-3.304 1.652-2.065 1.652 0Z" fill="#ffffff"/>
<path transform="matrix(2,0,0,-2,551.9678,687.4218)" d="M0 0C.415-2.062 1.648-3.715 2.887-4.954 4.128-3.715 5.363-2.062 5.775 0 6.6 3.712-.829 3.712 0 0" fill="#ffffff"/>
<path transform="matrix(2,0,0,-2,352.2666,331.76258)" d="M0 0C.412 2.892 .825 6.605 2.479 7.429 2.062 4.954 1.65 2.475 1.65 0 1.237-4.124 1.65-8.25 2.889-11.965 4.127-16.916 7.016-20.217 10.315-23.104 11.554-23.929 12.375-24.756 13.619-25.579 16.092-27.233 19.395-28.883 19.804-32.181 17.744-30.122 14.853-28.468 12.375-26.816 11.967-26.406 11.143-25.993 10.315-25.579 6.185-22.275 2.889-18.979 1.237-13.614-.409-9.076-.825-4.539 0 0M10.315 25.169C11.554 26.409 13.204 27.234 14.444 27.646 12.791 25.996 11.554 24.346 10.315 22.28 8.252 18.569 7.429 13.617 7.839 8.667 7.839 4.538 9.078 .827 10.315-2.058 11.967-5.364 14.027-7.835 15.266-8.662 13.619-8.662 11.967-7.427 10.315-5.773 7.839-2.474 5.779 2.892 5.366 9.075 4.95 14.855 7.016 21.456 10.315 25.169M10.315-58.174C10.726-61.064 10.726-63.951 10.315-66.842 10.315-68.491 9.902-70.554 9.489-72.618H10.315C12.375-72.204 14.027-70.554 14.853-69.318 16.916-66.427 14.853-63.544 16.502-61.064 17.744-61.891 17.744-63.124 18.158-64.366 20.217-61.478 19.395-59 17.744-56.527 16.092-53.639 14.853-49.512 16.092-46.622 16.092-46.622 16.916-51.987 18.566-54.875 19.804-56.114 21.453-58.174 23.106-59 24.754-52.397 18.981-50.333 19.804-46.208 21.042-47.448 22.281-47.86 23.106-48.275 22.694-42.083 19.395-41.256 17.329-37.544 17.744-37.544 20.217-37.959 21.453-39.606 21.868-37.544 20.633-35.896 19.804-35.07 20.633-35.07 22.694-35.896 23.933-37.544 25.171-34.243 24.343-31.77 23.518-30.529 22.281-28.058 19.395-27.233 18.566-24.346 19.395-24.346 20.217-23.929 21.453-24.346 21.042-22.275 19.395-21.044 17.744-20.217 15.266-18.979 12.375-18.154 10.315-16.092 10.315-16.092 9.902-15.677 9.902-15.266 8.667-13.614 8.667-11.55 10.315-11.137H10.726C12.375-10.724 12.375-13.202 13.204-14.44 14.027-16.092 15.677-16.502 17.744-16.502 16.916-14.853 16.092-14.025 16.502-11.965 18.566-12.375 18.981-16.502 23.933-15.677 24.343-9.076 17.329-10.724 17.744-6.185 18.981-6.185 19.804-6.602 21.868-7.835 22.694-2.474 18.158-2.885 17.744-.823 18.981-.823 21.868-.823 23.933 .415 22.281 .827 19.804 2.067 18.566 3.719 21.453 4.128 23.518 4.538 24.754 6.605 19.804 7.015 15.677 11.144 15.266 15.267 14.444 20.219 15.266 23.105 17.744 26.409 21.453 30.121 27.229 31.769 32.183 28.883 35.485 27.234 37.133 23.932 36.308 20.628 35.485 16.917 31.77 14.855 28.472 14.855 21.453 15.681 23.518 24.757 27.229 23.932 24.754 21.873 25.993 17.332 30.12 17.332 33.01 17.742 34.249 20.628 33.831 23.105 33.01 26.409 30.12 28.056 27.229 28.056 22.694 28.056 19.804 23.932 19.804 19.806 19.804 14.855 23.933 11.554 28.472 11.144 35.07 10.32 40.023 16.092 40.434 21.873 40.434 29.709 32.595 34.661 25.171 34.248 19.395 34.248 14.444 32.596 10.315 29.709 .825 23.105-4.542 10.729-4.95-1.647V-5.773C-4.95-9.899-4.126-13.614-2.89-17.327 2.062-31.77 9.078-44.146 10.315-58.174" fill="#ffffff"/>
<path transform="matrix(2,0,0,-2,738.4638,577.6758)" d="M0 0C5.362 14.436-1.236 20.22 2.067 27.234-4.125 25.581-3.3 17.331-3.3 15.685-4.95 16.093-6.192 18.158-7.013 19.396-10.313 14.857-3.709 9.489-4.125 5.365-4.125 2.065-9.079 1.238-8.252 5.777-7.836 7.431-7.425 9.489-7.836 10.73-8.252 9.904-9.488 8.669-10.313 8.258-10.727 9.904-9.904 12.377-11.552 14.436-11.964 12.793-13.202 11.554-14.029 11.143-13.615 13.619-14.438 15.685-16.917 16.093-15.677 13.204-16.917 10.315-17.744 7.431-18.979 1.238-16.917-.411-16.09-4.538-15.677-9.484-21.454-9.484-21.044-4.538-21.044-2.473-19.392-.411-20.63 2.065-21.454 .827-22.279 .827-23.104-.411-23.104 .827-23.931 2.48-24.757 3.304-26.407 .827-25.583-3.3-25.169-5.776-25.991-4.946-27.234-4.538-28.465-4.538-26.407-6.604-24.342-10.724-24.757-15.265-25.583-20.216-28.886-22.28-32.598-23.107-28.886-20.216-28.057-18.157-28.465-15.265-29.294-16.504-30.117-17.735-31.773-18.565-29.711-14.854-30.117-12.788-30.946-11.55-32.598-15.677-37.961-18.157-40.435-21.454-44.562-25.577-44.971-29.707-47.86-33.416-52.813-39.196-59.004-41.669-63.541-51.984-66.018-51.161-68.904-49.1-70.556-47.861-71.38-50.335-72.206-53.639-74.677-56.115-76.746-55.288-80.046-53.224-80.871-51.984-82.523-56.935-85.825-62.3-90.361-63.538-94.901-62.3-98.611-56.935-99.85-51.984-100.677-53.224-103.977-55.288-106.452-56.115-108.517-53.639-109.342-50.335-110.579-47.861-111.815-49.1-114.706-51.161-117.179-51.984-121.719-41.669-128.319-39.196-132.856-33.416-136.156-29.707-136.57-25.577-140.287-21.454-142.763-18.157-148.125-15.677-149.775-11.55-150.6-12.788-151.012-14.854-148.952-18.565-151.012-17.735-151.427-16.504-152.249-15.265-152.665-18.157-151.84-20.216-148.125-23.107-152.249-22.28-155.139-20.216-155.965-15.265-156.379-10.724-154.315-6.604-152.249-4.538-153.494-4.538-154.725-4.946-155.552-5.776-155.139-3.3-154.315 .827-156.379 3.304-156.791 2.48-157.614 .827-157.614-.411-158.85 .827-159.679 .827-160.089 2.065-161.329-.411-160.089-2.473-159.679-4.538-159.268-9.484-165.454-9.484-164.627-4.538-163.802-.411-161.741 1.238-162.979 7.431-163.802 10.315-165.042 13.204-163.802 16.093-166.276 15.685-167.106 13.619-166.692 11.143-167.927 11.554-168.756 12.793-169.166 14.436-171.231 12.377-170.404 9.904-170.404 8.258-171.231 8.669-172.466 9.904-172.881 10.73-173.704 9.489-172.881 7.431-172.881 5.777-171.646 1.238-176.596 2.065-177.006 5.365-177.006 9.489-170.817 14.857-174.118 19.396-174.533 18.158-175.77 16.093-177.421 15.685-177.833 17.331-176.596 25.581-182.783 27.234-179.479 20.22-186.083 14.436-180.723 0-178.246-6.604-174.941-10.724-169.993-14.854-171.646-9.08-171.231 .415-167.927 4.954-169.581-.411-169.581-10.724-167.106-18.157-164.627-20.631-161.741-23.107-158.85-24.754-161.329-20.631-161.741-11.965-158.44-9.08-160.089-14.854-158.44-21.454-154.725-27.234-143.585-34.242-123.783-39.196-119.244-56.935-116.766-56.115-114.291-54.462-112.23-53.224-110.987-55.7-109.75-57.762-107.689-60.65-105.213-59.827-103.152-58.588-101.5-57.35-99.438-62.712-94.486-66.016-90.361-67.662-86.233-66.016-81.281-62.712-79.633-57.35-77.983-58.588-75.504-59.827-73.029-60.65-70.969-57.762-69.729-55.7-68.489-53.224-66.84-54.462-63.952-56.115-61.48-56.935-56.938-39.196-37.55-34.242-26.407-27.234-22.279-21.454-20.63-14.854-22.279-9.08-18.979-11.965-19.392-20.631-21.869-24.754-18.979-23.107-16.09-20.631-13.615-18.157-11.14-10.724-11.552-.411-12.789 4.954-9.488 .415-9.079-9.08-10.727-14.854-5.775-10.724-2.475-6.604 0 0" fill="#ffffff"/>
<path transform="matrix(2,0,0,-2,727.7374,463.794)" d="M0 0C-10.727-22.691 .413-37.544 .413-37.137 .413-34.245 .825-32.183 2.477-30.53-1.65-21.868 .413-13.202 3.3-6.188 1.238-4.539 0-3.715 0 0" fill="#ffffff"/>
<path transform="matrix(2,0,0,-2,742.5986,281.4248)" d="M0 0C3.294-3.713 4.946-10.313 4.946-16.094 4.538-22.277 2.469-27.643 0-30.942-1.652-32.596-3.304-33.831-4.954-33.831-4.13-33.004-2.067-30.533 0-27.227 1.233-24.342 2.469-20.631 2.469-16.502 2.886-11.552 2.061-6.6 0-2.889-1.244-.823-2.477 .827-4.542 2.477-2.894 2.065-1.244 1.24 0 0M7.836-17.74C9.485-18.563 9.896-22.277 10.312-25.169 11.137-29.708 10.312-34.245 9.075-38.783 7.425-44.148 4.121-47.444 0-50.748-.827-51.162-1.652-51.575-2.477-51.985-4.542-53.637-7.431-55.291-9.492-57.35-9.081-54.052-5.777-52.402-3.304-50.748-2.067-49.925-1.244-49.098 0-48.273 3.294-45.386 5.773-42.084 7.425-37.134 8.66-33.419 8.66-29.292 8.66-25.169 8.25-22.694 8.25-20.215 7.836-17.74M-18.571-14.025C-13.619-13.615-9.492-10.313-9.492-5.363-9.492-1.237-12.381 2.887-16.921 2.887-20.219 2.887-23.111 1.24-23.521-2.063-23.937-4.541-22.698-7.427-19.811-7.837-15.683-7.837-14.442-3.296-17.331-1.237-13.208-.412-11.146-9.488-18.571-10.313-21.871-10.313-25.586-8.252-25.998-4.541-26.825-1.237-25.171 2.065-21.871 3.714-17.331 6.6-11.146 4.952-7.431 1.24-4.954-2.063-4.13-4.95-4.954-9.902-5.777-14.025-9.904-18.154-14.442-18.563-13.208-20.631-11.146-21.041-8.259-21.45-9.492-23.102-11.971-24.342-13.619-24.754-11.971-25.992-8.666-25.992-7.431-25.992-7.842-28.054-12.381-27.643-11.556-33.004-9.492-31.771-8.666-31.354-7.431-31.354-7.018-35.893-14.031-34.245-13.619-40.846-8.666-41.671-8.666-37.544-6.192-37.134-6.192-39.194-6.605-40.021-7.431-41.671-5.367-41.671-3.719-41.261-3.304-39.609-2.067-38.371-2.067-35.893-.417-36.306H0C1.645-36.719 1.645-38.783 .41-40.435 .41-40.846 0-41.261 0-41.261-2.067-43.323-5.367-44.148-7.431-45.386-9.492-46.213-10.73-47.444-11.556-49.515-9.904-49.098-9.081-49.515-8.666-49.515-9.081-52.402-12.381-53.227-13.619-55.698-14.442-56.938-14.856-59.412-14.031-62.713-12.381-61.065-10.73-60.239-9.492-60.239-10.319-61.065-11.556-62.713-11.146-64.775-9.904-63.128-7.431-62.713-7.018-62.713-9.081-66.425-12.381-67.252-12.794-73.444-11.971-73.029-10.73-72.617-9.904-71.377-8.666-75.502-14.856-77.566-12.794-84.169-11.146-83.343-9.492-81.283-8.666-80.044-6.605-77.156-5.777-71.791-5.777-71.791-4.542-74.681-5.777-78.808-7.431-81.696-9.081-84.169-9.904-86.646-7.842-89.535-7.431-88.293-7.431-87.06-6.192-86.233-4.954-88.713-6.605-91.596-4.542-94.487-3.719-95.723-2.067-97.373 0-97.787H.819C.41-95.723 0-93.66 0-91.596-.417-89.12-.417-86.233 0-83.343 1.233-69.315 8.25-56.938 13.2-42.496 14.437-38.783 14.852-35.068 15.262-30.942V-26.816C14.852-14.44 9.485-1.65 0 4.541-4.13 7.427-9.081 9.079-14.856 9.079-22.285 9.492-30.125 4.541-30.125-3.296-30.125-9.077-25.171-14.849-18.571-14.025" fill="#ffffff"/>
<path transform="matrix(2,0,0,-2,731.8642,665.1446)" d="M0 0-4.125 4.127-5.363 2.889-1.65-1.238C-.825-2.065 .414-3.304-.41-4.127-1.65-5.365-2.892-4.127-3.713-3.304L-7.427 1.234-7.84 .823-9.075-.412V-.823L-7.84-2.065-5.363-4.95C-3.298-6.601-1.65-7.842 .414-5.777L.825-5.365C2.473-3.712 1.648-2.478 .825-1.238 .414-.823 0-.412 0 0" fill="#ffffff"/>
<path transform="matrix(2,0,0,-2,780.5488,582.621)" d="M0 0-2.063 1.234-3.302-.827 0-2.474 3.715-4.539 6.188-5.362 7.014-3.304 3.715-1.65Z" fill="#ffffff"/>
<path transform="matrix(2,0,0,-2,782.1992,606.5586)" d="M0 0-.825 .411-5.364 2.892-5.775 3.303C-5.775 3.718-5.364 4.126-5.364 4.541-4.949 4.957-4.539 4.957-3.712 4.957-3.302 4.957-2.475 4.541-1.648 4.126-1.237 3.718-1.237 3.718-.825 3.303-.412 3.303-.412 2.892 0 2.892 .825 2.068 .415 1.241 0 0M1.24 4.541C.825 5.361 .415 5.776-.412 6.191H-.825C-1.648 6.606-2.889 7.015-3.712 7.015-4.127 7.015-4.539 7.015-5.364 6.606-6.185 6.191-7.014 5.361-7.425 4.541L-8.664 2.477-5.364 .411-.825-2.063 .415-2.893 1.648-.412C2.475 .826 2.89 1.653 2.475 2.892 2.063 3.303 2.063 4.126 1.24 4.541" fill="#ffffff"/>
<path transform="matrix(2,0,0,-2,747.5372,650.291)" d="M0 0-1.236-1.242C0-2.474 0-3.3-.408-3.715-.825-4.127-1.236-4.538-1.65-4.127-2.469-4.127-2.886-3.715-4.121-2.889-4.946-1.65-5.773-.823-5.773-.411-6.188 0-5.773 .415-5.773 .823-4.946 1.65-4.121 1.238-2.886 .415L-1.65 2.065C-3.713 3.715-5.363 3.715-7.012 2.065-7.836 1.238-8.246 0-7.836-.823-7.836-1.65-7.423-2.474-7.012-2.889-6.6-3.3-6.188-3.715-5.773-4.538-4.537-5.361-3.296-6.192-2.06-6.192-1.236-6.192-.408-6.192 0-5.777 .417-5.361 .417-5.361 .825-4.953 1.652-4.127 1.652-3.3 1.652-2.474 1.652-1.65 1.244-.823 .417 0Z" fill="#ffffff"/>
<path transform="matrix(2,0,0,-2,754.9716,640.3828)" d="M0 0-.829 .823-2.892 3.296-.829 2.473 1.238 1.234ZM-.829 4.534-3.717 5.361V5.776L-5.367 3.711-3.717 1.646-.829-2.063 .825-4.954 2.473-3.304 .825-1.654 2.888 .823 4.539-.416 6.188 1.646 2.888 2.888Z" fill="#ffffff"/>
<path transform="matrix(2,0,0,-2,797.8798,567.7676)" d="M0 0C-1.652 .823-2.889-.415-4.125-1.242-4.539-2.062-4.95-2.062-4.95-2.474H-5.365C-6.192-2.889-6.6-2.062-6.6-1.242-6.192-.415-5.777-.415-4.95-.415H-4.539V1.646H-4.95C-6.6 1.646-7.425 1.235-8.252-.415-8.666-2.062-8.252-4.127-6.6-4.539-5.777-4.954-5.365-4.954-4.95-4.954-4.125-4.954-3.304-4.127-2.477-2.889-2.063-2.474-1.652-2.474-1.237-2.062 0-2.062 .414-2.889 0-3.716-.412-4.539-1.237-4.954-2.063-4.954L-2.477-7.02C-.412-7.02 .825-6.601 1.65-4.539 2.475-2.889 2.062-.827 0 0" fill="#ffffff"/>
<path transform="matrix(2,0,0,-2,761.5684,608.20498)" d="M0 0-.41-.823-1.235-1.65-.41-2.069 4.13-4.951-.41-4.127-2.473-3.716-4.127-5.774-.41-8.247 4.54-11.555 4.952-10.728 5.777-10.313 4.952-9.904-.41-6.189 4.952-7.016 7.427-7.431 8.667-5.774 4.952-3.716Z" fill="#ffffff"/>
<path transform="matrix(2,0,0,-2,713.7138,687.4218)" d="M0 0-.414-.415-.827-.827-4.954 4.12V4.538H-4.542C-4.129 5.361-3.302 5.361-2.479 4.946-2.063 4.538-1.654 4.12-.827 3.712-.414 2.889 0 2.474 0 1.649 .411 .823 .411 .411 0 0M1.235 4.538 .823 4.946C.823 5.361 .411 5.773 0 5.773-.414 6.188-.827 6.601-1.654 7.012-2.479 7.427-3.715 7.427-4.954 6.601-5.369 6.601-5.369 6.188-5.777 6.188L-6.19 5.773-7.842 4.538-6.19 2.474-4.954 .411-1.654-3.715 0-2.477 .823-2.062C.823-1.654 .823-1.654 1.235-1.654 2.471-.415 2.887 .823 2.062 2.889 2.062 3.297 1.648 4.12 1.235 4.538" fill="#ffffff"/>
<path transform="matrix(2,0,0,-2,702.1602,695.6836)" d="M0 0-.414-.407-2.892-2.473-4.542-.407-2.065 1.242-3.302 2.889-5.779 .827-7.017 2.889-3.717 5.365-4.952 6.604-9.905 2.889-3.717-5.361-.414-2.885 .823-1.646H1.234L.823-1.23Z" fill="#ffffff"/>
<path transform="matrix(2,0,0,-2,361.3438,626.3614)" d="M0 0 1.24-1.649 2.89-.411-.412 3.712-1.242 4.951-2.888 3.712-1.65 2.063-6.19-1.234-8.665-2.892-7.428-4.949-6.19-4.123-.412 0Z" fill="#ffffff"/>
<path transform="matrix(2,0,0,-2,392.7012,673.39846)" d="M0 0-.413-.823-2.06 .823 0 2.062 1.65 3.304ZM4.537 3.715 3.301 4.95 2.477 5.361 0 4.127-2.06 2.889-7.013 0-5.365-1.65-3.715-.411-2.06-1.65-1.236-2.474-2.06-3.3-2.473-4.538-2.06-4.95-.823-6.188 0-4.95 3.301 2.062Z" fill="#ffffff"/>
<path transform="matrix(2,0,0,-2,367.9444,643.6914)" d="M0 0-.823 .823 .829 2.062 1.65 2.478 2.063 2.062C2.887 1.238 2.887 .415 2.063 0 1.65-.408 1.239-.826 .829-.826 .414-.826 .414-.408 0 0M2.887-2.477 3.304-2.062C5.365-.408 4.952 1.238 3.715 2.889L2.887 3.716 1.65 5.365 .829 4.95-3.712 1.238-6.602-1.234-5.36-3.3-3.712-1.649-2.06-.408-1.235-1.234-3.712-4.95-2.06-7.015 .414-2.477 .829-2.885C1.65-2.885 2.063-2.885 2.887-2.477" fill="#ffffff"/>
<path transform="matrix(2,0,0,-2,335.7598,590.0528)" d="M0 0 1.237 .831 1.654 0C2.063-.823 1.654-1.646 .823-2.062H0C-.413-2.477-.823-2.062-1.237-1.238L-1.648-.823ZM-2.888-2.477C-2.063-3.712-1.237-4.535 0-4.535 .412-4.535 1.237-4.535 2.063-4.127 4.127-2.892 4.127-1.238 2.889 .831L1.654 3.716 0 2.889-7.84-1.238-6.604-3.296-3.3-1.646Z" fill="#ffffff"/>
<path transform="matrix(2,0,0,-2,341.5372,614.80667)" d="M0 0-.825 1.65 1.238 2.478 3.304 3.301 1.238 1.231ZM3.713 .83 6.19 3.301 4.54 5.365 3.713 4.95 1.238 4.535-2.889 3.301-6.189 2.478-4.952 .408-2.889 1.231-1.235-1.238-2.889-2.889-1.235-4.946 1.238-2.065Z" fill="#ffffff"/>
<path transform="matrix(2,0,0,-2,388.582,652.7754)" d="M0 0-1.655 1.657-7.432-4.119-9.49-5.77-7.842-7.423H-7.432L0-.408Z" fill="#ffffff"/>
<path transform="matrix(2,0,0,-2,399.3028,688.252)" d="M0 0-.824-1.239 0-2.062 4.126-5.362 5.363-3.716 2.061-1.239 3.711 .826 6.19-1.239 7.427 0 4.954 2.064 6.602 4.127 9.902 1.649 10.73 2.889 5.778 7.016Z" fill="#ffffff"/>
<path transform="matrix(2,0,0,-2,533.8096,767.4688)" d="M0 0 2.477-.415 3.302 10.313 1.242 10.728Z" fill="#ffffff"/>
<path transform="matrix(2,0,0,-2,445.5176,732.8144)" d="M0 0C-.412-1.238-.829-2.064-1.652-2.473-2.065-2.473-2.889-2.888-3.715-2.473L-1.652 2.889-.829 4.131C1.24 3.304 1.24 2.065 0 0M0 5.777-1.652 6.607H-2.065L-6.602-2.888-4.127-4.123C-3.302-4.538-2.479-4.538-1.652-4.538 .414-4.538 1.648-2.888 2.473-1.238 3.71 2.065 3.3 4.131 0 5.777" fill="#ffffff"/>
<path transform="matrix(2,0,0,-2,483.4716,735.291)" d="M0 0C-2.887 .823-4.537-1.649-5.36-4.123-6.187-6.604-6.187-9.903-3.302-10.724-.823-11.142 .825-9.903 1.652-7.835L-.412-7.012C-.823-8.662-1.646-9.077-2.471-8.662-4.125-8.25-3.302-6.188-2.887-4.95-2.887-4.123-2.06-1.649-.412-2.062 .413-2.062 .825-3.3 .413-4.538L2.477-4.95C2.892-2.473 2.067-.826 0 0" fill="#ffffff"/>
<path transform="matrix(2,0,0,-2,470.2714,735.291)" d="M0 0 .823 1.65-5.365 3.719-9.077-6.188-2.887-8.25-2.474-6.604-6.19-5.361-5.365-2.885-2.474-3.715-1.653-2.062-4.539-.826-3.712 1.238Z" fill="#ffffff"/>
<path transform="matrix(2,0,0,-2,503.2792,751.791)" d="M0 0C0-.827-.412-2.474-1.652-3.3H-2.477C-3.713-2.892-3.302-.412-2.887 .415-2.887 1.238-2.477 3.3-1.652 3.712H-.827C.827 3.3 .414 .823 0 0M-.412 5.777H-1.652C-3.302 5.777-4.537 4.127-5.365 1.238-5.775-1.242-5.775-4.542-2.887-4.95-2.477-5.365-2.062-5.365-1.652-5.365 .414-4.95 1.652-3.715 2.473-.412 2.887 2.062 2.473 4.95-.412 5.777" fill="#ffffff"/>
<path transform="matrix(2,0,0,-2,521.4296,754.2754)" d="M0 0V.415H-1.233L-.825 3.304H0C1.242 2.889 1.652 2.48 1.652 1.657 1.242 .83 .828 0 0 0M.417 4.954H0L-2.887 5.369-4.535-5.361H-2.062L-1.233-1.231-.408-1.649 0-3.708 .417-5.776 2.892-6.185 1.652-1.231C2.892-.823 3.715 0 3.715 1.242 4.13 3.716 2.48 4.542 .417 4.954" fill="#ffffff"/>
<path transform="matrix(2,0,0,-2,634.4912,753.44546)" d="M0 0H-.414L-1.242-.415-2.064 2.474-.827 2.889H-.414C.411 2.889 .825 2.889 .825 2.065 1.236 1.242 .825 .415 0 0M-3.302 6.604-2.477 7.016C-1.65 7.016-.827 7.016-.414 6.192V5.777 5.362C-.414 4.954-1.242 4.539-1.65 4.539L-2.477 4.127ZM.825 4.539C1.648 4.954 2.06 5.777 1.648 7.016 1.236 8.251 .411 9.077-.414 9.077-1.242 9.077-1.65 9.077-2.477 8.666L-5.779 7.843-2.889-2.473-.414-2.064 .825-1.646C2.475-.826 4.126 0 3.302 2.474 2.885 3.716 2.06 4.127 .825 4.539" fill="#ffffff"/>
<path transform="matrix(2,0,0,-2,672.4522,728.6836)" d="M0 0C-.827 0-2.069-.415-2.477 .415-2.477 1.238-2.477 1.65-1.654 2.065-1.242 2.065-.417 2.065 0 1.238L1.65 2.889C.408 4.123-.827 4.542-2.477 3.712-3.715 3.297-4.129 2.474-4.544 1.65-4.956 0-4.129-2.065-2.477-2.48H0C.825-2.48 1.65-2.48 2.06-2.889 2.473-3.715 1.65-4.538 1.233-4.538 .408-4.953-.417-4.953-1.242-3.715L-2.477-5.365C-1.242-7.019 .825-7.427 2.473-6.188 4.12-4.953 4.541-3.304 4.12-1.653 3.295 0 1.65 0 0 0" fill="#ffffff"/>
<path transform="matrix(2,0,0,-2,611.3828,741.0606)" d="M0 0 2.477-10.315 4.952-9.907 2.477 .823Z" fill="#ffffff"/>
<path transform="matrix(2,0,0,-2,655.9444,727.03726)" d="M0 0-2.065-.408 .414-6.188C.414-7.012 .825-7.842 .825-7.842 .825-8.665 .414-9.077 0-9.488-.823-9.903-1.238-9.488-1.65-9.077-2.065-8.665-2.065-8.25-2.477-7.427L-4.539-1.65-7.015-2.477-4.539-8.25C-4.126-9.488-3.711-10.315-3.302-10.73-2.477-11.962-.823-11.962 .414-11.554 1.648-10.73 2.889-9.903 2.889-8.25 2.889-7.427 2.473-6.6 2.065-5.361Z" fill="#ffffff"/>
<path transform="matrix(2,0,0,-2,602.3028,759.2208)" d="M0 0-2.889 7.842-5.362 7.427-.823-2.889 1.652-2.478 2.48 8.665 .413 8.25Z" fill="#ffffff"/>
<path transform="matrix(2,0,0,-2,582.498,746.0136)" d="M0 0 1.237-10.728 3.712-10.315 2.479 .411Z" fill="#ffffff"/>
<path transform="matrix(2,0,0,-2,570.122,750.961)" d="M0 0C.825 .408 1.238-.415 1.648-2.068L3.715-1.657C3.3 .823 2.061 2.059-.414 2.059-1.654 2.059-2.477 1.231-3.302 .408-3.714-.415-4.127-2.068-4.127-3.715-3.714-5.365-3.302-6.607-2.477-7.842-2.062-8.669-.827-9.084 .413-9.084 1.648-8.669 2.473-8.254 2.89-7.842 3.715-7.019 3.715-5.78 3.715-4.957H1.648C1.648-6.195 1.238-7.019 .413-7.019 0-7.019-.414-7.019-.827-6.195-1.237-5.78-1.237-4.957-1.654-3.715-1.654-2.068-1.654-1.242-1.237-.827-.827 0-.827 0 0 0" fill="#ffffff"/>
<path transform="matrix(2,0,0,-2,801.1796,596.6446)" d="M0 0C-11.965-25.173-30.942-46.631-54.877-61.065L-59.415-52.404H-73.441L-80.869-51.992C-78.395-51.166-75.919-49.927-73.441-49.104-57.349-41.677-44.56-30.95-34.244-18.158-22.69-3.716-14.029 13.611-7.842 32.592-4.954 28.465-2.887 24.342-.825 20.215 2.887 22.277 6.6 24.75 9.904 27.228 7.427 17.742 4.125 8.665 0 0M-82.52-54.881H-73.441-64.364C-67.254-56.116-70.552-57.354-73.441-58.593-75.919-59.419-77.982-60.657-80.459-61.478ZM-51.988-71.385C-58.999-75.512-66.018-78.815-73.441-81.696-88.708-87.478-105.213-89.946-121.719-89.946-140.7-89.946-159.677-86.65-177.008-78.815-181.958-76.75-186.91-74.273-191.447-71.385-188.558-66.02-186.083-61.065-183.198-55.708-181.133-56.946-179.071-57.77-177.008-58.593-141.937-73.446-108.514-74.273-73.441-61.478-68.908-59.831-64.781-57.77-60.244-55.708-57.765-61.065-54.877-66.02-51.988-71.385M-161.325-54.881-162.979-61.478C-167.514-59.831-172.471-57.77-177.008-55.708-177.831-55.293-178.243-55.293-179.071-54.881H-177.008ZM-207.954-47.043C-222.806-33.835-234.773-18.158-243.435 0-247.559 8.665-250.862 17.742-253.75 27.228-250.041 24.75-246.324 22.277-242.61 20.215-240.55 24.342-238.483 28.465-236.01 32.592-229.406 13.611-221.16-3.716-209.191-18.158L-207.954-19.808C-199.285-30.123-189.387-38.788-177.008-45.389-172.471-47.865-167.514-50.343-162.564-51.992L-177.008-52.404H-184.433L-188.972-61.065C-195.575-56.946-202.175-51.992-207.954-47.043M.412 23.92C-2.062 28.881-4.954 33.419-8.665 37.958-14.854 18.558-23.104-.416-36.308-16.508-46.622-29.297-58.999-39.2-73.441-45.804-77.567-47.865-81.696-49.52-85.821-51.166-84.995-54.881-84.171-58.593-82.933-61.896-106.862-70.149-136.571-70.149-160.5-61.896-159.677-58.593-158.441-54.881-157.614-51.166-164.214-48.692-170.819-45.804-177.008-42.5-188.558-35.9-198.464-27.234-207.127-16.508L-207.954-15.685C-220.745 .404-228.583 18.974-235.185 37.958-238.483 33.419-241.375 28.881-243.852 23.92-248.802 27.228-253.339 30.115-257.877 33.419-254.989 21.45-251.274 9.899-245.914-1.239-236.837-20.223-224.044-36.728-207.954-50.343-202.589-54.881-196.4-59.419-190.208-63.131-191.862-66.435-193.925-70.558-195.16-72.208-189.387-76.335-183.198-79.227-177.008-82.115-159.677-89.131-139.875-92.427-121.719-92.427-106.035-92.427-89.123-89.946-73.441-84.592-64.364-81.288-56.115-77.573-48.687-72.208-49.51-70.558-51.988-66.435-53.637-63.131-28.881-48.692-9.902-26.823 2.062-1.239 7.427 9.899 11.14 21.45 14.029 33.419 9.49 30.115 4.95 27.228 .412 23.92" fill="#ffffff"/>
<path transform="matrix(2,0,0,-2,479.3516,259.9668)" d="M0 0C1.237 .823 5.362 .823 8.662 .823 7.837 2.06 6.188 3.303 4.952 3.303 5.773 4.128 8.662 4.128 11.137 3.713 10.729 5.365 9.487 6.599 8.662 6.599 9.487 7.017 11.964 7.425 15.679 6.599 15.266 7.425 14.027 8.667 13.204 9.494 13.616 9.9 16.504 10.729 17.741 11.142 16.917 11.552 16.917 12.381 16.917 12.789 9.487 11.142-1.242 1.65-5.367-4.537-2.477-2.889 2.06-2.475 4.952-2.065 3.3-.825 2.473-.412 0 0" fill="#ffffff"/>
<path transform="matrix(2,0,0,-2,605.6064,246.76959)" d="M0 0C3.3 .827 6.192 .418 7.017 0 5.777 0 4.54-1.233 4.123-2.885 6.602-2.47 9.49-2.47 10.727-3.295 9.49-3.295 7.425-4.539 7.017-5.776 9.904-5.776 14.029-5.776 15.267-6.599 12.792-7.01 11.965-7.424 10.727-8.664 13.2-9.074 17.744-9.487 20.63-11.135 16.917-4.949 6.192 4.543-1.652 6.19-1.652 5.782-1.652 4.954-2.475 4.543-.825 4.13 2.063 3.302 2.477 2.895 1.236 2.068 0 .827 0 0" fill="#ffffff"/>
<path transform="matrix(2,0,0,-2,624.587,291.32423)" d="M0 0C2.063-6.602 9.902-7.426 15.679-6.602 20.217-6.189 24.757-4.952 27.645-3.302 26.821-1.239 26.821 .409 26.821 2.061 24.341 0 19.804-1.65 15.264-2.477 9.902-3.714 4.539-2.887 2.888 1.236 2.063 3.3 3.302 5.363 4.952 6.604 6.188 7.427 7.837 7.427 9.488 6.604 11.967 4.95 10.729 1.653 9.079 2.475 9.902 4.95 7.427 5.777 6.188 5.363 5.363 4.95 4.952 3.713 4.952 2.886 4.952 .409 7.012-.825 9.079-.825 11.967-1.239 14.44 1.236 14.029 4.95 13.614 8.251 10.314 9.902 7.427 9.902 2.063 9.902-1.65 5.363 0 0" fill="#ffffff"/>
<path transform="matrix(2,0,0,-2,459.541,304.52839)" d="M0 0C6.188-.824 14.032 0 15.679 6.602 17.332 11.965 13.617 16.504 8.664 16.504 5.365 16.504 2.479 14.854 1.653 11.552 1.238 7.838 3.712 5.363 6.605 5.777 8.664 5.777 10.73 7.011 10.73 9.488 11.142 10.315 10.73 11.552 9.905 11.965 8.255 12.379 5.778 11.552 7.015 9.077 5.365 8.255 3.712 11.552 6.188 13.206 7.84 14.029 9.905 14.029 11.142 13.206 12.791 11.965 13.617 9.902 12.791 7.838 11.142 3.715 5.778 2.888 .414 4.125-4.124 4.952-8.664 6.602-11.139 8.663-10.727 7.011-11.139 5.363-11.966 3.3-9.077 1.65-4.124 .413 0 0" fill="#ffffff"/>
<path transform="matrix(2,0,0,-2,520.6132,237.68262)" d="M0 0C1.236 0 2.473 1.239 2.473 2.473 2.473 4.125 1.236 5.362 0 5.362-1.237 5.362-2.062 4.125-2.062 2.473-2.062 1.239-1.237 0 0 0" fill="#ffffff"/>
<path transform="matrix(2,0,0,-2,594.8828,237.68262)" d="M0 0C1.235 0 2.477 1.239 2.477 2.473 2.477 4.125 1.235 5.362 0 5.362-1.239 5.362-2.065 4.125-2.065 2.473-2.065 1.239-1.239 0 0 0" fill="#ffffff"/>
<path transform="matrix(2,0,0,-2,535.4638,227.78223)" d="M0 0C5.363 2.887 16.916 2.887 22.279 0 23.933-.414 25.579-1.233 28.058 1.237 18.977 5.775 3.711 5.775-5.365 1.237-3.302-1.233-1.652-.414 0 0" fill="#ffffff"/>
<path transform="matrix(2,0,0,-2,514.003,440.69044)" d="M0 0C-.822-4.123 2.48-5.363 5.778-4.123 7.844-3.296 9.492-1.65 11.967-1.237H13.206C13.619-1.65 14.034-1.65 14.442-1.65 15.269-1.65 15.682-2.063 16.505-2.477 16.094-1.237 15.269-.412 14.442 0 13.619 .413 12.792 .413 11.967 .413H11.146C9.079 0 6.605-1.237 5.365-1.65 3.713-2.063 1.244-1.65 0 0" fill="#ffffff"/>
<path transform="matrix(2,0,0,-2,554.4482,492.6788)" d="M0 0C.819 .827 1.235 1.653 1.646 3.302 2.888 2.063 3.71 2.063 4.535 .412 4.535 .412 5.36 1.653 5.775 2.89 6.183 3.715 6.6 4.956 6.6 5.781 9.075 4.539 9.075 3.302 10.31 2.063 11.552 3.302 11.962 5.361 11.137 7.432 11.962 7.432 12.787 7.015 13.2 6.607 14.44 5.781 15.262 4.956 15.677 4.539 16.503 7.84 14.025 8.254 13.2 10.319V10.727C14.852 9.494 16.087 8.667 17.737 8.667 15.677 11.14 15.677 13.208 14.44 14.855 14.025 14.442 13.614 14.442 13.2 14.031 12.787 13.208 12.375 12.379 11.962 10.727 11.137 11.967 11.137 12.794 9.075 13.616 9.485 12.379 9.898 10.727 8.25 7.84 7.423 8.667 6.6 9.079 5.775 9.904 5.36 9.904 4.535 10.319 4.535 10.319 4.948 8.667 4.535 6.607 3.71 4.539 2.473 5.781 .408 6.607-1.24 6.607-.825 5.781-.417 4.129-2.069 2.475-.825 1.653-.417 .827 0 0" fill="#ffffff"/>
<path transform="matrix(2,0,0,-2,565.998,423.35939)" d="M0 0C.408 .413 1.235 .827 1.235 1.652H0-1.24C-1.24 1.238-.827 .413 0 0" fill="#ffffff"/>
<path transform="matrix(2,0,0,-2,580.8486,429.13679)" d="M0 0H.414C1.652-.41 2.477-.41 4.13 .827 2.477 .827 1.24 2.065 0 2.889H-.414C-1.238 3.302-2.474 2.889-3.715 1.652-2.063 1.239-.825 .412 0 0" fill="#ffffff"/>
<path transform="matrix(2,0,0,-2,552.7978,428.31263)" d="M0 0C-.415 .415-.827 .415-1.244 .827-1.653 1.24-2.068 1.24-2.068 1.653-2.477 1.24-2.477 .827-2.477 .415-2.477 .415-1.653 .415-1.244 0Z" fill="#ffffff"/>
<path transform="matrix(2,0,0,-2,545.3672,427.4834)" d="M0 0C0 .825 0 2.062 .412 2.475-.413 2.889-.413 3.714 0 4.541 .823 3.714 1.647 2.889 2.472 2.062 3.3 1.239 4.124 .412 5.36 0 6.187-.415 5.36-1.651 4.541-1.651 4.124-1.236 3.3-1.236 2.472-1.236 1.239-1.236-.413-1.236-1.24-1.651-1.24-.827-.825-.415 0 0M10.315 4.95H12.377C13.202 2.889 11.141 2.062 10.315 .412 9.076 1.239 7.429 3.3 7.837 4.95ZM-5.779-3.717C-5.362-3.302-4.537-3.302-3.715-3.302H-1.24C.412-3.717 1.647-4.952 2.472-6.19 2.889-7.015 2.889-8.253 2.472-9.08 2.472-9.49 2.062-9.9 1.647-10.313 1.239-11.14 0-11.14-1.24-11.14-2.063-11.14-2.89-10.727-3.715-10.727-4.952-10.313-5.779-9.9-6.19-9.49-7.015-11.967-6.604-14.03-3.715-14.442H-3.302C-2.477-14.442-1.648-14.03-1.24-13.617-.825-13.204-.413-13.204 .823-12.794 1.239-12.794 2.062-13.204 2.472-13.204 2.889-13.617 3.3-13.617 3.715-14.03 3.3-11.552 4.949-9.49 5.775-8.667 6.187-8.667 7.014-9.49 7.429-9.9 7.837-7.84 8.664-6.19 9.076-5.363 9.489-5.778 9.9-6.19 10.315-6.604 10.724-7.015 11.141-7.427 11.55-7.84 12.377-5.778 11.55-5.363 12.791-3.302 12.791-3.717 13.616-5.778 15.677-6.604 16.092-5.363 16.502-4.537 16.502-3.302 16.502-3.302 16.916-4.126 17.741-4.537 19.393-5.363 21.454-6.19 23.106-4.126 21.454-4.126 19.393-3.302 17.741-2.473 16.916-1.651 16.092-1.236 15.677-.827 15.267-1.651 15.267-2.473 14.438-2.888 14.438-2.888 14.851-1.651 13.616-.415 12.377-.827 12.377-2.473 10.315-3.302H9.9C10.315-3.302 10.315-3.302 10.315-2.888 11.141-2.063 11.55 .412 13.616 1.239 14.851 2.889 14.851 4.95 13.202 6.187 12.377 7.012 11.141 7.012 10.315 7.012 9.076 6.604 8.25 6.187 7.014 5.777 5.775 6.604 4.124 6.604 2.472 6.187 1.239 5.777 0 5.364-1.24 4.95H-1.648C-2.477 4.95-3.302 4.541-3.715 4.541-4.952 4.541-6.19 4.125-7.429 3.714-9.904 1.652-8.665 1.239-7.429-.827-6.604-2.063-6.604-2.063-5.779-3.717" fill="#ffffff"/>
<path transform="matrix(2,0,0,-2,580.8486,439.03999)" d="M0 0C0 .415-.414 .415-.414 .415-.414-.412-.825-1.237-1.648-2.475-3.302-1.648-4.125-.825-4.95 .415-4.95-2.062-6.6-4.535-6.6-4.535-7.017-4.122-7.017-3.302-7.425-2.889-7.84-2.475-8.252-2.475-8.252-2.062-9.49-3.712-9.904-4.948-10.727-7.839-10.727-6.188-11.139-4.948-11.965-4.535-12.792-5.773-13.2-7.425-12.381-9.906-13.2-9.485-14.025-9.485-14.852-9.077L-15.269-9.485C-16.917-10.312-18.154-12.377-18.154-12.377-18.566-11.137-18.566-9.906-16.917-8.664-17.741-8.664-18.566-9.077-18.981-9.077-19.804-9.485-20.217-9.906-20.631-10.312-21.456-11.964-21.456-13.204-21.456-15.679-20.631-15.266-19.804-14.853-18.981-14.44-17.741-13.612-16.502-12.377-16.094-11.552-16.094-11.552-15.679-14.025-16.094-15.679-16.094-16.916-16.094-18.152-15.269-19.804V-19.387C-14.852-15.679-12.792-13.612-14.852-11.137-14.852-11.137-11.139-11.964-9.49-11.552-9.904-8.252-7.84-5.773-7.84-5.773L-7.425-6.188C-5.777-7.425-6.19-7.425-5.363-7.839-4.95-4.948-4.125-4.948-3.715-2.889-2.474-4.122-1.238-5.362 0-6.188-.825-7.016-2.474-5.773-3.302-5.362-3.302-6.188-4.125-7.425-3.715-9.077-5.363-9.485-6.19-8.664-7.425-7.839H-7.84C-8.252-9.485-7.84-10.727-7.425-12.789-9.077-12.789-10.727-13.204-12.381-12.789-10.727-16.092-13.617-16.916-14.025-18.979-12.792-18.979-11.139-19.387-10.312-20.212-9.49-18.152-9.904-16.5-10.312-14.853-9.077-14.853-8.252-15.266-7.425-15.679-6.6-16.092-6.19-16.092-5.363-16.916-4.539-14.853-4.95-12.789-5.777-10.727-3.302-11.552-2.474-11.964-1.238-14.025 .825-10.727-2.89-10.312-1.648-7.425-1.238-8.664-.825-9.485 0-10.312 .414-10.312 .825-10.312 .825-10.727 2.887-7.425 .825-5.362 .825-3.302 2.887-4.948 3.303-7.016 2.887-9.485 3.713-10.312 6.19-10.727 7.838-10.312 6.19-8.664 5.778-7.425 4.537-4.535 3.303-2.062 2.062-.825 0 0" fill="#ffffff"/>
<path transform="matrix(2,0,0,-2,542.0712,481.1172)" d="M0 0C0-.825-.415-1.652-.829-2.065H.408C1.648-2.065 2.471-2.479 3.71-2.891 2.471-2.065 1.235-1.242 .408-.419Z" fill="#ffffff"/>
<path transform="matrix(2,0,0,-2,529.6904,465.4472)" d="M0 0C-1.238 0-2.065 0-2.889 1.24-4.539-1.237-1.65-4.122 .823-2.476 .823-4.537 0-5.775-.415-6.601 1.235-7.009 2.477-6.184 2.887-4.949 3.71-5.362 3.71-6.184 4.124-7.009 4.124-7.835 4.124-8.66 4.537-9.487 5.775-8.254 5.775-7.009 6.19-4.949 6.19-4.949 6.19-5.362 6.598-5.362 7.425-7.426 8.662-7.835 9.9-9.077 9.9-7.426 9.077-6.601 8.662-5.362 8.25-3.712 8.662-2.476 8.662-.822 7.838-1.649 7.425-2.476 6.598-2.889 5.775-3.297 4.948-3.297 4.124-3.712H2.887C3.71-1.237 2.887-.822 3.302 1.652 2.06 .415 1.235 0 0 0" fill="#ffffff"/>
<path transform="matrix(2,0,0,-2,567.6484,565.2968)" d="M0 0C1.237 1.652 1.65 3.715 1.65 5.776 .823 6.604 0 7.015-.825 7.43-.417 4.953-2.065 2.479 0 0" fill="#ffffff"/>
<path transform="matrix(2,0,0,-2,594.8828,483.60163)" d="M0 0C-.827-1.648 0-4.127-.827-6.187 .821-5.363 1.648-4.127 1.648-3.298 .821-1.648 .41-1.237 0 0" fill="#ffffff"/>
<path transform="matrix(2,0,0,-2,594.8828,479.46479)" d="M0 0C1.235-3.717 4.95-6.195 2.887-11.147 6.19-10.32 6.19-6.607 4.95-4.543 3.71-2.068 2.477-.417 2.062 1.233 2.062 2.887 2.477 6.187 4.123 7.424 3.302 5.772 2.887 3.297 3.302 1.647 3.71 0 4.537-1.651 5.773-3.305 7.014-4.543 8.25-5.367 7.838-7.019 9.485-4.954 8.662-2.892 7.014 0 9.485-2.478 10.31-2.892 10.31-6.195 12.787-3.717 11.554-1.246 9.902 .408 9.485 .408 9.485 .825 9.077 1.233 7.425 2.472 6.19 2.472 7.014 6.187 7.425 4.947 7.838 3.712 8.25 3.297 9.485 2.06 11.554 2.472 12.378 3.712 11.139 3.712 10.31 4.533 9.902 5.772 7.838 11.135 17.74 12.374 18.154 4.947 18.562 .408 14.44-4.132 13.202-6.607 11.554-9.082 10.727-11.556 11.139-14.855 11.554-17.744 13.202-21.463 14.44-23.939 15.675-28.06 19.804-39.616 11.963-40.032 7.425-40.437 6.19-35.901 4.537-31.774 2.887-27.651 .41-25.582-1.652-22.694-4.541-18.574-6.192-13.209-5.365-8.668-4.956-5.78-4.541-3.717-7.431-1.246-7.842-3.717-8.255-4.954-10.319-6.607-11.142-4.954-11.967-4.132-12.794-3.305-13.208-5.367-13.617-6.195-16.094-9.494-16.921-7.842-17.744-6.607-18.156-6.195-18.571-7.432-19.809-9.082-21.458-9.494-21.458-7.019-21.869-5.78-23.935-4.954-31.773-4.132-37.135-7.432-44.15-7.842-50.339-8.255-54.465-7.019-57.766-2.068-59.831 .408-63.132 1.233-64.366-2.478-61.893-2.068-59.831-2.892-59.831-5.367-61.482-3.305-65.192-2.068-66.018-5.78-63.959-4.954-60.242-6.607-59.831-9.494-61.482-7.842-63.132-6.607-64.366-7.019-65.192-7.019-66.018-7.432-66.844-8.255-65.192-8.668-65.192-9.905-64.366-10.729-63.132-12.382-61.065-12.794-59.007-11.967-58.177-11.147-56.94-10.32-55.706-10.32-54.465-10.32-53.639-11.556-54.88-12.382-55.706-12.794-56.94-12.794-58.177-12.794-57.352-14.855-53.639-16.506-51.992-14.032-47.037-15.686-41.675-16.506-37.959-16.098-36.727-18.159-36.31-19.81-37.135-21.871-35.898-21.463-35.485-20.632-34.662-18.986-34.247-21.044-33.011-21.463-32.187-21.871-32.596-18.574-32.187-17.744-31.361-15.686-30.948-18.159-30.537-19.401-29.294-20.632-28.886-18.574-28.473-16.921-26.821-15.686-26.821-17.744-26.821-18.986-25.998-21.463-25.583-20.221-23.935-18.159-22.696-17.329-23.111-23.524-20.634-25.582-15.682-28.886-10.732-33.013-10.732-33.421-11.142-39.201-11.142-42.09-11.967-43.328-12.794-44.151-15.269-45.802-15.682-47.455-14.857-50.344-14.034-51.994-12.38-54.052-13.617-56.117-11.967-56.117-10.732-54.052-9.907-52.816-9.907-55.294-9.491-56.532-8.666-57.771-8.666-55.709-7.431-54.463-6.192-53.644-6.192-53.644-5.777-56.532-3.714-58.59-2.887-56.94-2.065-56.117-.827-55.709-.415-57.355 .41-58.186 1.648-59.006 0-64.782 2.477-71.386 3.71-73.032 2.477-74.683 .821-72.617-.415-71.386-2.065-70.56-4.13-70.145-5.777-71.386-7.017-72.617-7.842-75.098-5.365-76.34-5.365-73.859-3.714-73.032-2.48-73.448-4.541-74.683-4.956-77.163-2.48-78.397-2.065-77.163-2.065-74.274 .41-75.098-.827-75.513-1.239-77.571-.827-78.813 1.235-79.225 6.19-78.397 9.077-75.513 9.485-72.617 9.077-70.145 8.662-68.909 9.077-68.909 10.31-69.321 10.727-69.736 10.31-67.671 8.662-66.021 7.425-65.609 8.662-65.193 10.727-66.439 10.727-66.439 10.31-63.959 8.25-62.721 7.425-61.894 8.25-62.306 11.139-62.721 11.963-61.07 10.31-61.07 9.077-60.655 8.662-59.421 9.485-59.006 10.727-58.186 11.139-56.94 10.31-57.355 9.902-56.94 9.077-56.94 10.727-51.994 7.425-50.752 4.95-49.925 1.648-49.105-1.652-46.625-1.239-43.328-.827-43.74 .41-45.394 2.477-44.566-.827-37.963 2.062-37.552 2.887-32.598 3.71-33.421 2.887-37.552 2.887-37.963 4.537-40.848 8.25-42.505 11.554-42.916 18.977-42.09 18.977-35.486 18.154-30.532 17.74-27.236 17.74-23.524 18.977-21.463 17.74-21.044 16.502-23.112 16.502-23.112 15.675-19.81 18.562-18.574 18.154-15.271 17.74-16.506 16.089-16.921 15.266-17.329 15.266-16.098 18.977-14.032 18.977-11.147 17.74-12.382 16.916-11.967 15.675-12.794 17.327-11.147 19.391-9.082 18.562-5.78 17.74-7.842 16.089-7.842 14.44-10.32 14.852-6.195 20.215-.826 20.215 4.947 20.215 7.424 19.391 9.485 17.74 10.727 14.025 14.024 8.662 13.612 4.537 11.135 .821 9.076-1.652 4.12 0 0" fill="#ffffff"/>
<path transform="matrix(2,0,0,-2,565.168,566.94546)" d="M0 0C-2.887 3.708 .823 7.839-.825 9.9 .823 9.9 2.063 8.666 2.477 8.254 2.89 11.143-.825 12.378-1.65 12.793-5.777 7.428-10.726 6.601-15.679 4.539-20.627 2.893-18.154-3.3-23.102-4.95-21.452-5.365-20.217-5.365-17.329-4.95-19.389-6.604-20.627-6.185-21.869-9.076-20.627-8.665-19.389-8.665-18.154-8.665-18.154-9.076-19.389-10.312-20.217-11.969-18.977-11.969-17.739-11.969-16.09-10.723-15.679-12.377-18.565-12.377-17.739-16.089-16.916-14.445-15.262-14.03-14.029-14.03-14.852-14.445-15.679-15.266-15.679-16.915-14.852-16.504-13.202-16.089-12.377-16.504-14.437-17.738-15.262-18.153-16.504-19.396-19.804-22.28-16.504-27.234-20.217-27.646-22.277-28.061-23.102-26.404-25.583-25.996-30.118-24.757-31.771-30.119-28.881-31.357-28.881-29.708-27.229-28.877-25.583-29.292-26.818-29.708-29.704-32.185-26.404-33.831-25.167-31.772-23.931-31.772-22.277-31.772-24.756-33.008-25.991-34.657-23.102-36.312-20.627-32.6-15.679-33.831-13.202-33.008-12.791-32.185-11.963-29.292-12.791-25.996-11.963-26.819-11.141-27.234-10.313-27.646-10.726-26.819-10.726-25.169-10.313-24.757-9.9-25.581-9.077-25.996-7.838-26.404-8.253-24.346-8.253-22.699-7.838-21.042-7.012-22.28-6.6-22.699-5.36-22.699-6.185-21.042-4.952-19.807-4.952-18.565-4.952-14.03-9.489-11.969-4.541-7.838-5.777-7.431-6.6-7.012-7.429-4.95-6.185-6.185-4.541-6.604-2.472-5.776-4.541-4.95-5.36-3.715-6.185-2.062-5.36-2.473-3.713-3.715-1.65-3.715-1.65-2.062-1.237-.826 0 0" fill="#ffffff"/>
<path transform="matrix(2,0,0,-2,386.9248,538.06838)" d="M0 0C0-.407 11.143 14.446 .415 37.137 .415 33.422-.827 32.599-2.885 30.949 0 23.935 1.652 15.27-2.063 6.607-.414 4.954 0 2.893 0 0" fill="#ffffff"/>
<path transform="matrix(2,0,0,-2,470.2714,440.69044)" d="M0 0C-.408-.823 .823-1.65 2.063-2.063 3.298-2.477 4.54-1.65 4.954-.823 4.954 0 4.129 .825 2.89 1.24 1.65 1.652 0 .825 0 0" fill="#ffffff"/>
<path transform="matrix(2,0,0,-2,476.0518,445.64363)" d="M0 0C-1.24 0-2.477-.41-2.477-1.233-2.89-2.06-2.067-2.887-.827-3.298 .408-3.714 1.65-3.298 2.063-2.06 2.063-1.233 1.239-.41 0 0" fill="#ffffff"/>
<path transform="matrix(2,0,0,-2,476.0518,430.7862)" d="M0 0C-1.24 .415-2.477 0-2.477-.822-2.89-2.065-2.067-2.885-.827-2.885 .408-3.3 1.65-2.885 2.063-2.065 2.063-1.237 1.239 0 0 0" fill="#ffffff"/>
<path transform="matrix(2,0,0,-2,485.122,452.24018)" d="M0 0V6.188L-2.472 6.6C-1.237 5.363-1.237 4.125-2.885 3.298-1.648 2.479-.825 1.238-2.06 0Z" fill="#ffffff"/>
<path transform="matrix(2,0,0,-2,511.5322,463.794)" d="M0 0C-.825 2.065-.825 4.125-2.063 5.777-3.713 8.255-6.188 7.842-8.253 10.315-9.492 11.552-10.729 13.619-12.378 15.267-12.79 16.092-14.03 16.504-15.265 16.092-14.854 15.267-14.442 14.029-15.265 13.619L-12.378 12.792V7.429C-11.963 3.3-7.84 4.538-4.538 4.125L-4.954 0H-9.492C-9.492-2.476-6.604-2.889-7.84-7.01-6.604-6.602-5.778-4.949-5.362-4.124-3.713-5.775-5.362-8.252-6.188-9.487-4.954-9.487-4.126-9.081-2.475-7.835-2.063-9.081-3.3-10.727-4.126-11.967-2.475-11.967-.825-10.313-.411-9.904 .414-11.967-.825-12.789-1.653-14.442-1.24-14.031 4.124-12.789 6.19-11.967 7.841-11.552 9.902-11.141 12.381-10.727 11.966-9.904 11.556-9.081 11.556-7.835 10.314-8.662 8.252-9.081 6.19-7.835 7.014-7.427 7.429-6.602 7.841-5.775 5.366-4.949 1.235-2.476 0 0" fill="#ffffff"/>
<path transform="matrix(2,0,0,-2,461.1944,462.14363)" d="M0 0H18.565V2.066H13.206C13.206 3.3 12.379 4.126 11.552 4.126H6.602C5.779 4.126 4.952 3.3 4.952 2.066H0Z" fill="#ffffff"/>
<path transform="matrix(2,0,0,-2,475.2216,417.583)" d="M0 0H5.365C6.192 0 7.427 .827 7.427 1.654H-2.062C-2.062 .827-1.235 0 0 0" fill="#ffffff"/>
<path transform="matrix(2,0,0,-2,486.7754,411.80958)" d="M0 0C.825 6.602-2.063 10.729-1.239 16.504H-5.362C-4.123 10.729-7.012 6.602-6.188 0Z" fill="#ffffff"/>
<path transform="matrix(2,0,0,-2,0,1000)" d="M238.849 311.423H241.736V320.917H238.849Z" fill="#ffffff"/>
<path transform="matrix(2,0,0,-2,479.3516,355.69343)" d="M0 0C-.411 1.242-.411 2.479 .414 4.13 1.648 2.479 1.648 .829 .825 0 2.885 .415 3.3 1.651 2.885 3.303 2.885 4.538 1.648 6.192 .825 7.017 0 6.602-1.242 5.363-1.65 3.715-2.065 2.066-2.065 .415 0 0" fill="#ffffff"/>
<path transform="matrix(2,0,0,-2,442.2138,417.583)" d="M0 0H4.952C5.778 0 6.604 .827 6.604 1.654H-2.063C-2.063 .827-1.237 0 0 0" fill="#ffffff"/>
<path transform="matrix(2,0,0,-2,452.9374,411.80958)" d="M0 0C.417 6.602-2.062 8.254-1.237 14.031H-4.95C-4.122 8.254-6.599 6.602-6.189 0Z" fill="#ffffff"/>
<path transform="matrix(2,0,0,-2,0,1000)" d="M221.93 308.951H224.81999V315.13999H221.93Z" fill="#ffffff"/>
<path transform="matrix(2,0,0,-2,446.3448,367.2442)" d="M0 0C-.825 1.238-.825 2.475 .409 4.127 1.234 2.475 1.234 .825 .409 0 2.475 .414 2.886 1.648 2.475 3.3 2.06 4.539 1.234 6.19 .409 7.017-.414 6.604-1.654 5.365-2.065 3.715-2.065 2.063-2.065 .414 0 0" fill="#ffffff"/>
<path transform="matrix(2,0,0,-2,509.0528,417.583)" d="M0 0H4.956C6.188 0 7.017 .827 7.017 1.654H-1.646C-1.646 .827-.823 0 0 0" fill="#ffffff"/>
<path transform="matrix(2,0,0,-2,520.6132,411.80958)" d="M0 0C.408 6.602-2.062 8.254-1.237 14.031H-4.952C-4.127 8.254-6.604 6.602-6.194 0Z" fill="#ffffff"/>
<path transform="matrix(2,0,0,-2,0,1000)" d="M255.766 308.951H258.245V315.13999H255.766Z" fill="#ffffff"/>
<path transform="matrix(2,0,0,-2,513.1866,367.2442)" d="M0 0C-.414 1.238-.414 2.475 .408 4.127 1.652 2.475 1.235 .825 .823 0 2.477 .414 2.889 1.648 2.889 3.3 2.477 4.539 1.235 6.19 .408 7.017 0 6.604-1.238 5.365-1.652 3.715-2.067 2.063-1.652 .414 0 0" fill="#ffffff"/>
<path transform="matrix(2,0,0,-2,516.4902,422.5332)" d="M0 0V1.239H-2.065V0C-2.065-.823-2.479-1.236-3.304-1.236H-16.921V1.239H-18.98V-1.236H-33.013C-33.425-1.236-33.838-.823-33.838 0V1.239H-35.898V0C-35.898-2.063-34.664-3.302-32.598-3.302H-3.304C-1.244-3.302 0-2.063 0 0" fill="#ffffff"/>
<path transform="matrix(2,0,0,-2,932.455,350.58003)" d="M0 0C.573 .654 1.136 1.371 1.689 2.149 2.241 2.926 2.763 3.878 3.254 5.004 3.746 6.129 4.196 7.501 4.605 9.119 5.014 10.735 5.382 12.711 5.71 15.044 6.038 17.377 6.303 20.13 6.509 23.303 6.713 26.475 6.856 30.19 6.939 34.448L.798 36.105V38.254C2.681 38.172 4.268 38.122 5.557 38.101 6.847 38.08 8.053 38.071 9.18 38.071H12.68 17.07 24.93C27.632 38.071 30.804 38.132 34.448 38.254V35.86L28.614 34.448V-.123L34.448-1.536V-3.93H17.991V-1.785L23.457-.129V34.386H10.5C10.458 28.01 10.183 22.371 9.671 17.466 9.159 12.561 8.351 8.452 7.246 5.142 6.14 1.832 4.717-.672 2.978-2.368 1.238-4.064-.881-4.913-3.377-4.913-5.015-4.913-6.346-4.544-7.369-3.807-8.393-3.07-8.903-2.129-8.903-.982-8.903-.206-8.75 .511-8.443 1.167-8.136 1.821-7.758 2.374-7.307 2.824Z" fill="#ffffff"/>
<path transform="matrix(2,0,0,-2,1058.7012,311.89564)" d="M0 0C-1.269 0-2.487-.062-3.653-.185-4.82-.307-6.018-.49-7.246-.735V-18.792C-6.754-18.957-6.161-19.1-5.464-19.222-4.769-19.344-4.052-19.457-3.315-19.559-2.579-19.66-1.863-19.732-1.167-19.772-.471-19.814 .123-19.833 .614-19.833 2.865-19.833 4.738-19.559 6.233-19.008 7.727-18.457 8.924-17.722 9.825-16.804 10.725-15.886 11.35-14.845 11.698-13.682 12.045-12.519 12.22-11.324 12.22-10.1 12.22-8.754 12.005-7.468 11.575-6.244 11.146-5.02 10.449-3.949 9.487-3.031 8.525-2.113 7.266-1.378 5.711-.827 4.155-.276 2.251 0 0 0M-7.246 2.64C-5.933 2.926-4.547 3.151-3.091 3.315-1.635 3.479-.249 3.561 1.065 3.561 3.527 3.561 5.764 3.244 7.774 2.61 9.786 1.974 11.499 1.074 12.915-.092 14.331-1.259 15.428-2.671 16.208-4.329 16.987-5.987 17.378-7.86 17.378-9.948 17.378-11.75 17.07-13.458 16.455-15.075 15.839-16.692 14.947-18.105 13.778-19.312 12.608-20.52 11.193-21.482 9.533-22.198 7.871-22.915 5.994-23.272 3.902-23.272 1.769-23.272-.415-23.242-2.65-23.18-4.886-23.119-7.091-23.088-9.265-23.088H-13.446C-14.839-23.088-16.272-23.129-17.746-23.211L-17.93-21.062-12.403-19.342V15.105L-17.868 16.825V18.912L-1.412 18.974V16.457L-7.246 15.167Z" fill="#ffffff"/>
<path transform="matrix(2,0,0,-2,1146.0186,308.58003)" d="M0 0C2.538 .041 4.584 .348 6.14 .921 7.696 1.494 8.893 2.149 9.733 2.886 10.571 3.623 11.134 4.38 11.421 5.158 11.708 5.935 11.851 6.57 11.851 7.062 11.851 9.518 10.94 11.299 9.119 12.404 7.296 13.509 4.79 14.062 1.596 14.062 1.351 14.062 .961 14.051 .43 14.031-.103 14.01-.686 13.99-1.32 13.97-1.955 13.949-2.6 13.908-3.254 13.847-3.91 13.786-4.462 13.714-4.913 13.633V-20.45C-4.421-20.613-3.828-20.755-3.132-20.878-2.436-21.001-1.719-21.114-.982-21.216-.246-21.318 .47-21.39 1.167-21.43 1.862-21.472 2.456-21.491 2.948-21.491 6.877-21.491 9.784-20.666 11.667-19.013 13.549-17.361 14.492-15.208 14.492-12.556 14.492-11.21 14.255-9.966 13.786-8.823 13.314-7.681 12.516-6.692 11.39-5.855 10.264-5.019 8.781-4.356 6.939-3.866 5.096-3.377 2.803-3.111 .062-3.07L-.43-.491ZM-15.044 15.167-14.737 17.377C-13.755 17.336-12.763 17.306-11.759 17.286-10.756 17.264-9.743 17.254-8.719 17.254-6.632 17.254-4.462 17.275-2.21 17.316 .041 17.356 2.169 17.377 4.175 17.377 6.794 17.377 8.923 17.029 10.562 16.333 12.199 15.637 13.478 14.777 14.4 13.754 15.321 12.731 15.944 11.667 16.272 10.562 16.599 9.457 16.763 8.514 16.763 7.737 16.763 6.426 16.518 5.271 16.027 4.268 15.536 3.264 14.921 2.395 14.184 1.658 13.448 .921 12.628 .327 11.728-.123 10.827-.574 9.948-.88 9.087-1.043V-1.228C12.486-1.719 15.075-2.978 16.855-5.004 18.636-7.031 19.527-9.559 19.527-12.588 19.527-14.39 19.178-16.048 18.483-17.562 17.787-19.077 16.845-20.377 15.659-21.461 14.47-22.546 13.069-23.395 11.452-24.009 9.834-24.623 8.084-24.93 6.202-24.93 4.073-24.93 1.893-24.899-.338-24.838-2.569-24.777-4.77-24.746-6.939-24.746H-11.114C-12.506-24.746-13.939-24.787-15.413-24.869L-15.597-22.719-10.07-21V13.693Z" fill="#ffffff"/>
<path transform="matrix(2,0,0,-2,1243.7734,353.65144)" d="M0 0V-2.395H-16.456V-.246L-10.991 1.413V35.983L-16.456 37.641V39.79H0V37.396L-5.833 35.983V1.413Z" fill="#ffffff"/>
<path transform="matrix(2,0,0,-2,1298.914,308.58003)" d="M0 0C2.537 .041 4.584 .348 6.141 .921 7.695 1.494 8.893 2.149 9.732 2.886 10.57 3.623 11.134 4.38 11.421 5.158 11.706 5.935 11.851 6.57 11.851 7.062 11.851 9.518 10.939 11.299 9.118 12.404 7.296 13.509 4.789 14.062 1.596 14.062 1.351 14.062 .961 14.051 .43 14.031-.104 14.01-.687 13.99-1.32 13.97-1.956 13.949-2.601 13.908-3.255 13.847-3.91 13.786-4.463 13.714-4.913 13.633V-20.45C-4.422-20.613-3.828-20.755-3.133-20.878-2.437-21.001-1.72-21.114-.982-21.216-.246-21.318 .47-21.39 1.167-21.43 1.861-21.472 2.456-21.491 2.947-21.491 6.877-21.491 9.783-20.666 11.667-19.013 13.549-17.361 14.491-15.208 14.491-12.556 14.491-11.21 14.255-9.966 13.785-8.823 13.314-7.681 12.516-6.692 11.39-5.855 10.264-5.019 8.78-4.356 6.938-3.866 5.096-3.377 2.804-3.111 .061-3.07L-.431-.491ZM-15.044 15.167-14.737 17.377C-13.755 17.336-12.763 17.306-11.76 17.286-10.757 17.264-9.743 17.254-8.72 17.254-6.633 17.254-4.463 17.275-2.211 17.316 .04 17.356 2.169 17.377 4.176 17.377 6.795 17.377 8.923 17.029 10.561 16.333 12.197 15.637 13.479 14.777 14.398 13.754 15.32 12.731 15.943 11.667 16.271 10.562 16.599 9.457 16.763 8.514 16.763 7.737 16.763 6.426 16.518 5.271 16.026 4.268 15.535 3.264 14.921 2.395 14.185 1.658 13.447 .921 12.628 .327 11.728-.123 10.827-.574 9.947-.88 9.087-1.043V-1.228C12.485-1.719 15.074-2.978 16.855-5.004 18.636-7.031 19.526-9.559 19.526-12.588 19.526-14.39 19.179-16.048 18.482-17.562 17.786-19.077 16.845-20.377 15.658-21.461 14.47-22.546 13.068-23.395 11.451-24.009 9.834-24.623 8.084-24.93 6.201-24.93 4.072-24.93 1.893-24.899-.338-24.838-2.569-24.777-4.77-24.746-6.939-24.746H-11.114C-12.507-24.746-13.939-24.787-15.413-24.869L-15.598-22.719-10.07-21V13.693Z" fill="#ffffff"/>
<path transform="matrix(2,0,0,-2,1363.7559,317.91304)" d="M0 0C0 2.742 .307 5.485 .921 8.228 1.535 10.97 2.568 13.437 4.022 15.627 5.475 17.816 7.379 19.598 9.733 20.97 12.086 22.34 15.003 23.026 18.482 23.026 19.916 23.026 21.48 22.873 23.181 22.566 24.879 22.259 26.711 21.573 28.676 20.509L29.965 22.965H31.991L32.237 11.053 29.904 10.807 27.878 16.886C26.689 17.705 25.37 18.318 23.917 18.729 22.463 19.137 20.714 19.342 18.667 19.342 16.211 19.342 14.133 18.83 12.434 17.807 10.735 16.784 9.364 15.412 8.32 13.693 7.276 11.974 6.529 9.979 6.078 7.706 5.628 5.434 5.404 3.049 5.404 .552 5.404-1.7 5.566-3.89 5.896-6.018 6.223-8.146 6.888-10.05 7.891-11.728 8.894-13.407 10.325-14.758 12.188-15.781 14.052-16.805 16.518-17.316 19.589-17.316 21.553-17.316 23.527-17.193 25.514-16.948 27.499-16.702 29.494-16.232 31.5-15.536L32.482-18.421C30.477-19.445 28.276-20.171 25.882-20.602 23.487-21.031 21.123-21.246 18.789-21.246 12.689-21.246 8.033-19.456 4.82-15.874 1.605-12.292 0-7 0 0" fill="#ffffff"/>
<path transform="matrix(2,0,0,-2,1483.125,311.89564)" d="M0 0C-1.27 0-2.486-.062-3.653-.185-4.819-.307-6.018-.49-7.246-.735V-18.792C-6.755-18.957-6.161-19.1-5.465-19.222-4.77-19.344-4.053-19.457-3.315-19.559-2.579-19.66-1.863-19.732-1.166-19.772-.472-19.814 .123-19.833 .614-19.833 2.864-19.833 4.737-19.559 6.232-19.008 7.727-18.457 8.924-17.722 9.825-16.804 10.725-15.886 11.35-14.845 11.698-13.682 12.045-12.519 12.219-11.324 12.219-10.1 12.219-8.754 12.005-7.468 11.574-6.244 11.146-5.02 10.448-3.949 9.487-3.031 8.525-2.113 7.266-1.378 5.71-.827 4.154-.276 2.251 0 0 0M-7.246 2.64C-5.934 2.926-4.547 3.151-3.092 3.315-1.635 3.479-.249 3.561 1.064 3.561 3.527 3.561 5.764 3.244 7.774 2.61 9.785 1.974 11.498 1.074 12.914-.092 14.33-1.259 15.429-2.671 16.208-4.329 16.987-5.987 17.378-7.86 17.378-9.948 17.378-11.75 17.069-13.458 16.455-15.075 15.838-16.692 14.946-18.105 13.777-19.312 12.608-20.52 11.192-21.482 9.532-22.198 7.871-22.915 5.993-23.272 3.902-23.272 1.769-23.272-.415-23.242-2.65-23.18-4.887-23.119-7.092-23.088-9.265-23.088H-13.447C-14.839-23.088-16.272-23.129-17.746-23.211L-17.93-21.062-12.403-19.342V15.105L-17.868 16.825V18.912L-1.412 18.974V16.457L-7.246 15.167Z" fill="#ffffff"/>
<path transform="matrix(2,0,0,-2,1564.914,314.96583)" d="M0 0V1.105L12.956 17.009 9.026 18.237V20.632H22.166V17.992C20.693 17.418 19.157 16.569 17.562 15.443 15.966 14.317 14.491 12.977 13.14 11.421L4.359 1.413 25.053-20.141 24.623-21.798 19.833-22.843ZM3.622-19.343V-21.737H-12.834V-19.588L-7.369-17.93V16.641L-12.834 18.298V20.447H3.622V18.053L-2.211 16.641V-17.93Z" fill="#ffffff"/>
<path transform="matrix(2,0,0,-2,1667.2149,353.65144)" d="M0 0V-2.395H-16.456V-.246L-10.991 1.413V35.983L-16.456 37.641V39.79H0V37.396L-5.834 35.983V8.842L14.43 33.711V35.983L8.966 37.641V39.79H25.422V37.396L19.588 35.983V1.413L25.422 0V-2.395H8.966V-.246L14.43 1.413V28.369L-5.772 3.623-5.834 3.562V1.413Z" fill="#ffffff"/>
<path transform="matrix(2,0,0,-2,1765.336,253.92963)" d="M0 0 3.316 1.965C3.726 1.268 4.196 .604 4.729-.031 5.261-.666 5.803-1.208 6.355-1.658 6.909-2.109 7.44-2.467 7.953-2.733 8.464-3 8.925-3.132 9.334-3.132 9.702-3.132 10.122-3.081 10.593-2.979 11.063-2.876 11.616-2.671 12.251-2.364 12.885-2.057 13.602-1.618 14.4-1.044 15.198-.471 16.067 .307 17.01 1.29L18.791-.123C17.111-2.539 15.423-4.217 13.725-5.158 12.025-6.1 10.439-6.57 8.965-6.57 7.983-6.57 7.052-6.397 6.172-6.048 5.291-5.701 4.462-5.261 3.685-4.729 2.907-4.197 2.211-3.592 1.598-2.917 .982-2.241 .45-1.556 0-.86ZM3.992-49.861V-52.255H-12.465V-50.106L-7-48.448V-13.877L-12.465-12.22V-10.071H3.992V-12.465L-1.842-13.877V-41.019L18.422-16.149V-13.877L12.957-12.22V-10.071H29.413V-12.465L23.58-13.877V-48.448L29.413-49.861V-52.255H12.957V-50.106L18.422-48.448V-21.492L-1.78-46.238-1.842-46.299V-48.448Z" fill="#ffffff"/>
<path transform="matrix(2,0,0,-2,951.2442,481.87599)" d="M0 0V-2.396H-16.456V-.246L-10.991 1.412V35.982L-16.456 37.641V39.79H0V37.395L-5.833 35.982V21.184H14.553V35.982L9.088 37.641V39.79H25.544V37.395L19.711 35.982V1.412L25.544 0V-2.396H9.088V-.246L14.553 1.412V17.93H-5.833V1.412Z" fill="#ffffff"/>
<path transform="matrix(2,0,0,-2,1047.0352,436.92878)" d="M0 0-3.009-8.474H10.562L7.553 0 3.869 10.439H3.562ZM6.386 18.176 21.185-21.246 24.808-22.474V-24.869H9.702V-22.536L15.167-21.062 11.667-11.544H-4.053L-7.246-21.062-1.044-22.413V-24.869H-16.21V-22.413L-11.851-21.123 .553 11.482C.961 12.505 1.351 13.519 1.719 14.522 2.087 15.525 2.435 16.599 2.763 17.746L6.079 18.299Z" fill="#ffffff"/>
<path transform="matrix(2,0,0,-2,1179.5468,486.667)" d="M0 0-14.646 .062C-18.119 .062-21.582 .051-25.034 .031-28.486 .01-31.952-.02-35.431-.062V2.087L-29.966 3.746V38.317L-35.431 39.975V42.124H-18.975V39.729L-24.501 38.317V3.746L-4.115 3.807V38.317L-9.888 39.975V42.124H6.508V39.729L.675 38.317 .735 4.053 5.402 3.623 5.648 3.132 4.911-11.175H2.209Z" fill="#ffffff"/>
<path transform="matrix(2,0,0,-2,1244.0197,481.87599)" d="M0 0V-2.396H-16.456V-.246L-10.991 1.412V35.982L-16.456 37.641V39.79H0V37.395L-5.833 35.982V1.412Z" fill="#ffffff"/>
<path transform="matrix(2,0,0,-2,1329.248,445.46199)" d="M0 0C0 2.778-.245 5.343-.737 7.694-1.229 10.043-2.018 12.066-3.101 13.762-4.187 15.458-5.599 16.787-7.339 17.747-9.08 18.707-11.177 19.188-13.632 19.188-15.965 19.188-17.973 18.738-19.649 17.839-21.328 16.94-22.69 15.704-23.733 14.13-24.777 12.557-25.545 10.688-26.036 8.521-26.527 6.354-26.773 4.005-26.773 1.471-26.773-1.431-26.537-4.087-26.066-6.499-25.597-8.91-24.818-10.974-23.733-12.69-22.649-14.407-21.258-15.746-19.558-16.707-17.859-17.667-15.781-18.146-13.325-18.146-10.951-18.146-8.925-17.667-7.245-16.707-5.568-15.746-4.198-14.447-3.133-12.813-2.069-11.177-1.28-9.257-.768-7.05-.256-4.843 0-2.494 0 0M5.403 1.073C5.403-2.12 5.024-5.098 4.268-7.861 3.51-10.624 2.342-13.019 .767-15.045-.81-17.071-2.815-18.668-5.251-19.835-7.687-21.002-10.584-21.584-13.938-21.584-16.724-21.584-19.231-21.103-21.461-20.142-23.692-19.181-25.606-17.768-27.202-15.905-28.8-14.042-30.027-11.771-30.888-9.089-31.746-6.408-32.177-3.348-32.177 .091-32.177 3.243-31.799 6.19-31.041 8.933-30.283 11.675-29.117 14.061-27.541 16.087-25.965 18.113-23.989 19.71-21.614 20.876-19.242 22.043-16.457 22.626-13.263 22.626-10.398 22.626-7.82 22.114-5.527 21.091-3.234 20.067-1.28 18.625 .337 16.762 1.954 14.899 3.203 12.638 4.083 9.977 4.963 7.315 5.403 4.348 5.403 1.073" fill="#ffffff"/>
<path transform="matrix(2,0,0,-2,1391.3869,481.87599)" d="M0 0V-2.396H-16.456V-.246L-10.991 1.412V35.982L-16.456 37.641V39.79H0V37.395L-5.833 35.982V21.184H14.553V35.982L9.088 37.641V39.79H25.545V37.395L19.711 35.982V1.412L25.545 0V-2.396H9.088V-.246L14.553 1.412V17.93H-5.833V1.412Z" fill="#ffffff"/>
<path transform="matrix(2,0,0,-2,1487.1779,436.92878)" d="M0 0-3.009-8.474H10.562L7.553 0 3.868 10.439H3.562ZM6.386 18.176 21.185-21.246 24.807-22.474V-24.869H9.702V-22.536L15.166-21.062 11.666-11.544H-4.054L-7.245-21.062-1.045-22.413V-24.869H-16.211V-22.413L-11.852-21.123 .553 11.482C.961 12.505 1.351 13.519 1.719 14.522 2.088 15.525 2.436 16.599 2.764 17.746L6.079 18.299Z" fill="#ffffff"/>
<path transform="matrix(2,0,0,-2,1562.9492,478.80763)" d="M0 0C.572 .654 1.136 1.371 1.688 2.15 2.241 2.927 2.763 3.878 3.254 5.004 3.746 6.13 4.195 7.501 4.604 9.119 5.014 10.736 5.383 12.711 5.711 15.045 6.038 17.378 6.303 20.131 6.509 23.304 6.713 26.475 6.856 30.19 6.938 34.448L.798 36.106V38.255C2.681 38.173 4.267 38.122 5.557 38.102 6.847 38.081 8.054 38.071 9.18 38.071H12.68 17.07 24.931C27.631 38.071 30.804 38.133 34.448 38.255V35.861L28.613 34.448V-.123L34.448-1.534V-3.93H17.991V-1.784L23.456-.128V34.387H10.5C10.458 28.01 10.183 22.371 9.671 17.466 9.158 12.562 8.351 8.453 7.246 5.143 6.14 1.832 4.718-.671 2.978-2.368 1.237-4.063-.881-4.912-3.378-4.912-5.016-4.912-6.346-4.543-7.369-3.807-8.393-3.07-8.904-2.129-8.904-.982-8.904-.205-8.751 .512-8.443 1.167-8.137 1.821-7.759 2.374-7.308 2.826Z" fill="#ffffff"/>
<path transform="matrix(2,0,0,-2,1683.0567,440.122)" d="M0 0C-1.27 0-2.486-.061-3.653-.184-4.819-.307-6.018-.49-7.246-.735V-18.792C-6.755-18.957-6.161-19.099-5.465-19.221-4.77-19.345-4.053-19.457-3.315-19.558-2.579-19.66-1.863-19.731-1.166-19.772-.472-19.813 .123-19.834 .614-19.834 2.864-19.834 4.737-19.558 6.232-19.008 7.727-18.457 8.924-17.722 9.825-16.804 10.725-15.885 11.35-14.844 11.698-13.681 12.045-12.519 12.219-11.324 12.219-10.1 12.219-8.754 12.005-7.468 11.574-6.244 11.146-5.02 10.448-3.949 9.487-3.031 8.525-2.112 7.266-1.378 5.71-.827 4.154-.276 2.251 0 0 0M-7.246 2.64C-5.934 2.926-4.547 3.152-3.092 3.316-1.635 3.479-.249 3.562 1.064 3.562 3.527 3.562 5.764 3.244 7.774 2.61 9.785 1.975 11.498 1.075 12.914-.092 14.33-1.259 15.428-2.671 16.208-4.329 16.987-5.987 17.378-7.86 17.378-9.948 17.378-11.749 17.069-13.458 16.455-15.075 15.838-16.692 14.946-18.104 13.777-19.312 12.608-20.52 11.192-21.482 9.532-22.197 7.871-22.914 5.993-23.272 3.902-23.272 1.769-23.272-.415-23.241-2.65-23.181-4.887-23.119-7.092-23.088-9.266-23.088H-13.447C-14.839-23.088-16.272-23.129-17.746-23.21L-17.93-21.062-12.403-19.343V15.105L-17.868 16.825V18.913L-1.412 18.974V16.457L-7.246 15.167Z" fill="#ffffff"/>
<path transform="matrix(2,0,0,-2,1766.5645,481.87599)" d="M0 0V-2.396H-16.457V-.246L-10.991 1.412V35.982L-16.457 37.641V39.79H0V37.395L-5.833 35.982V21.184H14.552V35.982L9.087 37.641V39.79H25.544V37.395L19.711 35.982V1.412L25.544 0V-2.396H9.087V-.246L14.552 1.412V17.93H-5.833V1.412Z" fill="#ffffff"/>
<path transform="matrix(2,0,0,-2,1866.6524,481.87599)" d="M0 0V-2.396H-16.456V-.246L-10.991 1.412V35.982L-16.456 37.641V39.79H0V37.395L-5.834 35.982V8.842L14.431 33.71V35.982L8.966 37.641V39.79H25.422V37.395L19.588 35.982V1.412L25.422 0V-2.396H8.966V-.246L14.431 1.412V28.368L-5.771 3.623-5.834 3.561V1.412Z" fill="#ffffff"/>
<path transform="matrix(2,0,0,-2,1958.6348,382.1552)" d="M0 0 3.316 1.964C3.726 1.268 4.196 .603 4.729-.031 5.261-.666 5.803-1.208 6.355-1.658 6.908-2.109 7.44-2.467 7.953-2.733 8.463-3 8.925-3.132 9.334-3.132 9.702-3.132 10.122-3.081 10.593-2.979 11.063-2.877 11.616-2.671 12.251-2.364 12.885-2.058 13.602-1.618 14.399-1.044 15.198-.472 16.067 .307 17.009 1.289L18.791-.123C17.111-2.539 15.423-4.217 13.725-5.159 12.025-6.101 10.439-6.571 8.965-6.571 7.982-6.571 7.052-6.397 6.171-6.049 5.29-5.701 4.462-5.261 3.685-4.729 2.907-4.197 2.211-3.592 1.598-2.917 .982-2.241 .45-1.557 0-.86ZM3.991-49.86V-52.256H-12.465V-50.106L-7-48.449V-13.878L-12.465-12.22V-10.071H3.991V-12.465L-1.842-13.878V-41.019L18.422-16.15V-13.878L12.957-12.22V-10.071H29.413V-12.465L23.58-13.878V-48.449L29.413-49.86V-52.256H12.957V-50.106L18.422-48.449V-21.492L-1.78-46.238-1.842-46.3V-48.449Z" fill="#ffffff"/>
<path transform="matrix(2,0,0,-2,951.6132,586.7696)" d="M0 0H-2.763L-14.676 24.685-18.79 25.79-18.544 28.185H-9.149C-9.068 27.283-8.863 26.271-8.536 25.146-8.208 24.019-7.798 22.924-7.307 21.86L1.167 3.193H1.351C2.005 4.707 2.661 6.232 3.315 7.768 3.97 9.303 4.636 10.908 5.311 12.588 5.987 14.266 6.713 16.057 7.491 17.961 8.269 19.864 9.149 21.921 10.132 24.132L4.421 25.545V28.185H18.605V25.729C17.254 25.155 15.944 24.193 14.676 22.843 13.406 21.491 12.321 19.772 11.421 17.685L1.044-5.833C-.144-8.657-1.566-10.921-3.224-12.619-4.881-14.316-6.857-15.167-9.149-15.167-10.991-15.167-12.394-14.768-13.355-13.97-14.318-13.171-14.799-12.24-14.799-11.176-14.799-10.562-14.625-9.948-14.277-9.333-13.929-8.72-13.366-8.146-12.588-7.614L-6.754-10.685C-5.977-10.398-5.158-9.723-4.298-8.657-3.439-7.594-2.723-6.386-2.149-5.035Z" fill="#ffffff"/>
<path transform="matrix(2,0,0,-2,1039.543,610.10366)" d="M0 0V-2.395H-16.456V-.245L-10.992 1.412V35.983L-16.456 37.641V39.79H0V37.396L-5.833 35.983V21.185H14.553V35.983L9.088 37.641V39.79H25.544V37.396L19.711 35.983V1.412L25.544 0V-2.395H9.088V-.245L14.553 1.412V17.93H-5.833V1.412Z" fill="#ffffff"/>
<path transform="matrix(2,0,0,-2,1148.1065,610.10366)" d="M0 0V-2.395H-16.457V-.245L-10.992 1.412V35.983L-16.457 37.641V39.79H0V37.396L-5.833 35.983V1.412Z" fill="#ffffff"/>
<path transform="matrix(2,0,0,-2,1203.2442,565.0312)" d="M0 0C2.538 .039 4.584 .347 6.141 .921 7.696 1.494 8.894 2.148 9.733 2.885 10.571 3.622 11.135 4.379 11.422 5.158 11.708 5.935 11.852 6.569 11.852 7.061 11.852 9.518 10.939 11.298 9.119 12.403 7.297 13.509 4.79 14.061 1.597 14.061 1.352 14.061 .962 14.05 .43 14.031-.103 14.01-.686 13.989-1.32 13.969-1.955 13.948-2.6 13.907-3.254 13.847-3.909 13.785-4.462 13.714-4.912 13.632V-20.45C-4.421-20.613-3.828-20.756-3.131-20.879-2.436-21.002-1.719-21.115-.982-21.217-.245-21.318 .471-21.391 1.167-21.431 1.862-21.472 2.457-21.492 2.948-21.492 6.878-21.492 9.784-20.666 11.667-19.014 13.55-17.362 14.492-15.208 14.492-12.557 14.492-11.211 14.256-9.966 13.785-8.824 13.314-7.682 12.517-6.692 11.391-5.855 10.265-5.02 8.781-4.356 6.939-3.867 5.097-3.378 2.804-3.112 .062-3.07L-.43-.491ZM-15.044 15.167-14.736 17.377C-13.754 17.336-12.763 17.305-11.759 17.285-10.756 17.264-9.743 17.254-8.719 17.254-6.631 17.254-4.462 17.274-2.21 17.315 .041 17.356 2.17 17.377 4.176 17.377 6.795 17.377 8.924 17.029 10.563 16.333 12.199 15.637 13.479 14.777 14.399 13.754 15.321 12.73 15.944 11.667 16.272 10.561 16.6 9.456 16.764 8.514 16.764 7.736 16.764 6.426 16.518 5.27 16.026 4.267 15.535 3.264 14.922 2.395 14.185 1.657 13.448 .921 12.629 .327 11.729-.124 10.827-.574 9.948-.881 9.088-1.044V-1.229C12.485-1.72 15.075-2.979 16.855-5.005 18.637-7.031 19.527-9.56 19.527-12.589 19.527-14.39 19.179-16.048 18.483-17.562 17.786-19.077 16.845-20.377 15.658-21.462 14.471-22.546 13.069-23.396 11.452-24.01 9.835-24.624 8.085-24.931 6.202-24.931 4.073-24.931 1.894-24.899-.338-24.839-2.569-24.777-4.77-24.746-6.938-24.746H-11.113C-12.506-24.746-13.938-24.788-15.412-24.869L-15.597-22.72-10.07-21.001V13.693Z" fill="#ffffff"/>
<path transform="matrix(2,0,0,-2,1331.8262,590.6992)" d="M0 0-1.474-11.483-2.149-12.097C-3.623-12.097-4.924-12.087-6.049-12.065-7.175-12.046-8.289-12.025-9.396-12.005-10.5-11.984-11.678-11.965-12.926-11.943-14.175-11.923-15.638-11.912-17.315-11.912H-20.908C-22.239-11.912-23.61-11.923-25.022-11.943-26.435-11.965-27.847-11.984-29.259-12.005-30.672-12.025-31.972-12.057-33.158-12.097L-33.404-10.01-27.938-8.29V26.466L-32.913 27.938-32.605 30.149C-31.583 30.108-30.334 30.077-28.86 30.057-27.387 30.036-25.893 30.027-24.378 30.027H-20.11-16.887C-15.495 30.027-14.277 30.036-13.233 30.057-12.188 30.077-11.176 30.098-10.193 30.119-9.211 30.139-8.197 30.159-7.153 30.181-6.109 30.2-4.872 30.23-3.438 30.272L-2.764 29.903-2.456 18.421-4.974 18.114-7.246 26.466H-10.285C-11.739 26.466-13.294 26.475-14.952 26.496-16.61 26.517-18.176 26.527-19.649 26.527H-22.781V11.482L-6.141 11.974V7.921L-22.781 8.412V-8.412H-19.312C-17.736-8.412-16.068-8.402-14.307-8.382-12.548-8.361-10.879-8.342-9.303-8.32-7.728-8.301-6.57-8.29-5.833-8.29L-1.965 .553Z" fill="#ffffff"/>
<path transform="matrix(2,0,0,-2,1408.582,555.20706)" d="M0 0C0 1.678-.287 3.101-.86 4.268-1.434 5.435-2.242 6.386-3.286 7.122-4.329 7.859-5.588 8.392-7.062 8.72-8.535 9.047-10.193 9.211-12.035 9.211-13.961 9.211-15.741 9.026-17.378 8.657V-8.597C-16.396-8.802-15.393-8.935-14.369-8.996-13.346-9.058-12.609-9.088-12.158-9.088-9.661-9.088-7.625-8.822-6.049-8.29-4.474-7.758-3.234-7.062-2.333-6.202-1.434-5.343-.819-4.371-.491-3.285-.164-2.201 0-1.105 0 0M-27.202 12.465C-26.672 12.465-26.21 12.454-25.821 12.435-25.433 12.413-25.013 12.403-24.562 12.403-24.112 12.403-23.56 12.393-22.904 12.373-22.25 12.352-21.39 12.342-20.326 12.342-18.606 12.342-16.754 12.373-14.769 12.435-12.783 12.495-10.869 12.526-9.026 12.526-6.939 12.526-5.016 12.301-3.255 11.851-1.495 11.4 .021 10.693 1.289 9.732 2.558 8.771 3.55 7.531 4.268 6.018 4.983 4.502 5.342 2.701 5.342 .613 5.342-1.146 5.014-2.815 4.359-4.391 3.704-5.967 2.711-7.359 1.381-8.566 .05-9.773-1.588-10.737-3.531-11.452-5.477-12.169-7.737-12.527-10.315-12.527-11.013-12.527-11.975-12.496-13.202-12.435-14.431-12.374-15.823-12.18-17.378-11.852V-26.036L-11.544-27.387V-29.843H-27.939V-27.693L-22.535-26.036V8.781L-27.509 10.255Z" fill="#ffffff"/>
<path transform="matrix(2,0,0,-2,1442.5977,574.36526)" d="M0 0C0 2.742 .307 5.485 .921 8.228 1.535 10.971 2.568 13.437 4.022 15.627 5.475 17.816 7.379 19.598 9.733 20.97 12.086 22.341 15.003 23.026 18.482 23.026 19.916 23.026 21.481 22.872 23.181 22.565 24.879 22.259 26.711 21.572 28.676 20.509L29.965 22.965H31.992L32.237 11.053 29.904 10.807 27.878 16.886C26.69 17.704 25.37 18.318 23.918 18.728 22.464 19.137 20.714 19.343 18.667 19.343 16.211 19.343 14.133 18.83 12.435 17.808 10.735 16.783 9.364 15.412 8.32 13.692 7.276 11.974 6.529 9.979 6.079 7.706 5.628 5.434 5.404 3.049 5.404 .552 5.404-1.699 5.566-3.89 5.896-6.018 6.223-8.147 6.888-10.05 7.891-11.729 8.894-13.407 10.326-14.759 12.189-15.781 14.052-16.805 16.518-17.316 19.589-17.316 21.554-17.316 23.527-17.193 25.514-16.948 27.499-16.702 29.494-16.232 31.501-15.535L32.482-18.422C30.477-19.445 28.276-20.172 25.882-20.602 23.487-21.031 21.123-21.246 18.79-21.246 12.689-21.246 8.034-19.456 4.82-15.873 1.606-12.292 0-7 0 0" fill="#ffffff"/>
<path transform="matrix(2,0,0,-2,1559.7559,610.10366)" d="M0 0V-2.395H-16.456V-.245L-10.991 1.412V35.983L-16.456 37.641V39.79H0V37.396L-5.833 35.983V8.843L14.431 33.712V35.983L8.966 37.641V39.79H25.422V37.396L19.589 35.983V1.412L25.422 0V-2.395H8.966V-.245L14.431 1.412V28.369L-5.771 3.623-5.833 3.562V1.412Z" fill="#ffffff"/>
<path transform="matrix(2,0,0,-2,1670.2852,607.2656)" d="M0 0 5.833-1.415V-3.813H-10.623V-1.661L-5.158 0V34.871H-15.781L-18.054 26.459-20.571 26.767-20.264 38.193-19.589 38.556C-18.114 38.514-16.724 38.474-15.413 38.433-14.103 38.392-12.793 38.36-11.482 38.34-10.173 38.319-8.802 38.311-7.369 38.311H-2.58 1.842C3.233 38.311 4.604 38.319 5.956 38.34 7.307 38.36 8.667 38.392 10.04 38.433 11.411 38.474 12.874 38.514 14.431 38.556L15.105 38.193 15.413 26.767 12.895 26.459 10.622 34.871H0Z" fill="#ffffff"/>
<path transform="matrix(2,0,0,-2,1785.7227,590.6992)" d="M0 0-1.474-11.483-2.148-12.097C-3.622-12.097-4.923-12.087-6.048-12.065-7.175-12.046-8.289-12.025-9.395-12.005-10.5-11.984-11.677-11.965-12.926-11.943-14.175-11.923-15.638-11.912-17.315-11.912H-20.908C-22.239-11.912-23.61-11.923-25.021-11.943-26.435-11.965-27.847-11.984-29.259-12.005-30.671-12.025-31.971-12.057-33.158-12.097L-33.404-10.01-27.939-8.29V26.466L-32.913 27.938-32.605 30.149C-31.583 30.108-30.333 30.077-28.859 30.057-27.386 30.036-25.893 30.027-24.377 30.027H-20.11-16.886C-15.494 30.027-14.276 30.036-13.232 30.057-12.188 30.077-11.175 30.098-10.193 30.119-9.211 30.139-8.197 30.159-7.153 30.181-6.109 30.2-4.872 30.23-3.438 30.272L-2.764 29.903-2.456 18.421-4.974 18.114-7.246 26.466H-10.284C-11.738 26.466-13.293 26.475-14.951 26.496-16.61 26.517-18.176 26.527-19.648 26.527H-22.781V11.482L-6.14 11.974V7.921L-22.781 8.412V-8.412H-19.312C-17.736-8.412-16.067-8.402-14.307-8.382-12.548-8.361-10.879-8.342-9.302-8.32-7.728-8.301-6.57-8.29-5.833-8.29L-1.965 .553Z" fill="#ffffff"/>
<path transform="matrix(2,0,0,-2,1844.6718,607.2656)" d="M0 0 5.833-1.415V-3.813H-10.623V-1.661L-5.158 0V34.871H-15.781L-18.054 26.459-20.571 26.767-20.265 38.193-19.589 38.556C-18.114 38.514-16.724 38.474-15.413 38.433-14.103 38.392-12.793 38.36-11.482 38.34-10.174 38.319-8.802 38.311-7.369 38.311H-2.58 1.842C3.233 38.311 4.604 38.319 5.956 38.34 7.307 38.36 8.667 38.392 10.039 38.433 11.411 38.474 12.874 38.514 14.43 38.556L15.105 38.193 15.412 26.767 12.895 26.459 10.622 34.871H0Z" fill="#ffffff"/>
<path transform="matrix(2,0,0,-2,921.628,680.1894)" d="M0 0C0 .623 .224 1.158 .67 1.604 1.118 2.052 1.652 2.276 2.275 2.276 2.898 2.276 3.434 2.052 3.88 1.604 4.328 1.158 4.551 .623 4.551 0 4.551-.624 4.328-1.158 3.88-1.605 3.434-2.052 2.898-2.275 2.275-2.275 1.652-2.275 1.118-2.052 .67-1.605 .224-1.158 0-.624 0 0M4.023-23.73 7.355-24.625V-26.047H-2.438L-2.479-24.625 .812-23.568V-8.574L-1.991-7.883V-6.502L3.735-5.607 3.982-5.771Z" fill="#ffffff"/>
<path transform="matrix(2,0,0,-2,975.3476,721.6386)" d="M0 0C.163 .353 .325 .712 .487 1.078 .65 1.443 .839 1.87 1.057 2.357 1.273 2.845 1.524 3.427 1.809 4.105 2.093 4.781 2.445 5.608 2.865 6.583 3.285 7.559 3.772 8.718 4.328 10.058 4.882 11.399 5.553 12.977 6.339 14.792 6.691 14.765 7.149 14.752 7.712 14.752H9.134 9.812 10.504C10.761 14.752 11.073 14.758 11.439 14.772 11.805 14.785 12.272 14.792 12.841 14.792L12.881 13.126 9.752 12.313C9.941 9.713 10.138 7.187 10.341 4.735 10.545 2.282 10.769-.298 11.012-3.006L13.938-3.819V-5.322H4.47V-3.9L7.526-2.966C7.388-.664 7.292 1.612 7.237 3.861 7.182 6.109 7.086 8.385 6.949 10.688H6.705C5.567 8.169 4.483 5.643 3.454 3.109 2.424 .576 1.341-1.949 .203-4.469H-1.463L-7.965 9.59-8.127 9.631C-8.263 7.545-8.398 5.445-8.534 3.333-8.669 1.22-8.792-.88-8.899-2.966L-5.405-3.819V-5.322H-14.669V-3.859L-11.378-2.925C-11.134-.324-10.904 2.216-10.688 4.694-10.47 7.173-10.24 9.727-9.997 12.354L-13.166 13.166-12.922 14.792C-12.516 14.792-12.129 14.785-11.764 14.772-11.398 14.758-11.093 14.752-10.85 14.752H-9.915-9.021C-8.696 14.752-8.33 14.758-7.924 14.772-7.518 14.785-7.017 14.792-6.42 14.792-6.231 13.925-6.055 13.315-5.892 12.963-5.594 12.259-5.297 11.554-4.998 10.851-4.701 10.146-4.348 9.319-3.942 8.372-3.535 7.423-3.027 6.279-2.418 4.937-1.809 3.598-1.057 1.951-.163 0Z" fill="#ffffff"/>
<path transform="matrix(2,0,0,-2,1031.0986,696.44338)" d="M0 0C-1.111 0-2.019-.203-2.723-.609-3.427-1.017-3.982-1.524-4.388-2.134-4.795-2.743-5.079-3.399-5.242-4.104-5.404-4.809-5.486-5.459-5.486-6.055L4.429-5.12C4.429-4.606 4.375-4.044 4.267-3.434 4.158-2.824 3.948-2.27 3.637-1.768 3.325-1.267 2.878-.847 2.296-.508 1.713-.17 .948 0 0 0M8.005-7.051-5.607-7.702C-5.607-9.087-5.506-10.302-5.303-11.348-5.1-12.393-4.748-13.262-4.247-13.954-3.746-14.646-3.062-15.162-2.194-15.501-1.328-15.841-.244-16.01 1.057-16.01 1.652-16.01 2.459-15.929 3.475-15.767 4.491-15.604 5.608-15.238 6.827-14.67L7.477-16.01C6.502-16.73 5.364-17.316 4.063-17.77 2.764-18.222 1.449-18.448 .122-18.448-1.503-18.448-2.899-18.211-4.063-17.737-5.229-17.264-6.176-16.586-6.908-15.706-7.639-14.826-8.174-13.755-8.513-12.495-8.852-11.235-9.021-9.808-9.021-8.208-9.021-6.963-8.873-5.717-8.574-4.471-8.276-3.225-7.761-2.093-7.03-1.077-6.298-.062-5.33 .766-4.124 1.402-2.919 2.038-1.396 2.356 .447 2.356 2.1 2.356 3.447 2.072 4.491 1.502 5.533 .932 6.339 .205 6.908-.678 7.477-1.561 7.863-2.537 8.066-3.609 8.269-4.682 8.384-5.707 8.412-6.685Z" fill="#ffffff"/>
<path transform="matrix(2,0,0,-2,1090.1006,697.01187)" d="M0 0-3.292 1.016V2.396H6.461V.976L3.17 .041V-15.279L6.461-16.214V-17.636H-3.292V-16.254L0-15.157V-8.25H-9.752V-15.279L-6.461-16.214V-17.636H-16.213V-16.254L-12.922-15.157V.041L-16.213 1.016V2.396H-6.461V.976L-9.752 .041V-6.218H0Z" fill="#ffffff"/>
<path transform="matrix(2,0,0,-2,1118.545,680.1894)" d="M0 0C0 .623 .224 1.158 .671 1.604 1.118 2.052 1.652 2.276 2.276 2.276 2.899 2.276 3.434 2.052 3.881 1.604 4.328 1.158 4.551 .623 4.551 0 4.551-.624 4.328-1.158 3.881-1.605 3.434-2.052 2.899-2.275 2.276-2.275 1.652-2.275 1.118-2.052 .671-1.605 .224-1.158 0-.624 0 0M4.023-23.73 7.355-24.625V-26.047H-2.438L-2.479-24.625 .813-23.568V-8.574L-1.991-7.883V-6.502L3.736-5.607 3.982-5.771Z" fill="#ffffff"/>
<path transform="matrix(2,0,0,-2,1193.9649,729.11526)" d="M0 0V-1.584H-10.891V-.162L-7.273 .936V23.812L-10.891 24.91V26.332H0V24.748L-3.86 23.812V.936Z" fill="#ffffff"/>
<path transform="matrix(2,0,0,-2,1221.92,708.14639)" d="M0 0C1.382 0 2.466 .107 3.251 .325 4.037 .542 4.633 .812 5.039 1.138 5.445 1.463 5.702 1.794 5.812 2.134 5.919 2.472 5.974 2.749 5.974 2.967 5.974 3.969 5.579 4.699 4.789 5.161 3.999 5.621 2.706 5.852 .91 5.852 .638 5.852 .174 5.837-.479 5.811-1.133 5.783-1.704 5.743-2.194 5.689V-9.468C-1.648-9.604-.992-9.705-.227-9.772 .538-9.841 1.167-9.875 1.658-9.875 3.625-9.875 5.073-9.522 6.002-8.818 6.931-8.113 7.396-7.192 7.396-6.055 7.396-5.485 7.284-4.951 7.062-4.449 6.838-3.948 6.445-3.502 5.883-3.108 5.32-2.716 4.558-2.411 3.597-2.194 2.635-1.978 1.408-1.884-.081-1.91L-.406-.406ZM-8.005 6.42-7.761 8.006C-7.518 8.006-7.145 7.999-6.644 7.984-6.143 7.972-5.621 7.964-5.078 7.964H-3.53-2.389-1.513-.963C-.746 7.964-.412 7.972 .036 7.984 .484 7.999 1.238 8.006 2.297 8.006 3.71 8.006 4.864 7.836 5.762 7.498 6.657 7.158 7.356 6.738 7.859 6.237 8.362 5.735 8.702 5.215 8.879 4.673 9.055 4.131 9.144 3.657 9.144 3.251 9.144 2.248 8.827 1.408 8.196 .731 7.565 .054 6.865-.447 6.097-.772 7.572-1.151 8.687-1.802 9.438-2.723 10.189-3.644 10.565-4.755 10.565-6.055 10.565-6.922 10.382-7.728 10.016-8.473 9.648-9.218 9.14-9.854 8.488-10.383 7.836-10.911 7.068-11.323 6.186-11.621 5.303-11.921 4.359-12.068 3.354-12.068 2.241-12.068 1.101-12.056-.067-12.028-1.235-12.002-2.362-11.987-3.449-11.987-4.183-11.987-4.963-11.994-5.79-12.008-6.616-12.021-7.423-12.042-8.208-12.068L-8.289-10.484-5.363-9.671V5.729Z" fill="#ffffff"/>
<path transform="matrix(2,0,0,-2,1277.3458,712.7792)" d="M0 0C-2.086-.082-3.725-.3-4.917-.653-6.109-1.008-7.009-1.409-7.619-1.858-8.229-2.309-8.614-2.771-8.777-3.248-8.939-3.724-9.021-4.14-9.021-4.493-9.021-5.447-8.771-6.216-8.269-6.802-7.769-7.387-7.044-7.68-6.096-7.68-5.175-7.68-4.165-7.477-3.067-7.067-1.971-6.659-.948-6.168 0-5.597ZM-.081-7.151-2.845-9.752C-3.521-9.914-4.165-10.043-4.774-10.139-5.384-10.232-6-10.28-6.623-10.28-7.437-10.28-8.188-10.159-8.879-9.914-9.569-9.671-10.173-9.313-10.687-8.838-11.202-8.364-11.608-7.781-11.906-7.091-12.204-6.399-12.353-5.607-12.353-4.714-12.353-4.442-12.34-4.124-12.313-3.759-12.286-3.393-12.197-3.014-12.048-2.621-11.899-2.229-11.683-1.835-11.398-1.442-11.113-1.05-10.714-.69-10.199-.366-9.332 .177-8.101 .616-6.501 .955-4.903 1.294-2.736 1.504 0 1.585V3.982C0 5.418-.318 6.414-.954 6.97-1.592 7.524-2.614 7.803-4.022 7.803-4.564 7.803-5.398 7.741-6.521 7.619-7.646 7.497-9.008 7.206-10.605 6.745L-11.175 8.412C-8.628 9.82-5.987 10.524-3.251 10.524-2.194 10.524-1.267 10.424-.468 10.22 .332 10.017 1.003 9.671 1.544 9.184 2.087 8.696 2.492 8.046 2.764 7.233 3.033 6.421 3.169 5.391 3.169 4.145V-7.313L6.461-8.005V-9.265C5.945-9.59 5.309-9.833 4.552-9.996 3.792-10.159 3.129-10.24 2.561-10.24 2.316-10.24 2.052-10.22 1.769-10.179 1.483-10.139 1.22-10.023 .976-9.833 .732-9.645 .515-9.34 .325-8.919 .136-8.499 .027-7.923 0-7.192Z" fill="#ffffff"/>
<path transform="matrix(2,0,0,-2,1330.416,697.01187)" d="M0 0-3.291 1.016V2.396H6.461V.976L3.17 .041V-15.279L6.461-16.214V-17.636H-3.291V-16.254L0-15.157V-8.25H-9.752V-15.279L-6.461-16.214V-17.636H-16.213V-16.254L-12.922-15.157V.041L-16.213 1.016V2.396H-6.461V.976L-9.752 .041V-6.218H0Z" fill="#ffffff"/>
<path transform="matrix(2,0,0,-2,1377.7149,712.7792)" d="M0 0C-2.086-.082-3.726-.3-4.917-.653-6.109-1.008-7.01-1.409-7.619-1.858-8.229-2.309-8.614-2.771-8.777-3.248-8.939-3.724-9.021-4.14-9.021-4.493-9.021-5.447-8.771-6.216-8.27-6.802-7.769-7.387-7.044-7.68-6.095-7.68-5.175-7.68-4.165-7.477-3.067-7.067-1.971-6.659-.948-6.168 0-5.597ZM-.082-7.151-2.845-9.752C-3.521-9.914-4.165-10.043-4.774-10.139-5.384-10.232-6.001-10.28-6.623-10.28-7.437-10.28-8.188-10.159-8.879-9.914-9.569-9.671-10.173-9.313-10.687-8.838-11.202-8.364-11.608-7.781-11.906-7.091-12.204-6.399-12.354-5.607-12.354-4.714-12.354-4.442-12.34-4.124-12.313-3.759-12.285-3.393-12.197-3.014-12.048-2.621-11.9-2.229-11.683-1.835-11.398-1.442-11.113-1.05-10.714-.69-10.199-.366-9.333 .177-8.101 .616-6.502 .955-4.903 1.294-2.737 1.504 0 1.585V3.982C0 5.418-.319 6.414-.955 6.97-1.592 7.524-2.614 7.803-4.022 7.803-4.565 7.803-5.398 7.741-6.521 7.619-7.646 7.497-9.008 7.206-10.605 6.745L-11.175 8.412C-8.629 9.82-5.987 10.524-3.251 10.524-2.194 10.524-1.267 10.424-.467 10.22 .331 10.017 1.002 9.671 1.545 9.184 2.086 8.696 2.492 8.046 2.763 7.233 3.034 6.421 3.17 5.391 3.17 4.145V-7.313L6.461-8.005V-9.265C5.945-9.59 5.309-9.833 4.552-9.996 3.792-10.159 3.129-10.24 2.561-10.24 2.316-10.24 2.053-10.22 1.768-10.179 1.483-10.139 1.219-10.023 .976-9.833 .731-9.645 .515-9.34 .325-8.919 .136-8.499 .026-7.923 0-7.192Z" fill="#ffffff"/>
<path transform="matrix(2,0,0,-2,1473.045,703.5958)" d="M0 0C0 1.057-.177 2.038-.528 2.946-.881 3.854-1.402 4.652-2.093 5.344-2.784 6.034-3.657 6.589-4.714 7.01-5.771 7.43-6.989 7.693-8.371 7.803V-7.802C-5.526-7.504-3.421-6.664-2.052-5.282-.685-3.9 0-2.141 0 0M-19.952 .406C-19.952-1.923-19.292-3.819-17.972-5.282-16.651-6.745-14.59-7.599-11.784-7.842V7.721C-14.535 7.423-16.583 6.63-17.931 5.344-19.278 4.057-19.952 2.411-19.952 .406M-4.511-12.76V-14.344H-15.4V-12.922L-11.784-11.824V-9.833C-13.653-9.726-15.299-9.4-16.722-8.858-18.145-8.316-19.329-7.619-20.277-6.766-21.227-5.912-21.937-4.931-22.41-3.819-22.885-2.709-23.122-1.518-23.122-.243-23.122 .921-22.912 2.065-22.491 3.19-22.072 4.314-21.408 5.337-20.5 6.259-19.594 7.179-18.422 7.944-16.986 8.554-15.551 9.163-13.816 9.55-11.784 9.712V11.053L-15.4 12.15V13.572H-4.511V11.988L-8.371 11.053V9.712C-6.394 9.604-4.673 9.278-3.21 8.736-1.748 8.195-.535 7.497 .427 6.644 1.388 5.791 2.105 4.809 2.58 3.698 3.054 2.587 3.291 1.423 3.291 .204 3.291-.907 3.081-2.019 2.661-3.129 2.241-4.24 1.564-5.269 .63-6.217-.306-7.166-1.511-7.964-2.987-8.614-4.464-9.265-6.258-9.671-8.371-9.833V-11.824Z" fill="#ffffff"/>
<path transform="matrix(2,0,0,-2,1501.246,726.2696)" d="M0 0C.652-.298 1.488-.542 2.508-.732 3.527-.922 4.486-1.016 5.384-1.016 6.524-1.016 7.477-.766 8.238-.265 8.999 .236 9.597 .874 10.032 1.646 10.468 2.418 10.773 3.271 10.95 4.205 11.126 5.141 11.215 6.055 11.215 6.949 11.215 7.95 11.126 8.905 10.95 9.813 10.773 10.721 10.475 11.521 10.053 12.211 9.632 12.901 9.087 13.45 8.422 13.856 7.755 14.263 6.933 14.466 5.954 14.466 4.812 14.466 3.738 14.27 2.731 13.877 1.727 13.484 .814 13.044 0 12.557ZM.04 14.101 2.852 16.742C3.531 16.904 4.156 17.033 4.727 17.128 5.297 17.223 5.896 17.27 6.521 17.27 7.823 17.27 8.978 17.033 9.983 16.56 10.988 16.085 11.823 15.414 12.489 14.548 13.155 13.68 13.657 12.631 13.996 11.397 14.336 10.165 14.506 8.79 14.506 7.273 14.506 5.783 14.336 4.382 13.997 3.068 13.658 1.754 13.121 .603 12.388-.387 11.653-1.376 10.704-2.16 9.535-2.742 8.367-3.325 6.954-3.616 5.297-3.616 4.591-3.616 3.742-3.542 2.75-3.394 1.759-3.244 .828-2.926-.041-2.438V-9.55L3.291-10.443V-11.865H-6.461V-10.443L-3.169-9.388-3.13 14.385-5.974 15.076V16.457L-.842 17.188-.602 17.025-.04 14.101Z" fill="#ffffff"/>
<path transform="matrix(2,0,0,-2,1564.6386,712.7792)" d="M0 0C-2.087-.082-3.726-.3-4.917-.653-6.109-1.008-7.01-1.409-7.619-1.858-8.229-2.309-8.615-2.771-8.778-3.248-8.94-3.724-9.021-4.14-9.021-4.493-9.021-5.447-8.771-6.216-8.271-6.802-7.77-7.387-7.045-7.68-6.096-7.68-5.175-7.68-4.166-7.477-3.068-7.067-1.971-6.659-.949-6.168 0-5.597ZM-.082-7.151-2.845-9.752C-3.522-9.914-4.166-10.043-4.775-10.139-5.385-10.232-6.001-10.28-6.624-10.28-7.437-10.28-8.188-10.159-8.88-9.914-9.57-9.671-10.173-9.313-10.688-8.838-11.202-8.364-11.608-7.781-11.907-7.091-12.205-6.399-12.354-5.607-12.354-4.714-12.354-4.442-12.341-4.124-12.313-3.759-12.286-3.393-12.198-3.014-12.049-2.621-11.9-2.229-11.683-1.835-11.399-1.442-11.114-1.05-10.715-.69-10.199-.366-9.334 .177-8.101 .616-6.502 .955-4.904 1.294-2.737 1.504 0 1.585V3.982C0 5.418-.319 6.414-.955 6.97-1.592 7.524-2.615 7.803-4.023 7.803-4.565 7.803-5.398 7.741-6.522 7.619-7.646 7.497-9.009 7.206-10.606 6.745L-11.175 8.412C-8.629 9.82-5.988 10.524-3.252 10.524-2.195 10.524-1.268 10.424-.468 10.22 .33 10.017 1.002 9.671 1.544 9.184 2.085 8.696 2.492 8.046 2.763 7.233 3.033 6.421 3.169 5.391 3.169 4.145V-7.313L6.46-8.005V-9.265C5.945-9.59 5.309-9.833 4.551-9.996 3.792-10.159 3.129-10.24 2.56-10.24 2.315-10.24 2.052-10.22 1.767-10.179 1.483-10.139 1.219-10.023 .975-9.833 .73-9.645 .514-9.34 .324-8.919 .135-8.499 .026-7.923 0-7.192Z" fill="#ffffff"/>
<path transform="matrix(2,0,0,-2,1617.707,697.01187)" d="M0 0-3.292 1.016V2.396H6.461V.976L3.17 .041V-15.279L6.461-16.214V-17.636H-3.292V-16.254L0-15.157V-8.25H-9.752V-15.279L-6.461-16.214V-17.636H-16.213V-16.254L-12.922-15.157V.041L-16.213 1.016V2.396H-6.461V.976L-9.752 .041V-6.218H0Z" fill="#ffffff"/>
<path transform="matrix(2,0,0,-2,1657.6094,709.77139)" d="M0 0 10.932-10.525 10.687-11.378 7.762-12.15-2.682-1.098V-.488L3.779 6.299 1.504 7.111V8.574L9.59 8.818V7.273C8.533 6.921 7.511 6.44 6.522 5.831 5.532 5.221 4.537 4.43 3.535 3.454ZM-3.17-8.939-.162-9.834V-11.256H-9.631V-9.834L-6.339-8.777V6.299L-9.144 6.989V8.371L-3.413 9.265-3.17 9.103Z" fill="#ffffff"/>
<path transform="matrix(2,0,0,-2,1711.4122,712.7792)" d="M0 0C-2.086-.082-3.726-.3-4.917-.653-6.109-1.008-7.01-1.409-7.619-1.858-8.229-2.309-8.614-2.771-8.778-3.248-8.94-3.724-9.021-4.14-9.021-4.493-9.021-5.447-8.771-6.216-8.27-6.802-7.769-7.387-7.044-7.68-6.096-7.68-5.175-7.68-4.166-7.477-3.068-7.067-1.971-6.659-.949-6.168 0-5.597ZM-.082-7.151-2.845-9.752C-3.522-9.914-4.166-10.043-4.775-10.139-5.385-10.232-6.001-10.28-6.623-10.28-7.437-10.28-8.188-10.159-8.879-9.914-9.569-9.671-10.173-9.313-10.688-8.838-11.202-8.364-11.608-7.781-11.906-7.091-12.205-6.399-12.354-5.607-12.354-4.714-12.354-4.442-12.341-4.124-12.313-3.759-12.286-3.393-12.197-3.014-12.049-2.621-11.9-2.229-11.683-1.835-11.398-1.442-11.114-1.05-10.715-.69-10.199-.366-9.333 .177-8.101 .616-6.502 .955-4.904 1.294-2.737 1.504 0 1.585V3.982C0 5.418-.319 6.414-.955 6.97-1.592 7.524-2.614 7.803-4.022 7.803-4.565 7.803-5.398 7.741-6.522 7.619-7.646 7.497-9.008 7.206-10.605 6.745L-11.175 8.412C-8.629 9.82-5.987 10.524-3.251 10.524-2.195 10.524-1.268 10.424-.468 10.22 .331 10.017 1.002 9.671 1.544 9.184 2.086 8.696 2.492 8.046 2.763 7.233 3.033 6.421 3.169 5.391 3.169 4.145V-7.313L6.46-8.005V-9.265C5.945-9.59 5.309-9.833 4.551-9.996 3.792-10.159 3.129-10.24 2.56-10.24 2.315-10.24 2.052-10.22 1.768-10.179 1.483-10.139 1.219-10.023 .976-9.833 .731-9.645 .514-9.34 .324-8.919 .135-8.499 .026-7.923 0-7.192Z" fill="#ffffff"/>
</g>
</g>
</svg>
